<svg xmlns="http://www.w3.org/2000/svg" width="161.757" height="173.199" viewBox="0 0 161.757 173.199">
  <g id="noun_Access_3407299" transform="translate(-4.7 -1.5)">
    <g id="Group_3634" data-name="Group 3634" transform="translate(5.7 2.5)">
      <path id="Path_4939" data-name="Path 4939" d="M62.864,30.6A28.877,28.877,0,0,0,49.875,85.261V93.74a2.987,2.987,0,0,0,.9,2.165l5.232,5.051-4.51,4.33a2.987,2.987,0,0,0-.9,2.165,3.328,3.328,0,0,0,.9,2.165l4.69,4.33-4.69,4.33a2.987,2.987,0,0,0-.9,2.165,3.328,3.328,0,0,0,.9,2.165l4.51,4.33-5.232,5.051a2.987,2.987,0,0,0-.9,2.165v3.788a3.328,3.328,0,0,0,.9,2.165l10.1,10.1a2.988,2.988,0,0,0,2.165.9,3.328,3.328,0,0,0,2.165-.9l10.1-10.1a2.988,2.988,0,0,0,.9-2.165v-52.5a28.727,28.727,0,0,0,15.875-25.8C91.728,43.589,78.739,30.6,62.864,30.6Zm9.02,50.151a3.158,3.158,0,0,0-1.8,2.706v53.4l-7.216,7.216-7.216-7.216v-1.263l6.675-6.314a2.987,2.987,0,0,0,.9-2.165,2.585,2.585,0,0,0-.9-1.984l-4.69-4.51,4.69-4.33a3.049,3.049,0,0,0,0-4.33l-4.69-4.33,4.69-4.51a3.049,3.049,0,0,0,0-4.33l-6.675-6.134v-9.2a2.777,2.777,0,0,0-1.8-2.706,23.091,23.091,0,1,1,18.04,0Z" transform="translate(17.053 20.092)" fill="rgba(88,154,201,0.1)" stroke="#3897f1" stroke-width="2"/>
      <path id="Path_4940" data-name="Path 4940" d="M54.583,38.2A10.283,10.283,0,1,0,64.866,48.483,10.278,10.278,0,0,0,54.583,38.2Zm0,14.432a4.33,4.33,0,1,1,4.33-4.33A4.274,4.274,0,0,1,54.583,52.632Z" transform="translate(25.334 26.203)" fill="rgba(88,154,201,0.1)" stroke="#3897f1" stroke-width="2"/>
      <path id="Path_4941" data-name="Path 4941" d="M15.983,55.094H41.6a2.886,2.886,0,1,0,0-5.773H15.983l4.51-4.51a2.934,2.934,0,0,0-4.149-4.149L6.6,50.4a2.987,2.987,0,0,0-.9,2.165,3.328,3.328,0,0,0,.9,2.165l9.742,9.742a2.988,2.988,0,0,0,2.165.9,3.748,3.748,0,0,0,2.165-.9,3.057,3.057,0,0,0,0-4.149Z" transform="translate(-5.7 27.529)" fill="rgba(88,154,201,0.1)" stroke="#3897f1" stroke-width="2"/>
      <path id="Path_4942" data-name="Path 4942" d="M110.5,50.2l-9.742-9.742a2.934,2.934,0,0,0-4.149,4.149l4.51,4.51H75.686a2.886,2.886,0,1,0,0,5.773H101.3l-4.69,5.051a3.057,3.057,0,0,0,0,4.149,2.987,2.987,0,0,0,2.165.9,3.748,3.748,0,0,0,2.165-.9l9.742-9.742A3.277,3.277,0,0,0,110.5,50.2Z" transform="translate(48.248 27.368)" fill="rgba(88,154,201,0.1)" stroke="#3897f1" stroke-width="2"/>
      <path id="Path_4943" data-name="Path 4943" d="M48.091,17.293l4.51-4.51V38.4a2.886,2.886,0,1,0,5.773,0V12.6l4.51,4.51a2.987,2.987,0,0,0,2.165.9,3.748,3.748,0,0,0,2.165-.9,3.057,3.057,0,0,0,0-4.149L57.833,3.4a3.049,3.049,0,0,0-4.33,0l-9.742,9.742a3.057,3.057,0,0,0,0,4.149A3.292,3.292,0,0,0,48.091,17.293Z" transform="translate(24.249 -2.5)" fill="rgba(88,154,201,0.1)" stroke="#3897f1" stroke-width="2"/>
      <path id="Path_4944" data-name="Path 4944" d="M21.186,34.4a2.849,2.849,0,0,0,2.886-2.886V25.022l18.04,18.04a2.987,2.987,0,0,0,2.165.9,3.748,3.748,0,0,0,2.165-.9,3.057,3.057,0,0,0,0-4.149L28.4,20.873H34.9a2.886,2.886,0,0,0,0-5.773H21.186A2.849,2.849,0,0,0,18.3,17.986V31.7A2.815,2.815,0,0,0,21.186,34.4Z" transform="translate(4.43 7.63)" fill="rgba(88,154,201,0.1)" stroke="#3897f1" stroke-width="2"/>
      <path id="Path_4945" data-name="Path 4945" d="M91.637,71.721a2.849,2.849,0,0,0-2.886,2.886V81.1l-18.04-18.04a2.934,2.934,0,0,0-4.149,4.149L84.6,85.251H78.107a2.886,2.886,0,1,0,0,5.773h13.71A2.849,2.849,0,0,0,94.7,88.137V74.427A3.284,3.284,0,0,0,91.637,71.721Z" transform="translate(42.58 45.538)" fill="rgba(88,154,201,0.1)" stroke="#3897f1" stroke-width="2"/>
      <path id="Path_4946" data-name="Path 4946" d="M68.627,44.044a3.748,3.748,0,0,0,2.165-.9L88.831,25.1V31.6a2.886,2.886,0,1,0,5.773,0V17.886A2.849,2.849,0,0,0,91.718,15H78.007a2.886,2.886,0,1,0,0,5.773H84.5l-18.04,18.04a3.057,3.057,0,0,0,0,4.149A2.572,2.572,0,0,0,68.627,44.044Z" transform="translate(42.499 7.55)" fill="rgba(88,154,201,0.1)" stroke="#3897f1" stroke-width="2"/>
      <path id="Path_4947" data-name="Path 4947" d="M42.213,63.213l-18.04,18.04V74.758a2.886,2.886,0,0,0-5.773,0v13.71a2.849,2.849,0,0,0,2.886,2.886H35a2.886,2.886,0,1,0,0-5.773H28.5l18.04-18.04a3.057,3.057,0,0,0,0-4.149A2.823,2.823,0,0,0,42.213,63.213Z" transform="translate(4.511 45.568)" fill="rgba(88,154,201,0.1)" stroke="#3897f1" stroke-width="2"/>
    </g>
  </g>
</svg>
