<svg xmlns="http://www.w3.org/2000/svg" width="378" height="347" viewBox="0 0 378 347">
  <g id="Group_3701" data-name="Group 3701" transform="translate(1 -240)">
    <rect id="analise-benevides-gWedi4SWsHQ-unsplash" width="378" height="347" transform="translate(-1 240)" fill="#d1d1d1" opacity="0.2"/>
    <g id="Group_3626" data-name="Group 3626" transform="translate(111 371.288)">
      <g id="add" transform="translate(45)">
        <g id="Group_3621" data-name="Group 3621" transform="translate(36.009 9.124)">
          <g id="Group_3620" data-name="Group 3620">
            <path id="Path_4931" data-name="Path 4931" d="M287.072,108.74a3.524,3.524,0,1,0,3.524,3.524A3.528,3.528,0,0,0,287.072,108.74Z" transform="translate(-283.548 -108.74)" fill="rgba(190,190,190,0.1)" stroke="#bebebe" stroke-width="1"/>
          </g>
        </g>
        <g id="Group_3623" data-name="Group 3623" transform="translate(20.529 31.648)">
          <g id="Group_3622" data-name="Group 3622">
            <path id="Path_4932" data-name="Path 4932" d="M173.15,286.1a11.493,11.493,0,1,0,11.495,11.493A11.493,11.493,0,0,0,173.15,286.1Zm6.475,12.855h-5v5.123a1.5,1.5,0,0,1-3,0v-5.123h-4.975a1.5,1.5,0,0,1,0-3h4.975v-4.847a1.5,1.5,0,0,1,3,0v4.847h5a1.5,1.5,0,0,1,0,3Z" transform="translate(-161.656 -286.1)" fill="rgba(190,190,190,0.1)" stroke="#bebebe" stroke-width="1"/>
          </g>
        </g>
        <g id="Group_3625" data-name="Group 3625">
          <g id="Group_3624" data-name="Group 3624">
            <path id="Path_4933" data-name="Path 4933" d="M61.51,36.892H2.537A2.627,2.627,0,0,0,0,39.5V77.533a2.42,2.42,0,0,0,2.537,2.362H17.529a14.494,14.494,0,0,1,28.989,0H61.51a2.384,2.384,0,0,0,2.495-2.362V39.5A2.591,2.591,0,0,0,61.51,36.892ZM49.718,54.12l-9.455,9.458L25.87,49.187a.5.5,0,0,0-.707,0l-9.129,9.128-4.167-4.167a.521.521,0,0,0-.725,0L4.5,60.773V41.392h55V63.2l-9.08-9.083A.5.5,0,0,0,49.718,54.12Z" transform="translate(0 -36.892)" fill="rgba(190,190,190,0.1)" stroke="#bebebe" stroke-width="1"/>
          </g>
        </g>
      </g>
      <text id="Add_Image_Video" data-name="Add Image / Video" transform="translate(0 81.831)" fill="#d1d1d1" font-size="16" font-family="SegoeUI, Segoe UI"><tspan x="0" y="0">Add Image / Video</tspan></text>
    </g>
  </g>
</svg>
