<svg xmlns="http://www.w3.org/2000/svg" width="54.119" height="60.613" viewBox="0 0 54.119 60.613">
  <g id="noun_Story_2658656" transform="translate(0.35 0.432)">
    <path id="Path_4935" data-name="Path 4935" d="M5.63,59.731V13.185a21.844,21.844,0,0,1,6.283-2.857V48.064a.727.727,0,0,0,.6.715A27.193,27.193,0,0,1,29.765,59.607,23.487,23.487,0,0,0,5.63,59.731Z" transform="translate(-5.63 -0.684)" fill="rgba(24,119,243,0.1)" stroke="#3897f1" stroke-width="0.7"/>
    <path id="Path_4936" data-name="Path 4936" d="M49.911,59.738a23.478,23.478,0,0,0-24.153-.111A27.189,27.189,0,0,1,43.03,48.791a.728.728,0,0,0,.6-.715V10.313a21.875,21.875,0,0,1,6.281,2.879Z" transform="translate(3.508 -0.69)" fill="rgba(24,119,243,0.1)" stroke="#3897f1" stroke-width="0.7"/>
    <path id="Path_4937" data-name="Path 4937" d="M10.951,3.695V50.476A28.633,28.633,0,0,1,29.2,62.716V17.249A27.2,27.2,0,0,0,10.951,3.695ZM25.542,44.961a.715.715,0,0,1-.515.215.729.729,0,0,1-.513-.212,27.2,27.2,0,0,0-9.65-6.2.727.727,0,0,1,.512-1.361,28.626,28.626,0,0,1,10.165,6.529A.729.729,0,0,1,25.542,44.961Zm0-9.79a.718.718,0,0,1-.515.212.734.734,0,0,1-.513-.211,27.15,27.15,0,0,0-9.65-6.2.728.728,0,0,1,.512-1.362,28.6,28.6,0,0,1,10.165,6.529A.731.731,0,0,1,25.542,35.171Zm0-9.794a.718.718,0,0,1-.515.212.729.729,0,0,1-.513-.212,27.177,27.177,0,0,0-9.65-6.2.727.727,0,1,1,.512-1.361,28.613,28.613,0,0,1,10.165,6.527A.733.733,0,0,1,25.542,25.377Z" transform="translate(-3.214 -3.695)" fill="rgba(24,119,243,0.1)" stroke="#3897f1" stroke-width="0.7"/>
    <path id="Path_4938" data-name="Path 4938" d="M24.5,17.251V62.718a28.629,28.629,0,0,1,18.246-12.24V3.695A27.193,27.193,0,0,0,24.5,17.251Zm9.179,24.1a27.423,27.423,0,0,0-4.5,3.609.727.727,0,1,1-1.027-1.031,28.587,28.587,0,0,1,4.737-3.8.723.723,0,0,1,1,.218A.731.731,0,0,1,33.679,41.355Zm5.153-12.379a27.129,27.129,0,0,0-9.65,6.2.726.726,0,1,1-1.027-1.028,28.635,28.635,0,0,1,10.164-6.529.726.726,0,1,1,.513,1.358Zm0-9.793a27.163,27.163,0,0,0-9.65,6.2.727.727,0,1,1-1.027-1.029,28.626,28.626,0,0,1,10.164-6.527.726.726,0,1,1,.513,1.358Z" transform="translate(2.937 -3.695)" fill="rgba(24,119,243,0.1)" stroke="#3897f1" stroke-width="0.7"/>
  </g>
</svg>
