<svg id="Group_2426" data-name="Group 2426" xmlns="http://www.w3.org/2000/svg" width="193.852" height="168.654" viewBox="0 0 193.852 168.654">
  <g id="Group_2425" data-name="Group 2425" transform="translate(0 0)">
    <g id="Group_2397" data-name="Group 2397" transform="translate(31.886)">
      <g id="Group_2393" data-name="Group 2393">
        <g id="Group_2392" data-name="Group 2392">
          <g id="Group_2391" data-name="Group 2391">
            <path id="Path_958" data-name="Path 958" d="M413.567,122.849l-52.608-19.378-52.1,19.116c-6.65,3.222-12.484,5.152-12.484,11.506v31.641a121.9,121.9,0,0,0,17.162,62.971c9.718,16.177,24.766,32.833,47.931,43.42,21.294-7.1,37.19-26.009,46.907-42.185a121.9,121.9,0,0,0,17.161-62.971V138.516C425.54,129.453,420.858,125.028,413.567,122.849Z" transform="translate(-296.379 -103.471)" fill="rgba(0,78,255,0.1)"/>
          </g>
        </g>
      </g>
    </g>
    <g id="Group_2412" data-name="Group 2412" transform="translate(53.172 14.736)">
      <g id="Group_2405" data-name="Group 2405">
        <g id="Group_2399" data-name="Group 2399" transform="translate(11.169)">
          <g id="Group_2398" data-name="Group 2398">
            <path id="Path_960" data-name="Path 960" d="M402.591,207.263h-9.666V154.649a22.459,22.459,0,1,0-44.918,0v52.614H338.34V154.649a32.125,32.125,0,1,1,64.251,0Z" transform="translate(-338.34 -122.523)" fill="#1f1f1f"/>
          </g>
        </g>
        <g id="Group_2403" data-name="Group 2403" transform="translate(0 61.336)">
          <g id="Group_2402" data-name="Group 2402">
            <rect id="Rectangle_661" data-name="Rectangle 661" width="86.588" height="55.552" rx="5.811" fill="#3897f1"/>
          </g>
        </g>
        <g id="Group_2404" data-name="Group 2404" transform="translate(36.056 74.637)">
          <path id="Path_962" data-name="Path 962" d="M384.992,226.257a7.237,7.237,0,1,0-9.211,6.93v10.821h3.949V233.188A7.215,7.215,0,0,0,384.992,226.257Z" transform="translate(-370.517 -219.02)" fill="#1f1f1f"/>
        </g>
      </g>
      <g id="Group_2408" data-name="Group 2408" transform="translate(4.258 70.237)">
        <g id="Group_2407" data-name="Group 2407">
          <g id="Group_2406" data-name="Group 2406">
            <path id="Path_963" data-name="Path 963" d="M329.765,254.714c-.2,0-.36-9.265-.36-20.689s.161-20.692.36-20.692.36,9.262.36,20.692S329.963,254.714,329.765,254.714Z" transform="translate(-329.405 -213.332)" fill="#fafafa"/>
          </g>
        </g>
      </g>
      <g id="Group_2411" data-name="Group 2411" transform="translate(32.875 72.607)">
        <g id="Group_2410" data-name="Group 2410">
          <g id="Group_2409" data-name="Group 2409">
            <path id="Path_964" data-name="Path 964" d="M371.155,234.94c-.024.036-.339-.114-.849-.482a8.852,8.852,0,0,1-1.866-1.9,10.142,10.142,0,0,1,3.6-15.219,8.82,8.82,0,0,1,2.52-.862,2.232,2.232,0,0,1,.974-.05,22.649,22.649,0,0,0-3.25,1.359,10.032,10.032,0,0,0-3.43,14.484A22.549,22.549,0,0,0,371.155,234.94Z" transform="translate(-366.404 -216.396)" fill="#fafafa"/>
          </g>
        </g>
      </g>
    </g>
    <g id="Group_2414" data-name="Group 2414" transform="translate(23.815 31.825)">
      <g id="Group_2413" data-name="Group 2413">
        <path id="Path_965" data-name="Path 965" d="M423.632,269.176s.207-.29.626-.841l.353-.463c.118-.179.226-.39.355-.611a9.483,9.483,0,0,0,.8-1.589c.124-.314.271-.64.4-.995q.151-.545.316-1.147a8.111,8.111,0,0,0,.265-1.277,13.57,13.57,0,0,0,.195-1.408,26.578,26.578,0,0,0-.311-6.784c-.784-5.075-2.935-11.051-6.23-17.547a137.058,137.058,0,0,0-13.381-20.809,212.99,212.99,0,0,0-19.953-22.413,244.138,244.138,0,0,0-26.195-22.359c-4.891-3.594-10.048-7.079-15.486-10.363a149.52,149.52,0,0,0-17.2-9.019,80.37,80.37,0,0,0-19.138-6,33.854,33.854,0,0,0-10.205-.251,19.133,19.133,0,0,0-4.93,1.427,12.288,12.288,0,0,0-6.681,7.479,19.115,19.115,0,0,0-.861,5.062,33.728,33.728,0,0,0,1.406,10.114,80.328,80.328,0,0,0,8.137,18.337,149.577,149.577,0,0,0,10.919,16.066c3.881,5.029,7.933,9.757,12.06,14.208a244.043,244.043,0,0,0,25.2,23.483,213.019,213.019,0,0,0,24.538,17.273,137.011,137.011,0,0,0,22.2,10.925c6.828,2.534,13.01,3.991,18.141,4.192a26.6,26.6,0,0,0,6.775-.463,13.568,13.568,0,0,0,1.375-.354,8.028,8.028,0,0,0,1.239-.408l1.1-.444c.338-.166.645-.35.942-.508a9.525,9.525,0,0,0,1.489-.971c.2-.154.4-.284.566-.422l.42-.4c.5-.479.764-.718.764-.718s-.244.258-.736.747l-.415.412c-.162.142-.359.275-.562.432a9.417,9.417,0,0,1-1.486.992c-.3.162-.6.35-.944.52l-1.106.456a8.094,8.094,0,0,1-1.244.419,13.524,13.524,0,0,1-1.381.366,26.577,26.577,0,0,1-6.807.5c-5.154-.178-11.361-1.618-18.212-4.138a136.593,136.593,0,0,1-22.264-10.892,212.315,212.315,0,0,1-24.6-17.258,243.672,243.672,0,0,1-25.26-23.49c-4.137-4.454-8.2-9.188-12.092-14.226a149.566,149.566,0,0,1-10.955-16.1,80.607,80.607,0,0,1-8.182-18.428,34.12,34.12,0,0,1-1.422-10.236,19.506,19.506,0,0,1,.881-5.175,12.692,12.692,0,0,1,6.892-7.715,19.562,19.562,0,0,1,5.041-1.461,34.213,34.213,0,0,1,10.328.254,80.668,80.668,0,0,1,19.234,6.033,149.682,149.682,0,0,1,17.24,9.05c5.447,3.294,10.611,6.79,15.506,10.394a243.562,243.562,0,0,1,26.21,22.42,212.27,212.27,0,0,1,19.944,22.478,136.539,136.539,0,0,1,13.356,20.88c3.283,6.52,5.42,12.523,6.185,17.624a26.568,26.568,0,0,1,.275,6.821,13.406,13.406,0,0,1-.206,1.414,8.11,8.11,0,0,1-.275,1.284l-.327,1.151c-.13.356-.282.683-.409,1a9.349,9.349,0,0,1-.817,1.589c-.133.22-.243.431-.365.608l-.362.459C423.86,268.9,423.632,269.176,423.632,269.176Z" transform="translate(-285.944 -144.617)" fill="#3897f1"/>
      </g>
    </g>
    <g id="Group_2416" data-name="Group 2416" transform="translate(6.469 63.698)">
      <g id="Group_2415" data-name="Group 2415">
        <path id="Path_966" data-name="Path 966" d="M443.312,218.745s-.039-.354-.093-1.044c-.014-.173-.029-.367-.046-.58s-.091-.442-.142-.692a9.441,9.441,0,0,0-.465-1.716c-.116-.316-.223-.658-.366-1.006l-.527-1.067a7.99,7.99,0,0,0-.653-1.129,13.563,13.563,0,0,0-.791-1.18,26.561,26.561,0,0,0-4.748-4.856c-3.962-3.266-9.547-6.293-16.329-8.947a137.033,137.033,0,0,0-23.837-6.621,212.908,212.908,0,0,0-29.809-3.443,244.02,244.02,0,0,0-34.432.751c-6.041.573-12.211,1.405-18.454,2.574a149.532,149.532,0,0,0-18.838,4.72,80.376,80.376,0,0,0-18.275,8.262,33.838,33.838,0,0,0-7.783,6.606,19.1,19.1,0,0,0-2.729,4.347,12.286,12.286,0,0,0-.008,10.028,19.12,19.12,0,0,0,2.726,4.351,33.754,33.754,0,0,0,7.782,6.612,80.34,80.34,0,0,0,18.279,8.267,149.462,149.462,0,0,0,18.842,4.721c6.245,1.169,12.416,2,18.457,2.575a244.075,244.075,0,0,0,34.436.751,212.917,212.917,0,0,0,29.81-3.444,137.018,137.018,0,0,0,23.837-6.622c6.782-2.655,12.365-5.682,16.328-8.947a26.605,26.605,0,0,0,4.748-4.856,13.721,13.721,0,0,0,.79-1.18,8.156,8.156,0,0,0,.653-1.129l.528-1.067c.142-.348.249-.69.365-1.006a9.45,9.45,0,0,0,.465-1.715c.05-.251.111-.48.142-.692s.032-.407.046-.58c.054-.69.093-1.044.093-1.044s-.011.354-.052,1.047q-.016.261-.036.584c-.027.213-.085.444-.132.7a9.374,9.374,0,0,1-.448,1.73c-.114.319-.219.664-.359,1.016l-.522,1.077a8.1,8.1,0,0,1-.648,1.142,13.635,13.635,0,0,1-.787,1.192,26.579,26.579,0,0,1-4.745,4.907c-3.965,3.3-9.555,6.355-16.345,9.036a136.543,136.543,0,0,1-23.865,6.692,212.353,212.353,0,0,1-29.847,3.5,243.663,243.663,0,0,1-34.487-.715c-6.052-.569-12.235-1.4-18.493-2.566a149.554,149.554,0,0,1-18.894-4.724,80.611,80.611,0,0,1-18.373-8.305,34.154,34.154,0,0,1-7.875-6.691,19.541,19.541,0,0,1-2.787-4.449,12.689,12.689,0,0,1,.008-10.345,19.535,19.535,0,0,1,2.789-4.445,34.221,34.221,0,0,1,7.876-6.686,80.683,80.683,0,0,1,18.369-8.3,149.624,149.624,0,0,1,18.89-4.723c6.257-1.168,12.438-2,18.49-2.566a243.607,243.607,0,0,1,34.483-.715,212.372,212.372,0,0,1,29.846,3.5,136.645,136.645,0,0,1,23.866,6.691c6.791,2.68,12.382,5.737,16.347,9.036a26.555,26.555,0,0,1,4.745,4.907,13.478,13.478,0,0,1,.788,1.193,8.176,8.176,0,0,1,.649,1.141l.522,1.077c.14.351.244.7.358,1.016a9.4,9.4,0,0,1,.449,1.73c.047.253.105.483.132.7s.025.409.036.583C443.3,218.391,443.312,218.745,443.312,218.745Z" transform="translate(-263.518 -185.825)" fill="#3897f1"/>
      </g>
    </g>
    <g id="Group_2418" data-name="Group 2418" transform="translate(37.44 19.366)">
      <g id="Group_2417" data-name="Group 2417">
        <path id="Path_967" data-name="Path 967" d="M419.577,131.365s-.3-.187-.882-.566l-.486-.32c-.186-.106-.4-.2-.633-.312a9.42,9.42,0,0,0-1.641-.684c-.321-.1-.657-.227-1.019-.328l-1.166-.236a8.091,8.091,0,0,0-1.292-.176,13.513,13.513,0,0,0-1.417-.1,26.57,26.57,0,0,0-6.748.777c-5.008,1.132-10.822,3.689-17.076,7.424a137.026,137.026,0,0,0-19.838,14.782,212.984,212.984,0,0,0-20.985,21.45,243.967,243.967,0,0,0-20.5,27.673c-3.248,5.126-6.37,10.511-9.272,16.161a149.429,149.429,0,0,0-7.812,17.78,80.372,80.372,0,0,0-4.666,19.505,33.839,33.839,0,0,0,.452,10.2,19.14,19.14,0,0,0,1.764,4.82,12.285,12.285,0,0,0,7.921,6.15,19.157,19.157,0,0,0,5.109.51,33.758,33.758,0,0,0,9.993-2.1,80.289,80.289,0,0,0,17.732-9.381,149.548,149.548,0,0,0,15.275-12c4.751-4.219,9.189-8.586,13.344-13.01a244.13,244.13,0,0,0,21.692-26.756,213.027,213.027,0,0,0,15.542-25.67,137.068,137.068,0,0,0,9.37-22.9c2.057-6.986,3.085-13.254,2.932-18.386a26.6,26.6,0,0,0-.929-6.727,13.685,13.685,0,0,0-.448-1.347,8.12,8.12,0,0,0-.493-1.208l-.52-1.07c-.188-.326-.392-.62-.572-.9a9.5,9.5,0,0,0-1.07-1.419c-.168-.193-.311-.382-.46-.535l-.431-.391c-.512-.466-.768-.713-.768-.713s.273.225.8.683l.439.385c.152.152.3.339.47.531a9.421,9.421,0,0,1,1.093,1.414c.182.285.391.579.583.906l.531,1.072a8.119,8.119,0,0,1,.5,1.212,13.779,13.779,0,0,1,.46,1.353,26.572,26.572,0,0,1,.971,6.756c.177,5.154-.832,11.445-2.873,18.453a136.554,136.554,0,0,1-9.333,22.962A212.388,212.388,0,0,1,397.7,212.824,243.548,243.548,0,0,1,376,239.642c-4.158,4.434-8.6,8.813-13.358,13.044a149.73,149.73,0,0,1-15.31,12.038,80.671,80.671,0,0,1-17.821,9.432A34.14,34.14,0,0,1,319.4,276.28a19.506,19.506,0,0,1-5.224-.523A12.685,12.685,0,0,1,306,269.413a19.509,19.509,0,0,1-1.8-4.928,34.192,34.192,0,0,1-.459-10.321,80.661,80.661,0,0,1,4.694-19.6,149.528,149.528,0,0,1,7.841-17.823c2.911-5.66,6.042-11.054,9.3-16.185a243.52,243.52,0,0,1,20.562-27.691,212.2,212.2,0,0,1,21.051-21.446,136.5,136.5,0,0,1,19.91-14.762c6.279-3.725,12.119-6.27,17.156-7.384a26.562,26.562,0,0,1,6.786-.744,13.6,13.6,0,0,1,1.425.108,8.082,8.082,0,0,1,1.3.187l1.171.247c.364.1.7.234,1.023.34a9.376,9.376,0,0,1,1.642.705c.229.118.446.213.632.323l.483.329C419.29,131.156,419.577,131.365,419.577,131.365Z" transform="translate(-303.56 -128.509)" fill="#3897f1"/>
      </g>
    </g>
    <g id="Group_2419" data-name="Group 2419" transform="translate(0 132.702)">
      <circle id="Ellipse_31" data-name="Ellipse 31" cx="3.335" cy="3.335" r="3.335" fill="#3897f1"/>
    </g>
    <g id="Group_2420" data-name="Group 2420" transform="translate(187.182 27.004)">
      <path id="Path_968" data-name="Path 968" d="M503.83,141.719a3.335,3.335,0,1,1-3.334-3.335A3.334,3.334,0,0,1,503.83,141.719Z" transform="translate(-497.16 -138.384)" fill="#3897f1"/>
    </g>
    <g id="Group_2421" data-name="Group 2421" transform="translate(25.057 143.797)">
      <path id="Path_969" data-name="Path 969" d="M289.246,290.231a.848.848,0,1,1-.848-.847A.848.848,0,0,1,289.246,290.231Z" transform="translate(-287.551 -289.384)" fill="#3897f1"/>
    </g>
    <g id="Group_2422" data-name="Group 2422" transform="translate(43.147 50.347)">
      <path id="Path_970" data-name="Path 970" d="M312.634,169.412a.847.847,0,1,1-.847-.848A.847.847,0,0,1,312.634,169.412Z" transform="translate(-310.939 -168.564)" fill="#3897f1"/>
    </g>
    <g id="Group_2423" data-name="Group 2423" transform="translate(175.404 95.77)">
      <path id="Path_971" data-name="Path 971" d="M483.627,228.139a.848.848,0,1,1-.848-.848A.847.847,0,0,1,483.627,228.139Z" transform="translate(-481.932 -227.291)" fill="#3897f1"/>
    </g>
    <g id="Group_2424" data-name="Group 2424" transform="translate(187.182 56.259)">
      <path id="Path_972" data-name="Path 972" d="M498.855,177.055a.848.848,0,1,1-.848-.848A.848.848,0,0,1,498.855,177.055Z" transform="translate(-497.16 -176.207)" fill="#3897f1"/>
    </g>
  </g>
</svg>
