<svg xmlns="http://www.w3.org/2000/svg" width="37" height="37" viewBox="0 0 37 37">
  <g id="Group_3682" data-name="Group 3682" transform="translate(0 0.352)">
    <g id="analise-benevides-gWedi4SWsHQ-unsplash" transform="translate(0 -0.352)" fill="rgba(31,31,31,0.1)">
      <path d="M 18.5 36.25 C 13.75879955291748 36.25 9.301389694213867 34.40367889404297 5.948850154876709 31.05114936828613 C 2.596319913864136 27.69861030578613 0.75 23.2411994934082 0.75 18.5 C 0.75 13.75879955291748 2.596319913864136 9.301389694213867 5.948850154876709 5.948850154876709 C 9.301389694213867 2.596319913864136 13.75879955291748 0.75 18.5 0.75 C 23.2411994934082 0.75 27.69861030578613 2.596319913864136 31.05114936828613 5.948850154876709 C 34.40367889404297 9.301389694213867 36.25 13.75879955291748 36.25 18.5 C 36.25 21.194580078125 35.64942932128906 23.76930046081543 34.41397857666016 26.37129020690918 C 33.05670928955078 29.23953056335449 30.8742504119873 31.68890953063965 28.10211944580078 33.45552825927734 C 25.23344039916992 35.28369140625 21.9130802154541 36.25 18.5 36.25 Z" stroke="none"/>
      <path d="M 18.5 1.5 C 13.95912933349609 1.5 9.690059661865234 3.268310546875 6.479179382324219 6.479179382324219 C 3.268310546875 9.690059661865234 1.5 13.95912933349609 1.5 18.5 C 1.5 23.04087066650391 3.268310546875 27.30994033813477 6.479179382324219 30.52082061767578 C 9.690059661865234 33.731689453125 13.95912933349609 35.5 18.5 35.5 C 21.77001953125 35.5 24.95100021362305 34.5743293762207 27.69905090332031 32.82305145263672 C 30.35186958312988 31.13245964050293 32.43928909301758 28.79084968566895 33.73646926879883 26.04961013793945 C 34.92314910888672 23.55033111572266 35.5 21.08082962036133 35.5 18.5 C 35.5 13.95912933349609 33.731689453125 9.690059661865234 30.52082061767578 6.479179382324219 C 27.30994033813477 3.268310546875 23.04087066650391 1.5 18.5 1.5 M 18.5 0 C 28.71726989746094 0 37 8.282730102539063 37 18.5 C 37 21.33018112182617 36.36447143554688 24.01193046569824 35.09149169921875 26.69297981262207 C 32.26293182373047 32.67037963867188 25.88708114624023 37 18.5 37 C 8.282730102539063 37 0 28.71726989746094 0 18.5 C 0 8.282730102539063 8.282730102539063 0 18.5 0 Z" stroke="none" fill="#1f1f1f"/>
    </g>
    <path id="Path_4993" data-name="Path 4993" d="M1.547,0,6.558,5.011,11.569,0l1.547,1.547L6.558,8.1,0,1.547Z" transform="translate(21.955 11.752) rotate(90)" fill="#1f1f1f"/>
  </g>
</svg>
