<svg xmlns="http://www.w3.org/2000/svg" width="27.297" height="24" viewBox="0 0 27.297 24">
  <path id="comment-dots" d="M13.143,32C5.883,32,0,36.78,0,42.679a9.478,9.478,0,0,0,2.926,6.71A13.061,13.061,0,0,1,.113,54.307a.408.408,0,0,0-.077.447A.4.4,0,0,0,.411,55a11.741,11.741,0,0,0,7.218-2.639,15.657,15.657,0,0,0,5.514,1c7.259,0,13.143-4.78,13.143-10.679S20.4,32,13.143,32ZM6.571,44.321a1.643,1.643,0,1,1,1.643-1.643A1.641,1.641,0,0,1,6.571,44.321Zm6.571,0a1.643,1.643,0,1,1,1.643-1.643A1.641,1.641,0,0,1,13.143,44.321Zm6.571,0a1.643,1.643,0,1,1,1.643-1.643A1.641,1.641,0,0,1,19.714,44.321Z" transform="translate(0.511 -31.5)" fill="none" stroke="#1f1f1f" stroke-width="1"/>
</svg>
