<svg xmlns="http://www.w3.org/2000/svg" width="58.007" height="56.38" viewBox="0 0 58.007 56.38">
  <g id="Group_12" data-name="Group 12" transform="translate(0.35 0.35)">
    <path id="Path_12" data-name="Path 12" d="M54.745,13.1h-4.7v2.169a6.96,6.96,0,1,1-13.92,0V13.1h-10v2.169a6.96,6.96,0,1,1-13.92,0V13.1H7.5a4.989,4.989,0,0,0-5,5v9.34H59.747V18.1A5.028,5.028,0,0,0,54.745,13.1Z" transform="translate(-2.44 -7.496)" fill="rgba(181,95,203,0.1)" stroke="#b55fcb" stroke-width="0.7"/>
    <path id="Path_13" data-name="Path 13" d="M27.934,15.008a3.433,3.433,0,0,0,3.435-3.435V7.235a3.435,3.435,0,0,0-6.87,0v4.339A3.359,3.359,0,0,0,27.934,15.008Z" transform="translate(-11.182 -3.8)" fill="rgba(181,95,203,0.1)" stroke="#b55fcb" stroke-width="0.7"/>
    <path id="Path_14" data-name="Path 14" d="M67.535,15.008a3.433,3.433,0,0,0,3.435-3.435V7.235a3.435,3.435,0,0,0-6.87,0v4.339A3.4,3.4,0,0,0,67.535,15.008Z" transform="translate(-26.92 -3.8)" fill="rgba(181,95,203,0.1)" stroke="#b55fcb" stroke-width="0.7"/>
    <path id="Path_15" data-name="Path 15" d="M2.46,69.937a4.989,4.989,0,0,0,5,5H54.645a4.989,4.989,0,0,0,5-5V42.7H2.4V69.937Zm21.633-13.8L27.83,55.6a.716.716,0,0,0,.6-.482L30.059,51.8a1.135,1.135,0,0,1,1.989,0l1.687,3.435a.957.957,0,0,0,.6.482l3.676.542a1.085,1.085,0,0,1,.6,1.868L35.9,60.778a.828.828,0,0,0-.241.723l.6,3.676A1.073,1.073,0,0,1,34.7,66.322l-3.375-1.748a.894.894,0,0,0-.783,0l-3.254,1.748a1.073,1.073,0,0,1-1.567-1.145l.663-3.736a.828.828,0,0,0-.241-.723l-2.651-2.591A1.179,1.179,0,0,1,24.093,56.138Z" transform="translate(-2.4 -19.259)" fill="rgba(181,95,203,0.1)" stroke="#b55fcb" stroke-width="0.7"/>
  </g>
</svg>
