<svg xmlns="http://www.w3.org/2000/svg" xmlns:xlink="http://www.w3.org/1999/xlink" width="321" height="318" viewBox="0 0 321 318">
  <defs>
    <linearGradient id="linear-gradient" x1="0.139" y1="0.199" x2="0.908" y2="0.798" gradientUnits="objectBoundingBox">
      <stop offset="0" stop-color="#f2f2f2"/>
      <stop offset="1" stop-color="#fff"/>
    </linearGradient>
  </defs>
  <g id="Group_2210" data-name="Group 2210" transform="translate(-92 -1049)">
    <text id="Customize" transform="translate(255 1315)" fill="#1f1f1f" font-size="14" font-family="SegoeUI, Segoe UI"><tspan x="-32.29" y="0">Customize</tspan></text>
    <g id="Group_112" data-name="Group 112" transform="translate(182 1139)">
      <ellipse id="Ellipse_13" data-name="Ellipse 13" cx="71" cy="69.5" rx="71" ry="69.5" transform="translate(3 7)" fill="rgba(0,0,0,0.1)"/>
      <ellipse id="Ellipse_14" data-name="Ellipse 14" cx="70.5" cy="69" rx="70.5" ry="69" fill="#fff"/>
      <ellipse id="Ellipse_12" data-name="Ellipse 12" cx="71.5" cy="70" rx="71.5" ry="70" transform="translate(3 3)" fill="url(#linear-gradient)"/>
    </g>
    <g id="noun_custom_729128" transform="translate(235.127 1190.633)">
      <g id="Group_2284" data-name="Group 2284" transform="translate(2.365 2.465)">
        <path id="Path_848" data-name="Path 848" d="M40.3,20.065H37.033a1.38,1.38,0,0,1-1.333-.989,12.161,12.161,0,0,0-1.075-2.537,1.368,1.368,0,0,1,.258-1.634L37.2,12.584a2.985,2.985,0,0,0,.215-4.041,2.883,2.883,0,0,0-4.127-.129l-2.451,2.451a1.446,1.446,0,0,1-1.634.258,14.479,14.479,0,0,0-2.537-1.075,1.38,1.38,0,0,1-.989-1.333V5.447A2.94,2.94,0,0,0,23.1,2.48a2.859,2.859,0,0,0-3.139,2.838v3.4a1.38,1.38,0,0,1-.989,1.333,12.161,12.161,0,0,0-2.537,1.075,1.368,1.368,0,0,1-1.634-.258L12.527,8.585A2.985,2.985,0,0,0,8.485,8.37,2.883,2.883,0,0,0,8.356,12.5l2.408,2.408a1.446,1.446,0,0,1,.258,1.634,14.479,14.479,0,0,0-1.075,2.537,1.38,1.38,0,0,1-1.333.989H5.347a2.94,2.94,0,0,0-2.967,2.58,2.859,2.859,0,0,0,2.838,3.139H8.657a1.38,1.38,0,0,1,1.333.989,12.161,12.161,0,0,0,1.075,2.537,1.368,1.368,0,0,1-.258,1.634L8.528,33.221a2.945,2.945,0,0,0,0,4.213,2.9,2.9,0,0,0,1.892.731,2.826,2.826,0,0,0,2.021-.817l2.408-2.408a1.446,1.446,0,0,1,1.634-.258,14.479,14.479,0,0,0,2.537,1.075,1.38,1.38,0,0,1,.989,1.333v3.268a2.94,2.94,0,0,0,2.58,2.967,2.859,2.859,0,0,0,3.139-2.838v-3.4a1.38,1.38,0,0,1,.989-1.333,12.161,12.161,0,0,0,2.537-1.075,1.368,1.368,0,0,1,1.634.258l2.408,2.408a2.862,2.862,0,0,0,3.912.086,2.946,2.946,0,0,0,0-4.213L34.883,30.9a1.446,1.446,0,0,1-.258-1.634A14.479,14.479,0,0,0,35.7,26.728a1.38,1.38,0,0,1,1.333-.989h3.4A2.837,2.837,0,0,0,43.267,22.6,2.939,2.939,0,0,0,40.3,20.065ZM22.845,28.749A5.847,5.847,0,1,1,28.692,22.9,5.853,5.853,0,0,1,22.845,28.749Z" transform="translate(-2.365 -2.465)" fill="rgba(255,118,0,0.1)" stroke="#ff7600" stroke-width="1.5"/>
      </g>
    </g>
  </g>
</svg>
