<svg xmlns="http://www.w3.org/2000/svg" xmlns:xlink="http://www.w3.org/1999/xlink" width="321" height="318" viewBox="0 0 321 318">
  <defs>
    <linearGradient id="linear-gradient" x1="0.139" y1="0.199" x2="0.908" y2="0.798" gradientUnits="objectBoundingBox">
      <stop offset="0" stop-color="#f2f2f2"/>
      <stop offset="1" stop-color="#fff"/>
    </linearGradient>
  </defs>
  <g id="Group_2179" data-name="Group 2179" transform="translate(64 -1049)">
    <text id="RSVP" transform="translate(99 1315)" fill="#1f1f1f" font-size="14" font-family="SegoeUI, Segoe UI"><tspan x="-16.174" y="0">RSVP</tspan></text>
    <g id="Group_112" data-name="Group 112" transform="translate(26 1139)">
      <ellipse id="Ellipse_13" data-name="Ellipse 13" cx="71" cy="69.5" rx="71" ry="69.5" transform="translate(3 7)" fill="rgba(0,0,0,0.1)"/>
      <ellipse id="Ellipse_14" data-name="Ellipse 14" cx="70.5" cy="69" rx="70.5" ry="69" fill="#fff"/>
      <ellipse id="Ellipse_12" data-name="Ellipse 12" cx="71.5" cy="70" rx="71.5" ry="70" transform="translate(3 3)" fill="url(#linear-gradient)"/>
    </g>
    <g id="noun_invitation_3035376" transform="translate(73.952 1187.952)">
      <g id="Group_24" data-name="Group 24" transform="translate(4.5 4.5)">
        <path id="Path_108" data-name="Path 108" d="M7.709,21.84,4.87,24.107l2.839,1.705Z" transform="translate(-4.471 -3.123)" fill="rgba(222,96,99,0.1)" stroke="#de6063" stroke-width="1.5"/>
        <path id="Path_109" data-name="Path 109" d="M8.5,27.836,25.23,37.875l16.73-10.038V4.5H8.5Zm9.293-14.377a4.847,4.847,0,0,1,6.865,0l.572.572.572-.561a4.854,4.854,0,1,1,6.865,6.865L25.6,27.027a.553.553,0,0,1-.367.151.533.533,0,0,1-.367-.151L17.8,20.345a4.86,4.86,0,0,1-.011-6.886Z" transform="translate(-4.182 -4.5)" fill="rgba(222,96,99,0.1)" stroke="#de6063" stroke-width="1.5"/>
        <path id="Path_110" data-name="Path 110" d="M25.548,37.422a.523.523,0,0,1-.281-.076L4.5,24.88v20.1H46.6V24.88L25.829,37.347A.523.523,0,0,1,25.548,37.422Z" transform="translate(-4.5 -2.882)" fill="rgba(222,96,99,0.1)" stroke="#de6063" stroke-width="1.5"/>
        <path id="Path_111" data-name="Path 111" d="M40.5,25.812l2.839-1.705L40.5,21.84Z" transform="translate(-1.642 -3.123)" fill="rgba(222,96,99,0.1)" stroke="#de6063" stroke-width="1.5"/>
      </g>
    </g>
  </g>
</svg>
