<svg xmlns="http://www.w3.org/2000/svg" width="200.923" height="51.641" viewBox="0 0 200.923 51.641">
  <g id="Group_2176" data-name="Group 2176" transform="translate(-64.062 -37.359)">
    <g id="Group_1" data-name="Group 1" transform="translate(-189.488 -86.217)">
      <g id="Layer_8" data-name="Layer 8" transform="translate(253.55 141.171)">
        <g id="Group_11" data-name="Group 11" transform="translate(0)">
          <g id="Group_10" data-name="Group 10">
            <path id="Path_31" data-name="Path 31" d="M275.992,729.965a.544.544,0,0,1,.395.605c-.005.55-.019,1.1-.021,1.649,0,1.048-.01,2.1.011,3.143,0,.108,0,.216-.011.324a.6.6,0,0,1-.581.625c-.618.09-1.237.168-1.855.254q-1.464.2-2.928.41c-.85.122-1.7.249-2.549.373a.648.648,0,0,1-.5-.13c0-.129-.062-.245-.058-.378.018-.723-.005-1.446.023-2.17.022-.562.02-1.126-.013-1.69-.026-.441-.009-.884-.007-1.326a.568.568,0,0,1,.427-.583,3.2,3.2,0,0,1,.592-.1c.259-.034.518-.061.777-.1.365-.05.728-.106,1.092-.158l1.079-.151L273,730.41c.309-.043.619-.081.928-.125q.532-.076,1.064-.158C275.323,730.075,275.658,730.019,275.992,729.965Z" transform="translate(-267.466 -729.78)" fill="#fff" fill-rule="evenodd"/>
            <path id="Path_32" data-name="Path 32" d="M262.076,723.842c-.335.054-.669.11-1,.162q-.531.082-1.064.158c-.309.044-.619.082-.928.125l-1.134.159-1.079.151c-.364.052-.728.108-1.092.158-.258.035-.518.063-.777.1a3.2,3.2,0,0,0-.592.1.568.568,0,0,0-.427.583c0,.442-.019.885.007,1.326.033.564.035,1.128.013,1.69-.028.724,0,1.447-.023,2.17,0,.133.058.25.058.378l-.027-.008a.658.658,0,0,1-.456-.743c.029-1.391.048-2.782.021-4.173a6.1,6.1,0,0,1,0-.943.57.57,0,0,1,.482-.517c.317-.072.642-.086.962-.132.9-.13,1.8-.254,2.705-.38.86-.12,1.721-.238,2.58-.36.325-.046.652-.088.973-.154A.921.921,0,0,1,262.076,723.842Z" transform="translate(-253.55 -723.657)" fill="#fff" fill-rule="evenodd"/>
          </g>
          <path id="Path_33" data-name="Path 33" d="M275.992,729.965a.544.544,0,0,1,.395.605c-.005.55-.019,1.1-.021,1.649,0,1.048-.01,2.1.011,3.143,0,.108,0,.216-.011.324a.6.6,0,0,1-.581.625c-.618.09-1.237.168-1.855.254q-1.464.2-2.928.41c-.85.122-1.7.249-2.549.373a.648.648,0,0,1-.5-.13c0-.129-.062-.245-.058-.378.018-.723-.005-1.446.023-2.17.022-.562.02-1.126-.013-1.69-.026-.441-.009-.884-.007-1.326a.568.568,0,0,1,.427-.583,3.2,3.2,0,0,1,.592-.1c.259-.034.518-.061.777-.1.365-.05.728-.106,1.092-.158l1.079-.151L273,730.41c.309-.043.619-.081.928-.125q.532-.076,1.064-.158C275.323,730.075,275.658,730.019,275.992,729.965Z" transform="translate(-267.466 -729.78)" fill="#fff" fill-rule="evenodd"/>
          <path id="Path_34" data-name="Path 34" d="M262.076,723.842c-.335.054-.669.11-1,.162q-.531.082-1.064.158c-.309.044-.619.082-.928.125l-1.134.159-1.079.151c-.364.052-.728.108-1.092.158-.258.035-.518.063-.777.1a3.2,3.2,0,0,0-.592.1.568.568,0,0,0-.427.583c0,.442-.019.885.007,1.326.033.564.035,1.128.013,1.69-.028.724,0,1.447-.023,2.17,0,.133.058.25.058.378l-.027-.008a.658.658,0,0,1-.456-.743c.029-1.391.048-2.782.021-4.173a6.1,6.1,0,0,1,0-.943.57.57,0,0,1,.482-.517c.317-.072.642-.086.962-.132.9-.13,1.8-.254,2.705-.38.86-.12,1.721-.238,2.58-.36.325-.046.652-.088.973-.154A.921.921,0,0,1,262.076,723.842Z" transform="translate(-253.55 -723.657)" fill="#fff" fill-rule="evenodd"/>
        </g>
      </g>
      <g id="Layer_7" data-name="Layer 7" transform="translate(261.352 149.332)">
        <g id="Group_12" data-name="Group 12" transform="translate(0)">
          <path id="Path_35" data-name="Path 35" d="M539.421,1009.793a.351.351,0,0,1,.266.311,1.577,1.577,0,0,1,.02.309c-.035,1.754-.022,3.507-.016,5.261,0,.047,0,.094,0,.141a.542.542,0,0,1-.527.584c-.628.088-1.257.166-1.885.254-.953.134-1.905.275-2.858.411a.665.665,0,0,1-.578-.07l-.03-.03,0,0a.847.847,0,0,1-.084-.394c.007-.441.012-.883.017-1.324.014-1.193.005-2.387,0-3.58a4.021,4.021,0,0,1,0-.687.514.514,0,0,1,.357-.458,3.535,3.535,0,0,1,.606-.108c.393-.056.787-.1,1.18-.151.448-.06.9-.125,1.344-.19.411-.06.821-.129,1.232-.184A4.272,4.272,0,0,1,539.421,1009.793Z" transform="translate(-533.317 -1009.558)" fill="#fff" fill-rule="evenodd"/>
          <path id="Path_36" data-name="Path 36" d="M525.766,1002.218a4.268,4.268,0,0,0-.946.1c-.412.055-.821.124-1.232.184-.448.065-.9.13-1.344.19-.393.053-.788.1-1.18.151a3.537,3.537,0,0,0-.606.108.514.514,0,0,0-.357.458,4.027,4.027,0,0,0,0,.687c0,1.194.01,2.387,0,3.58-.005.441-.01.882-.017,1.324a.845.845,0,0,0,.084.394.545.545,0,0,1-.5-.633c0-.837.015-1.673.016-2.51,0-.945,0-1.89-.005-2.834,0-.056,0-.113,0-.169a.506.506,0,0,1,.453-.542c.393-.07.789-.117,1.185-.17,1.1-.146,2.2-.3,3.291-.469.139-.021.279-.039.417-.067A.943.943,0,0,1,525.766,1002.218Z" transform="translate(-519.662 -1001.983)" fill="#fff" fill-rule="evenodd"/>
          <path id="Path_37" data-name="Path 37" d="M536.448,1254.549l.03.03C536.463,1254.573,536.438,1254.579,536.448,1254.549Z" transform="translate(-535.954 -1247.143)" fill="#fff" fill-rule="evenodd"/>
          <path id="Path_38" data-name="Path 38" d="M539.421,1009.793a.351.351,0,0,1,.266.311,1.577,1.577,0,0,1,.02.309c-.035,1.754-.022,3.507-.016,5.261,0,.047,0,.094,0,.141a.542.542,0,0,1-.527.584c-.628.088-1.257.166-1.885.254-.953.134-1.905.275-2.858.411a.665.665,0,0,1-.578-.07l-.03-.03,0,0a.847.847,0,0,1-.084-.394c.007-.441.012-.883.017-1.324.014-1.193.005-2.387,0-3.58a4.021,4.021,0,0,1,0-.687.514.514,0,0,1,.357-.458,3.535,3.535,0,0,1,.606-.108c.393-.056.787-.1,1.18-.151.448-.06.9-.125,1.344-.19.411-.06.821-.129,1.232-.184A4.272,4.272,0,0,1,539.421,1009.793Z" transform="translate(-533.317 -1009.558)" fill="#fff" fill-rule="evenodd"/>
          <path id="Path_39" data-name="Path 39" d="M525.766,1002.218a4.268,4.268,0,0,0-.946.1c-.412.055-.821.124-1.232.184-.448.065-.9.13-1.344.19-.393.053-.788.1-1.18.151a3.537,3.537,0,0,0-.606.108.514.514,0,0,0-.357.458,4.027,4.027,0,0,0,0,.687c0,1.194.01,2.387,0,3.58-.005.441-.01.882-.017,1.324a.845.845,0,0,0,.084.394.545.545,0,0,1-.5-.633c0-.837.015-1.673.016-2.51,0-.945,0-1.89-.005-2.834,0-.056,0-.113,0-.169a.506.506,0,0,1,.453-.542c.393-.07.789-.117,1.185-.17,1.1-.146,2.2-.3,3.291-.469.139-.021.279-.039.417-.067A.943.943,0,0,1,525.766,1002.218Z" transform="translate(-519.662 -1001.983)" fill="#fff" fill-rule="evenodd"/>
          <path id="Path_40" data-name="Path 40" d="M536.448,1254.549l.03.03C536.463,1254.573,536.438,1254.579,536.448,1254.549Z" transform="translate(-535.954 -1247.143)" fill="#fff" fill-rule="evenodd"/>
        </g>
      </g>
      <g id="Layer_6" data-name="Layer 6" transform="translate(265.286 139.949)">
        <g id="Group_14" data-name="Group 14" transform="translate(0 0)">
          <g id="Group_13" data-name="Group 13">
            <path id="Path_41" data-name="Path 41" d="M678.788,689.638a.394.394,0,0,1,.29.344,1.86,1.86,0,0,1,.025.407c-.052,2-.033,4.005-.019,6.008a2,2,0,0,1-.022.379.562.562,0,0,1-.453.48c-.361.088-.733.115-1.1.166-1.06.149-2.122.29-3.182.438q-1.563.217-3.125.441c-.879.125-1.757.254-2.635.38a.823.823,0,0,1-.69-.079l-.031-.021,0,0a2.041,2.041,0,0,1-.086-.706c0-.437.026-.873.027-1.309.006-1.631,0-3.262,0-4.893a.787.787,0,0,1,.084-.351.647.647,0,0,1,.42-.256c.454-.085.915-.124,1.372-.191.374-.055.748-.106,1.122-.158l1.081-.153,1.122-.159c.356-.05.711-.1,1.067-.151.379-.052.759-.1,1.138-.151.439-.061.877-.125,1.316-.188s.849-.125,1.274-.186A4.287,4.287,0,0,1,678.788,689.638Z" transform="translate(-667.352 -689.406)" fill="#fff" fill-rule="evenodd"/>
            <path id="Path_42" data-name="Path 42" d="M668.631,682.191a4.287,4.287,0,0,0-1,.094c-.425.061-.849.125-1.274.186s-.877.127-1.316.188c-.379.052-.759.1-1.138.151-.356.049-.711.1-1.067.151l-1.122.159-1.08.152c-.374.053-.748.1-1.122.158-.457.067-.917.106-1.372.191a.647.647,0,0,0-.42.256c0-.047-.042-.055-.071-.075a1.092,1.092,0,0,0-.348-.118.464.464,0,0,1,.392-.282c.384-.064.771-.113,1.157-.167q1.368-.19,2.736-.38,1.459-.2,2.917-.411c1.079-.154,2.159-.3,3.236-.468A1.094,1.094,0,0,1,668.631,682.191Z" transform="translate(-657.195 -681.959)" fill="#fff" fill-rule="evenodd"/>
            <path id="Path_43" data-name="Path 43" d="M653.927,740.839a1.092,1.092,0,0,1,.348.118c.029.021.071.028.071.075a.786.786,0,0,0-.084.351c0,1.631,0,3.262,0,4.893,0,.436-.028.872-.027,1.309a2.041,2.041,0,0,0,.086.706c-.424-.177-.492-.277-.494-.727,0-.028,0-.056,0-.085.03-2.055.022-4.11.013-6.165A.839.839,0,0,1,653.927,740.839Z" transform="translate(-653.825 -739.113)" fill="#fff" fill-rule="evenodd"/>
          </g>
          <path id="Path_44" data-name="Path 44" d="M678.788,689.638a.394.394,0,0,1,.29.344,1.86,1.86,0,0,1,.025.407c-.052,2-.033,4.005-.019,6.008a2,2,0,0,1-.022.379.562.562,0,0,1-.453.48c-.361.088-.733.115-1.1.166-1.06.149-2.122.29-3.182.438q-1.563.217-3.125.441c-.879.125-1.757.254-2.635.38a.823.823,0,0,1-.69-.079l-.031-.021,0,0a2.041,2.041,0,0,1-.086-.706c0-.437.026-.873.027-1.309.006-1.631,0-3.262,0-4.893a.787.787,0,0,1,.084-.351.647.647,0,0,1,.42-.256c.454-.085.915-.124,1.372-.191.374-.055.748-.106,1.122-.158l1.081-.153,1.122-.159c.356-.05.711-.1,1.067-.151.379-.052.759-.1,1.138-.151.439-.061.877-.125,1.316-.188s.849-.125,1.274-.186A4.287,4.287,0,0,1,678.788,689.638Z" transform="translate(-667.352 -689.406)" fill="#fff" fill-rule="evenodd"/>
          <path id="Path_45" data-name="Path 45" d="M668.631,682.191a4.287,4.287,0,0,0-1,.094c-.425.061-.849.125-1.274.186s-.877.127-1.316.188c-.379.052-.759.1-1.138.151-.356.049-.711.1-1.067.151l-1.122.159-1.08.152c-.374.053-.748.1-1.122.158-.457.067-.917.106-1.372.191a.647.647,0,0,0-.42.256c0-.047-.042-.055-.071-.075a1.092,1.092,0,0,0-.348-.118.464.464,0,0,1,.392-.282c.384-.064.771-.113,1.157-.167q1.368-.19,2.736-.38,1.459-.2,2.917-.411c1.079-.154,2.159-.3,3.236-.468A1.094,1.094,0,0,1,668.631,682.191Z" transform="translate(-657.195 -681.959)" fill="#fff" fill-rule="evenodd"/>
          <path id="Path_46" data-name="Path 46" d="M653.927,740.839a1.092,1.092,0,0,1,.348.118c.029.021.071.028.071.075a.786.786,0,0,0-.084.351c0,1.631,0,3.262,0,4.893,0,.436-.028.872-.027,1.309a2.041,2.041,0,0,0,.086.706c-.424-.177-.492-.277-.494-.727,0-.028,0-.056,0-.085.03-2.055.022-4.11.013-6.165A.839.839,0,0,1,653.927,740.839Z" transform="translate(-653.825 -739.113)" fill="#fff" fill-rule="evenodd"/>
        </g>
      </g>
      <g id="Layer_5" data-name="Layer 5" transform="translate(270.204 149.012)">
        <g id="Group_16" data-name="Group 16" transform="translate(0 0)">
          <g id="Group_15" data-name="Group 15">
            <path id="Path_47" data-name="Path 47" d="M846.953,998.678a.4.4,0,0,1,.31.358,3.4,3.4,0,0,1,.019.661c-.039,1.913-.02,3.826-.014,5.739,0,.089,0,.179,0,.268a.6.6,0,0,1-.575.647c-.278.045-.558.078-.837.116q-1.5.205-3,.411-1.346.187-2.691.379c-1,.144-2.006.293-3.01.436a6.017,6.017,0,0,1-.866.1.554.554,0,0,1-.365-.123l-.033-.022v0a1.863,1.863,0,0,1-.084-.72c.009-.531.013-1.061.022-1.592.019-1.062.017-2.126,0-3.188-.007-.427-.021-.854-.02-1.281a.67.67,0,0,1,.514-.716,2.617,2.617,0,0,1,.4-.069q.592-.069,1.182-.15c.44-.06.879-.124,1.318-.187l1.3-.187q.638-.091,1.277-.18c.44-.061.88-.118,1.32-.179q.77-.107,1.54-.217c.416-.06.831-.129,1.248-.183A6.051,6.051,0,0,1,846.953,998.678Z" transform="translate(-835.384 -998.453)" fill="#fff" fill-rule="evenodd"/>
            <path id="Path_48" data-name="Path 48" d="M833.1,991.292a6.043,6.043,0,0,0-1.043.127c-.417.054-.832.123-1.248.183q-.77.111-1.54.217c-.44.061-.88.118-1.32.179s-.851.119-1.277.18l-1.3.187c-.439.063-.878.127-1.318.187q-.591.08-1.182.15a2.616,2.616,0,0,0-.4.069.67.67,0,0,0-.514.716c0,.427.014.854.02,1.281.016,1.063.019,2.126,0,3.188-.01.531-.013,1.061-.022,1.592a1.864,1.864,0,0,0,.084.72c-.4-.147-.507-.285-.5-.708.005-.945.023-1.889.027-2.834,0-1.076.01-2.153-.021-3.229a2.437,2.437,0,0,1,.015-.352.622.622,0,0,1,.542-.612c.39-.087.79-.109,1.185-.165.911-.13,1.823-.253,2.734-.38.972-.136,1.943-.278,2.915-.411,1.14-.156,2.279-.312,3.414-.5A.949.949,0,0,1,833.1,991.292Z" transform="translate(-821.528 -991.068)" fill="#fff" fill-rule="evenodd"/>
            <path id="Path_49" data-name="Path 49" d="M846.953,998.678a.4.4,0,0,1,.31.358,3.4,3.4,0,0,1,.019.661c-.039,1.913-.02,3.826-.014,5.739,0,.089,0,.179,0,.268a.6.6,0,0,1-.575.647c-.278.045-.558.078-.837.116q-1.5.205-3,.411-1.346.187-2.691.379c-1,.144-2.006.293-3.01.436a6.017,6.017,0,0,1-.866.1.554.554,0,0,1-.365-.123l-.033-.022v0a1.863,1.863,0,0,1-.084-.72c.009-.531.013-1.061.022-1.592.019-1.062.017-2.126,0-3.188-.007-.427-.021-.854-.02-1.281a.67.67,0,0,1,.514-.716,2.617,2.617,0,0,1,.4-.069q.592-.069,1.182-.15c.44-.06.879-.124,1.318-.187l1.3-.187q.638-.091,1.277-.18c.44-.061.88-.118,1.32-.179q.77-.107,1.54-.217c.416-.06.831-.129,1.248-.183A6.051,6.051,0,0,1,846.953,998.678Z" transform="translate(-835.384 -998.453)" fill="#fff" fill-rule="evenodd"/>
            <path id="Path_50" data-name="Path 50" d="M833.1,991.292a6.043,6.043,0,0,0-1.043.127c-.417.054-.832.123-1.248.183q-.77.111-1.54.217c-.44.061-.88.118-1.32.179s-.851.119-1.277.18l-1.3.187c-.439.063-.878.127-1.318.187q-.591.08-1.182.15a2.616,2.616,0,0,0-.4.069.67.67,0,0,0-.514.716c0,.427.014.854.02,1.281.016,1.063.019,2.126,0,3.188-.01.531-.013,1.061-.022,1.592a1.864,1.864,0,0,0,.084.72c-.4-.147-.507-.285-.5-.708.005-.945.023-1.889.027-2.834,0-1.076.01-2.153-.021-3.229a2.437,2.437,0,0,1,.015-.352.622.622,0,0,1,.542-.612c.39-.087.79-.109,1.185-.165.911-.13,1.823-.253,2.734-.38.972-.136,1.943-.278,2.915-.411,1.14-.156,2.279-.312,3.414-.5A.949.949,0,0,1,833.1,991.292Z" transform="translate(-821.528 -991.068)" fill="#fff" fill-rule="evenodd"/>
          </g>
          <path id="Path_51" data-name="Path 51" d="M838.691,1304.806l.033.022C838.706,1304.831,838.693,1304.826,838.691,1304.806Z" transform="translate(-838.188 -1295.607)" fill="#fff" fill-rule="evenodd"/>
          <path id="Path_52" data-name="Path 52" d="M838.691,1304.806l.033.022C838.706,1304.831,838.693,1304.826,838.691,1304.806Z" transform="translate(-838.188 -1295.607)" fill="#fff" fill-rule="evenodd"/>
        </g>
      </g>
      <g id="Layer_4" data-name="Layer 4" transform="translate(284.878 148.449)">
        <g id="Group_17" data-name="Group 17" transform="translate(0 0)">
          <path id="Path_53" data-name="Path 53" d="M1344.528,979.271a.453.453,0,0,1,.344.515c0,.531-.005,1.063-.006,1.594,0,1.025,0,2.05-.006,3.076-.008.955-.015,1.909-.007,2.864a5.211,5.211,0,0,1,0,.69.56.56,0,0,1-.534.573c-.543.084-1.089.152-1.633.227q-1.472.2-2.944.41t-2.915.418a.61.61,0,0,1-.477-.116,1.406,1.406,0,0,1-.088-.351q.006-3.02,0-6.039c0-.7-.013-1.392,0-2.088.011-.452.158-.636.575-.722.055-.011.112-.011.167-.019.383-.053.766-.109,1.149-.161s.758-.1,1.137-.15.756-.108,1.134-.161.729-.1,1.094-.15.728-.107,1.092-.161.7-.112,1.051-.155A4.408,4.408,0,0,1,1344.528,979.271Z" transform="translate(-1335.842 -979.05)" fill="#fff" fill-rule="evenodd"/>
          <path id="Path_54" data-name="Path 54" d="M1330.676,972.079a4.394,4.394,0,0,0-.861.1c-.351.043-.7.1-1.051.155s-.728.109-1.092.161-.729.1-1.094.15-.756.109-1.135.161-.758.1-1.136.15-.766.107-1.149.161c-.055.008-.112.007-.167.019-.417.086-.565.27-.575.722-.016.7,0,1.392,0,2.088q0,3.019,0,6.039a1.418,1.418,0,0,0,.088.351c-.1-.054-.211-.1-.311-.164a.484.484,0,0,1-.2-.458c0-.55,0-1.1,0-1.651.017-2.069.024-4.139,0-6.208a3.361,3.361,0,0,1,.017-.366.553.553,0,0,1,.5-.554c.463-.077.93-.134,1.4-.2,1.052-.146,2.1-.287,3.155-.436.986-.139,1.971-.285,2.957-.429A.9.9,0,0,1,1330.676,972.079Z" transform="translate(-1321.99 -971.858)" fill="#fff" fill-rule="evenodd"/>
          <path id="Path_55" data-name="Path 55" d="M1344.528,979.271a.453.453,0,0,1,.344.515c0,.531-.005,1.063-.006,1.594,0,1.025,0,2.05-.006,3.076-.008.955-.015,1.909-.007,2.864a5.211,5.211,0,0,1,0,.69.56.56,0,0,1-.534.573c-.543.084-1.089.152-1.633.227q-1.472.2-2.944.41t-2.915.418a.61.61,0,0,1-.477-.116,1.406,1.406,0,0,1-.088-.351q.006-3.02,0-6.039c0-.7-.013-1.392,0-2.088.011-.452.158-.636.575-.722.055-.011.112-.011.167-.019.383-.053.766-.109,1.149-.161s.758-.1,1.137-.15.756-.108,1.134-.161.729-.1,1.094-.15.728-.107,1.092-.161.7-.112,1.051-.155A4.408,4.408,0,0,1,1344.528,979.271Z" transform="translate(-1335.842 -979.05)" fill="#fff" fill-rule="evenodd"/>
          <path id="Path_56" data-name="Path 56" d="M1330.676,972.079a4.394,4.394,0,0,0-.861.1c-.351.043-.7.1-1.051.155s-.728.109-1.092.161-.729.1-1.094.15-.756.109-1.135.161-.758.1-1.136.15-.766.107-1.149.161c-.055.008-.112.007-.167.019-.417.086-.565.27-.575.722-.016.7,0,1.392,0,2.088q0,3.019,0,6.039a1.418,1.418,0,0,0,.088.351c-.1-.054-.211-.1-.311-.164a.484.484,0,0,1-.2-.458c0-.55,0-1.1,0-1.651.017-2.069.024-4.139,0-6.208a3.361,3.361,0,0,1,.017-.366.553.553,0,0,1,.5-.554c.463-.077.93-.134,1.4-.2,1.052-.146,2.1-.287,3.155-.436.986-.139,1.971-.285,2.957-.429A.9.9,0,0,1,1330.676,972.079Z" transform="translate(-1321.99 -971.858)" fill="#fff" fill-rule="evenodd"/>
        </g>
      </g>
      <g id="Layer_3" data-name="Layer 3" transform="translate(279.681 138.662)">
        <g id="Group_18" data-name="Group 18" transform="translate(0 0)">
          <path id="Path_57" data-name="Path 57" d="M1172.33,645.922a.405.405,0,0,1,.308.361,4.539,4.539,0,0,1,.015.831c-.033,1.862-.017,3.723-.01,5.585,0,.061,0,.122,0,.183a.659.659,0,0,1-.66.742c-1.321.183-2.642.361-3.963.545s-2.612.371-3.919.551c-1.14.157-2.279.313-3.416.487-.274.042-.548.081-.822.12a.771.771,0,0,1-.575-.132,1.806,1.806,0,0,1-.111-.881c.011-.615,0-1.23.018-1.846.019-.868.03-1.738-.013-2.608-.024-.488-.018-.979,0-1.467a.683.683,0,0,1,.612-.752c.174-.034.349-.057.525-.082.318-.045.637-.087.956-.131.365-.05.73-.1,1.095-.151s.758-.1,1.137-.15c.443-.061.886-.127,1.329-.189.365-.051.73-.1,1.095-.149.429-.061.857-.129,1.286-.189s.869-.115,1.3-.176.857-.129,1.286-.191.841-.117,1.261-.176A6.861,6.861,0,0,1,1172.33,645.922Z" transform="translate(-1158.742 -645.69)" fill="#fff" fill-rule="evenodd"/>
          <path id="Path_58" data-name="Path 58" d="M1158.348,638.318a6.866,6.866,0,0,0-1.266.135c-.42.06-.841.116-1.261.176s-.857.13-1.286.191-.869.115-1.3.176-.857.128-1.286.189c-.365.052-.73.1-1.095.149-.443.062-.886.128-1.329.189-.379.052-.758.1-1.137.15s-.73.1-1.095.151c-.318.044-.637.086-.956.131-.175.025-.351.048-.525.082a.684.684,0,0,0-.612.752c-.016.489-.022.979,0,1.467.043.869.032,1.739.013,2.608-.013.615-.007,1.231-.018,1.846a1.806,1.806,0,0,0,.11.881.768.768,0,0,1-.543-.858q.052-2.524.026-5.048c0-.38-.026-.762,0-1.141a.7.7,0,0,1,.712-.752c1.256-.174,2.512-.341,3.768-.516q1.96-.273,3.919-.553,2.182-.31,4.364-.624A1.011,1.011,0,0,1,1158.348,638.318Z" transform="translate(-1144.761 -638.086)" fill="#fff" fill-rule="evenodd"/>
          <path id="Path_59" data-name="Path 59" d="M1172.33,645.922a.405.405,0,0,1,.308.361,4.539,4.539,0,0,1,.015.831c-.033,1.862-.017,3.723-.01,5.585,0,.061,0,.122,0,.183a.659.659,0,0,1-.66.742c-1.321.183-2.642.361-3.963.545s-2.612.371-3.919.551c-1.14.157-2.279.313-3.416.487-.274.042-.548.081-.822.12a.771.771,0,0,1-.575-.132,1.806,1.806,0,0,1-.111-.881c.011-.615,0-1.23.018-1.846.019-.868.03-1.738-.013-2.608-.024-.488-.018-.979,0-1.467a.683.683,0,0,1,.612-.752c.174-.034.349-.057.525-.082.318-.045.637-.087.956-.131.365-.05.73-.1,1.095-.151s.758-.1,1.137-.15c.443-.061.886-.127,1.329-.189.365-.051.73-.1,1.095-.149.429-.061.857-.129,1.286-.189s.869-.115,1.3-.176.857-.129,1.286-.191.841-.117,1.261-.176A6.861,6.861,0,0,1,1172.33,645.922Z" transform="translate(-1158.742 -645.69)" fill="#fff" fill-rule="evenodd"/>
          <path id="Path_60" data-name="Path 60" d="M1158.348,638.318a6.866,6.866,0,0,0-1.266.135c-.42.06-.841.116-1.261.176s-.857.13-1.286.191-.869.115-1.3.176-.857.128-1.286.189c-.365.052-.73.1-1.095.149-.443.062-.886.128-1.329.189-.379.052-.758.1-1.137.15s-.73.1-1.095.151c-.318.044-.637.086-.956.131-.175.025-.351.048-.525.082a.684.684,0,0,0-.612.752c-.016.489-.022.979,0,1.467.043.869.032,1.739.013,2.608-.013.615-.007,1.231-.018,1.846a1.806,1.806,0,0,0,.11.881.768.768,0,0,1-.543-.858q.052-2.524.026-5.048c0-.38-.026-.762,0-1.141a.7.7,0,0,1,.712-.752c1.256-.174,2.512-.341,3.768-.516q1.96-.273,3.919-.553,2.182-.31,4.364-.624A1.011,1.011,0,0,1,1158.348,638.318Z" transform="translate(-1144.761 -638.086)" fill="#fff" fill-rule="evenodd"/>
        </g>
      </g>
      <g id="Layer_2" data-name="Layer 2" transform="translate(265.859 123.576)">
        <path id="Path_61" data-name="Path 61" d="M983.168,140.169a2.809,2.809,0,0,0-.739.07c-1.088.152-2.175.312-3.263.468s-2.175.313-3.263.467q-1.548.22-3.1.435-1.576.221-3.153.439c-1,.137-1.991.271-2.987.408-.665.092-1.332.174-1.994.285-.47.079-.63.308-.612.789,0,.042,0,.085.007.127a9.8,9.8,0,0,1,.017,1.112.381.381,0,0,1-.418.416,5.2,5.2,0,0,0-.974.14.453.453,0,0,1-.441-.07.012.012,0,0,0-.014-.01l-.009,0-.033-.021v0a3.914,3.914,0,0,1-.055-.936q0-.937,0-1.875,0-1.226.006-2.452a7.039,7.039,0,0,0,.02-.826,7.965,7.965,0,0,1,.143-1.437,5.128,5.128,0,0,1,.854-1.987,5.323,5.323,0,0,1,1.149-1.13c.156-.1.309-.2.47-.283a2.025,2.025,0,0,1,.625-.282c.417-.064.834-.118,1.252-.176l1.752-.248,1.669-.234c.57-.081,1.14-.164,1.71-.244s1.132-.154,1.7-.234c.7-.1,1.4-.2,2.1-.3.635-.089,1.271-.173,1.906-.263.765-.108,1.529-.221,2.294-.329.732-.1,1.464-.209,2.2-.305a1.268,1.268,0,0,1,.458-.038,7.357,7.357,0,0,1,1.051.312,2.821,2.821,0,0,1,1.786,2.091,3.622,3.622,0,0,1,.115.949q-.017,9.623-.035,19.246-.011,5.947-.025,11.895c-.008,3.5.006,7.008-.036,10.512a4.129,4.129,0,0,1-1.979,3.567,3.765,3.765,0,0,1-1.571.539c-1.084.151-2.166.313-3.25.469s-2.167.309-3.251.463q-1.556.221-3.112.439-1.584.221-3.169.436c-1.01.138-2.021.27-3.03.414a3.5,3.5,0,0,1-1.926-.157,4.726,4.726,0,0,1-.521-.273.016.016,0,0,0-.017-.017h-.005l-.034-.021,0,0a.042.042,0,0,0-.058-.031h0c.006-.063-.047-.089-.083-.122a3.519,3.519,0,0,1-1.018-1.838,9.345,9.345,0,0,1-.2-2.032q0-1.952,0-3.9c0-.666,0-1.332,0-2a2.727,2.727,0,0,1,.057-.725.569.569,0,0,1,.427-.281,4.777,4.777,0,0,1,1.166-.11c.216.067.252.247.27.434.042.436.018.874.025,1.311a4.163,4.163,0,0,0,.059.828.484.484,0,0,0,.108.255.332.332,0,0,0,.26.193,1.835,1.835,0,0,0,.658.013c.391-.044.78-.1,1.169-.157l1.488-.208,1.724-.244c.5-.07.992-.137,1.488-.207l1.71-.244,1.488-.209c.5-.071,1-.143,1.5-.213s1.03-.14,1.545-.211,1.01-.143,1.516-.213,1.021-.139,1.531-.209c.584-.08,1.169-.159,1.752-.244a10.409,10.409,0,0,0,1.068-.166.584.584,0,0,0,.469-.5,1.763,1.763,0,0,0,.026-.308c.014-5.163-.022-10.326.022-15.489.018-2.017,0-4.035.006-6.053,0-.766,0-1.533.007-2.3.034-.047.017-.1.017-.15q0-2.412,0-4.825c0-.539,0-1.078,0-1.617a1.055,1.055,0,0,0-.036-.263A.379.379,0,0,0,983.168,140.169Zm-10.637,39.342h0c.021.048.07.061.11.082a1.828,1.828,0,0,0,1.292.171,2.419,2.419,0,0,0,1.537-1.069,2.342,2.342,0,0,0,.407-.858,2.3,2.3,0,0,0-.3-1.99,1.432,1.432,0,0,0-.756-.6h0l-.029-.022a1.8,1.8,0,0,0-1.566.043,2.664,2.664,0,0,0-1.589,2.432,1.971,1.971,0,0,0,.874,1.813l.01,0Z" transform="translate(-953.618 -131.395)" fill="#fff" fill-rule="evenodd"/>
        <path id="Path_62" data-name="Path 62" d="M1053.59,429.729c0,.766-.006,1.533-.007,2.3,0,2.018.011,4.035-.006,6.053-.045,5.163-.009,10.326-.022,15.489a1.763,1.763,0,0,1-.026.308.584.584,0,0,1-.468.5,10.4,10.4,0,0,1-1.068.166c-.584.085-1.168.163-1.752.244-.51.07-1.021.138-1.531.209s-1.01.143-1.516.213-1.03.14-1.544.211-1,.142-1.5.213l-1.488.209-1.71.244-1.489.207-1.724.244-1.488.208c-.389.054-.778.113-1.169.157a1.836,1.836,0,0,1-.659-.013.332.332,0,0,1-.26-.193c.974-.043,1.929-.234,2.893-.36s1.935-.271,2.9-.407l3.112-.438,2.931-.41,2.931-.407q1.494-.207,2.988-.412a6,6,0,0,0,.7-.111.579.579,0,0,0,.5-.553,2.353,2.353,0,0,0,.022-.351q0-6.963.006-13.925.009-6.031.033-12.062.006-2,.018-3.992a2.825,2.825,0,0,0-.057-.7.379.379,0,0,1,.441.3,1.061,1.061,0,0,1,.036.263c0,.539,0,1.078,0,1.616-.026.027-.018.062-.018.094Q1053.591,427.288,1053.59,429.729Z" transform="translate(-1023.583 -413.796)" fill="#fff" fill-rule="evenodd"/>
        <path id="Path_63" data-name="Path 63" d="M1044.122,124.136a7.363,7.363,0,0,0-1.051-.312,1.268,1.268,0,0,0-.458.038c-.733.1-1.466.2-2.2.305-.765.109-1.529.221-2.294.329-.635.09-1.271.173-1.906.263-.7.1-1.4.2-2.1.3-.566.08-1.132.155-1.7.234s-1.14.163-1.71.244l-1.669.234-1.752.248c-.417.059-.835.113-1.252.176a2.025,2.025,0,0,0-.625.282c-.161.086-.314.188-.47.283l-.4-.228a3.227,3.227,0,0,1,1.558-.653c1.049-.119,2.093-.286,3.139-.433l3.11-.436,3.11-.438,3.11-.436,3.1-.435.865-.123a.259.259,0,0,1,.1,0,6.735,6.735,0,0,1,1.359.448C1044.036,124.055,1044.109,124.06,1044.122,124.136Z" transform="translate(-1014.243 -123.576)" fill="#fff" fill-rule="evenodd"/>
        <path id="Path_64" data-name="Path 64" d="M951.792,224.467l.4.228a5.324,5.324,0,0,0-1.149,1.13,5.128,5.128,0,0,0-.854,1.987,7.992,7.992,0,0,0-.143,1.437,6.089,6.089,0,0,0-.02.826q0,1.226-.006,2.452,0,.937,0,1.875a3.917,3.917,0,0,0,.055.936c-.4-.152-.48-.261-.48-.673,0-1.688,0-3.377.011-5.065a9.706,9.706,0,0,1,.186-2.159,4.839,4.839,0,0,1,1.916-2.925C951.735,224.5,951.765,224.483,951.792,224.467Z" transform="translate(-941.495 -221.509)" fill="#fff" fill-rule="evenodd"/>
        <path id="Path_65" data-name="Path 65" d="M947.336,1501.869a9.34,9.34,0,0,0,.2,2.032,3.52,3.52,0,0,0,1.018,1.838c.036.032.089.058.083.122a2.287,2.287,0,0,1-.843-.707,4.047,4.047,0,0,1-.764-1.869,16.931,16.931,0,0,1-.135-2.615c-.02-1.758.039-3.515.021-5.273a.8.8,0,0,1,.08-.405,1.61,1.61,0,0,1,.4.252,2.727,2.727,0,0,0-.057.725c0,.666,0,1.332,0,2-.029.032-.018.071-.018.108q0,1.837,0,3.674C947.317,1501.788,947.3,1501.833,947.336,1501.869Z" transform="translate(-938.87 -1454.779)" fill="#fff" fill-rule="evenodd"/>
        <path id="Path_66" data-name="Path 66" d="M950.9,1482.347a1.6,1.6,0,0,0-.4-.252.53.53,0,0,1,.447-.274c.281-.046.566-.075.849-.11a1.058,1.058,0,0,1,.7.246,4.767,4.767,0,0,0-1.166.11A.568.568,0,0,0,950.9,1482.347Z" transform="translate(-942.371 -1441.884)" fill="#fff" fill-rule="evenodd"/>
        <path id="Path_67" data-name="Path 67" d="M1006.388,1865.584a.042.042,0,0,1,.058.031C1006.421,1865.616,1006.4,1865.612,1006.388,1865.584Z" transform="translate(-996.623 -1814.504)" fill="#fff" fill-rule="evenodd"/>
        <path id="Path_68" data-name="Path 68" d="M965.935,595.183l.033.021C965.95,595.208,965.937,595.2,965.935,595.183Z" transform="translate(-957.356 -581.355)" fill="#fff" fill-rule="evenodd"/>
        <path id="Path_69" data-name="Path 69" d="M967.358,595.96a.012.012,0,0,1,.014.01l-.011,0Z" transform="translate(-958.737 -582.109)" fill="#fff" fill-rule="evenodd"/>
        <path id="Path_70" data-name="Path 70" d="M673.355,987.821l.031.021Z" transform="translate(-673.355 -962.48)" fill="#fff" fill-rule="evenodd"/>
        <path id="Path_71" data-name="Path 71" d="M983.168,140.169a2.809,2.809,0,0,0-.739.07c-1.088.152-2.175.312-3.263.468s-2.175.313-3.263.467q-1.548.22-3.1.435-1.576.221-3.153.439c-1,.137-1.991.271-2.987.408-.665.092-1.332.174-1.994.285-.47.079-.63.308-.612.789,0,.042,0,.085.007.127a9.8,9.8,0,0,1,.017,1.112.381.381,0,0,1-.418.416,5.2,5.2,0,0,0-.974.14.453.453,0,0,1-.441-.07.012.012,0,0,0-.014-.01l-.009,0-.033-.021v0a3.914,3.914,0,0,1-.055-.936q0-.937,0-1.875,0-1.226.006-2.452a7.039,7.039,0,0,0,.02-.826,7.965,7.965,0,0,1,.143-1.437,5.128,5.128,0,0,1,.854-1.987,5.323,5.323,0,0,1,1.149-1.13c.156-.1.309-.2.47-.283a2.025,2.025,0,0,1,.625-.282c.417-.064.834-.118,1.252-.176l1.752-.248,1.669-.234c.57-.081,1.14-.164,1.71-.244s1.132-.154,1.7-.234c.7-.1,1.4-.2,2.1-.3.635-.089,1.271-.173,1.906-.263.765-.108,1.529-.221,2.294-.329.732-.1,1.464-.209,2.2-.305a1.268,1.268,0,0,1,.458-.038,7.357,7.357,0,0,1,1.051.312,2.821,2.821,0,0,1,1.786,2.091,3.622,3.622,0,0,1,.115.949q-.017,9.623-.035,19.246-.011,5.947-.025,11.895c-.008,3.5.006,7.008-.036,10.512a4.129,4.129,0,0,1-1.979,3.567,3.765,3.765,0,0,1-1.571.539c-1.084.151-2.166.313-3.25.469s-2.167.309-3.251.463q-1.556.221-3.112.439-1.584.221-3.169.436c-1.01.138-2.021.27-3.03.414a3.5,3.5,0,0,1-1.926-.157,4.726,4.726,0,0,1-.521-.273.016.016,0,0,0-.017-.017h-.005l-.034-.021,0,0a.042.042,0,0,0-.058-.031h0c.006-.063-.047-.089-.083-.122a3.519,3.519,0,0,1-1.018-1.838,9.345,9.345,0,0,1-.2-2.032q0-1.952,0-3.9c0-.666,0-1.332,0-2a2.727,2.727,0,0,1,.057-.725.569.569,0,0,1,.427-.281,4.777,4.777,0,0,1,1.166-.11c.216.067.252.247.27.434.042.436.018.874.025,1.311a4.163,4.163,0,0,0,.059.828.484.484,0,0,0,.108.255.332.332,0,0,0,.26.193,1.835,1.835,0,0,0,.658.013c.391-.044.78-.1,1.169-.157l1.488-.208,1.724-.244c.5-.07.992-.137,1.488-.207l1.71-.244,1.488-.209c.5-.071,1-.143,1.5-.213s1.03-.14,1.545-.211,1.01-.143,1.516-.213,1.021-.139,1.531-.209c.584-.08,1.169-.159,1.752-.244a10.409,10.409,0,0,0,1.068-.166.584.584,0,0,0,.469-.5,1.763,1.763,0,0,0,.026-.308c.014-5.163-.022-10.326.022-15.489.018-2.017,0-4.035.006-6.053,0-.766,0-1.533.007-2.3.034-.047.017-.1.017-.15q0-2.412,0-4.825c0-.539,0-1.078,0-1.617a1.055,1.055,0,0,0-.036-.263A.379.379,0,0,0,983.168,140.169Zm-10.637,39.342h0c.021.048.07.061.11.082a1.828,1.828,0,0,0,1.292.171,2.419,2.419,0,0,0,1.537-1.069,2.342,2.342,0,0,0,.407-.858,2.3,2.3,0,0,0-.3-1.99,1.432,1.432,0,0,0-.756-.6h0l-.029-.022a1.8,1.8,0,0,0-1.566.043,2.664,2.664,0,0,0-1.589,2.432,1.971,1.971,0,0,0,.874,1.813l.01,0Z" transform="translate(-953.618 -131.395)" fill="#fff" fill-rule="evenodd"/>
        <path id="Path_72" data-name="Path 72" d="M1053.59,429.729c0,.766-.006,1.533-.007,2.3,0,2.018.011,4.035-.006,6.053-.045,5.163-.009,10.326-.022,15.489a1.763,1.763,0,0,1-.026.308.584.584,0,0,1-.468.5,10.4,10.4,0,0,1-1.068.166c-.584.085-1.168.163-1.752.244-.51.07-1.021.138-1.531.209s-1.01.143-1.516.213-1.03.14-1.544.211-1,.142-1.5.213l-1.488.209-1.71.244-1.489.207-1.724.244-1.488.208c-.389.054-.778.113-1.169.157a1.836,1.836,0,0,1-.659-.013.332.332,0,0,1-.26-.193c.974-.043,1.929-.234,2.893-.36s1.935-.271,2.9-.407l3.112-.438,2.931-.41,2.931-.407q1.494-.207,2.988-.412a6,6,0,0,0,.7-.111.579.579,0,0,0,.5-.553,2.353,2.353,0,0,0,.022-.351q0-6.963.006-13.925.009-6.031.033-12.062.006-2,.018-3.992a2.825,2.825,0,0,0-.057-.7.379.379,0,0,1,.441.3,1.061,1.061,0,0,1,.036.263c0,.539,0,1.078,0,1.616-.026.027-.018.062-.018.094Q1053.591,427.288,1053.59,429.729Z" transform="translate(-1023.583 -413.796)" fill="#fff" fill-rule="evenodd"/>
        <path id="Path_73" data-name="Path 73" d="M1044.122,124.136a7.363,7.363,0,0,0-1.051-.312,1.268,1.268,0,0,0-.458.038c-.733.1-1.466.2-2.2.305-.765.109-1.529.221-2.294.329-.635.09-1.271.173-1.906.263-.7.1-1.4.2-2.1.3-.566.08-1.132.155-1.7.234s-1.14.163-1.71.244l-1.669.234-1.752.248c-.417.059-.835.113-1.252.176a2.025,2.025,0,0,0-.625.282c-.161.086-.314.188-.47.283l-.4-.228a3.227,3.227,0,0,1,1.558-.653c1.049-.119,2.093-.286,3.139-.433l3.11-.436,3.11-.438,3.11-.436,3.1-.435.865-.123a.259.259,0,0,1,.1,0,6.735,6.735,0,0,1,1.359.448C1044.036,124.055,1044.109,124.06,1044.122,124.136Z" transform="translate(-1014.243 -123.576)" fill="#fff" fill-rule="evenodd"/>
        <path id="Path_74" data-name="Path 74" d="M951.792,224.467l.4.228a5.324,5.324,0,0,0-1.149,1.13,5.128,5.128,0,0,0-.854,1.987,7.992,7.992,0,0,0-.143,1.437,6.089,6.089,0,0,0-.02.826q0,1.226-.006,2.452,0,.937,0,1.875a3.917,3.917,0,0,0,.055.936c-.4-.152-.48-.261-.48-.673,0-1.688,0-3.377.011-5.065a9.706,9.706,0,0,1,.186-2.159,4.839,4.839,0,0,1,1.916-2.925C951.735,224.5,951.765,224.483,951.792,224.467Z" transform="translate(-941.495 -221.509)" fill="#fff" fill-rule="evenodd"/>
        <path id="Path_75" data-name="Path 75" d="M947.336,1501.869a9.34,9.34,0,0,0,.2,2.032,3.52,3.52,0,0,0,1.018,1.838c.036.032.089.058.083.122a2.287,2.287,0,0,1-.843-.707,4.047,4.047,0,0,1-.764-1.869,16.931,16.931,0,0,1-.135-2.615c-.02-1.758.039-3.515.021-5.273a.8.8,0,0,1,.08-.405,1.61,1.61,0,0,1,.4.252,2.727,2.727,0,0,0-.057.725c0,.666,0,1.332,0,2-.029.032-.018.071-.018.108q0,1.837,0,3.674C947.317,1501.788,947.3,1501.833,947.336,1501.869Z" transform="translate(-938.87 -1454.779)" fill="#fff" fill-rule="evenodd"/>
        <path id="Path_76" data-name="Path 76" d="M950.9,1482.347a1.6,1.6,0,0,0-.4-.252.53.53,0,0,1,.447-.274c.281-.046.566-.075.849-.11a1.058,1.058,0,0,1,.7.246,4.767,4.767,0,0,0-1.166.11A.568.568,0,0,0,950.9,1482.347Z" transform="translate(-942.371 -1441.884)" fill="#fff" fill-rule="evenodd"/>
        <path id="Path_77" data-name="Path 77" d="M1006.388,1865.584a.042.042,0,0,1,.058.031C1006.421,1865.616,1006.4,1865.612,1006.388,1865.584Z" transform="translate(-996.623 -1814.504)" fill="#fff" fill-rule="evenodd"/>
        <path id="Path_78" data-name="Path 78" d="M965.935,595.183l.033.021C965.95,595.208,965.937,595.2,965.935,595.183Z" transform="translate(-957.356 -581.355)" fill="#fff" fill-rule="evenodd"/>
        <path id="Path_79" data-name="Path 79" d="M967.358,595.96a.012.012,0,0,1,.014.01l-.011,0Z" transform="translate(-958.737 -582.109)" fill="#fff" fill-rule="evenodd"/>
        <path id="Path_80" data-name="Path 80" d="M673.355,987.821l.031.021Z" transform="translate(-673.355 -962.48)" fill="#fff" fill-rule="evenodd"/>
        <path id="Path_81" data-name="Path 81" d="M1008.269,1866.646l.034.021C1008.285,1866.671,1008.272,1866.667,1008.269,1866.646Z" transform="translate(-998.449 -1815.537)" fill="#fff" fill-rule="evenodd"/>
        <path id="Path_82" data-name="Path 82" d="M1009.616,1867.41a.016.016,0,0,1,.017.017A.015.015,0,0,1,1009.616,1867.41Z" transform="translate(-999.756 -1816.279)" fill="#fff" fill-rule="evenodd"/>
        <path id="Path_83" data-name="Path 83" d="M1396.686,1622.286a2.911,2.911,0,0,0,.466-1.327,2.141,2.141,0,0,0-.688-1.856.184.184,0,0,1-.024-.033,1.432,1.432,0,0,1,.756.6,2.3,2.3,0,0,1,.3,1.99,2.342,2.342,0,0,1-.407.858A1.118,1.118,0,0,1,1396.686,1622.286Z" transform="translate(-1375.238 -1575.22)" fill="#fff" fill-rule="evenodd"/>
        <path id="Path_84" data-name="Path 84" d="M1320.807,1728.75a1.117,1.117,0,0,0,.4.233,2.418,2.418,0,0,1-1.537,1.069,1.828,1.828,0,0,1-1.292-.171c-.041-.021-.089-.034-.11-.082.129.019.257.048.387.056a2.331,2.331,0,0,0,1.966-.876C1320.687,1728.905,1320.745,1728.827,1320.807,1728.75Z" transform="translate(-1299.359 -1681.684)" fill="#fff" fill-rule="evenodd"/>
        <path id="Path_85" data-name="Path 85" d="M1696.766,502.253q0-2.441,0-4.882c0-.032-.009-.066.018-.094q0,2.413,0,4.825C1696.783,502.152,1696.8,502.206,1696.766,502.253Z" transform="translate(-1666.758 -486.32)" fill="#fff" fill-rule="evenodd"/>
        <path id="Path_86" data-name="Path 86" d="M961.387,1600.344c-.031-.037-.019-.081-.019-.122q0-1.837,0-3.674c0-.036-.011-.076.018-.108Q961.387,1598.392,961.387,1600.344Z" transform="translate(-952.921 -1553.254)" fill="#fff" fill-rule="evenodd"/>
        <path id="Path_87" data-name="Path 87" d="M964.151,388.392a6.059,6.059,0,0,1,.02-.826A7.027,7.027,0,0,1,964.151,388.392Z" transform="translate(-955.62 -379.826)" fill="#fff" fill-rule="evenodd"/>
        <path id="Path_88" data-name="Path 88" d="M1395.444,1618.313c-.017,0-.027,0-.029-.022Z" transform="translate(-1374.244 -1574.464)" fill="#fff" fill-rule="evenodd"/>
        <path id="Path_89" data-name="Path 89" d="M1317.647,1764.141c.007-.015.014-.019.021,0l-.01,0Z" transform="translate(-1298.755 -1716.025)" fill="#fff" fill-rule="evenodd"/>
        <path id="Path_90" data-name="Path 90" d="M1008.269,1866.646l.034.021C1008.285,1866.671,1008.272,1866.667,1008.269,1866.646Z" transform="translate(-998.449 -1815.537)" fill="#fff" fill-rule="evenodd"/>
        <path id="Path_91" data-name="Path 91" d="M1009.616,1867.41a.016.016,0,0,1,.017.017A.015.015,0,0,1,1009.616,1867.41Z" transform="translate(-999.756 -1816.279)" fill="#fff" fill-rule="evenodd"/>
        <path id="Path_92" data-name="Path 92" d="M1396.686,1622.286a2.911,2.911,0,0,0,.466-1.327,2.141,2.141,0,0,0-.688-1.856.184.184,0,0,1-.024-.033,1.432,1.432,0,0,1,.756.6,2.3,2.3,0,0,1,.3,1.99,2.342,2.342,0,0,1-.407.858A1.118,1.118,0,0,1,1396.686,1622.286Z" transform="translate(-1375.238 -1575.22)" fill="#fff" fill-rule="evenodd"/>
        <path id="Path_93" data-name="Path 93" d="M1320.807,1728.75a1.117,1.117,0,0,0,.4.233,2.418,2.418,0,0,1-1.537,1.069,1.828,1.828,0,0,1-1.292-.171c-.041-.021-.089-.034-.11-.082.129.019.257.048.387.056a2.331,2.331,0,0,0,1.966-.876C1320.687,1728.905,1320.745,1728.827,1320.807,1728.75Z" transform="translate(-1299.359 -1681.684)" fill="#fff" fill-rule="evenodd"/>
        <path id="Path_94" data-name="Path 94" d="M1696.766,502.253q0-2.441,0-4.882c0-.032-.009-.066.018-.094q0,2.413,0,4.825C1696.783,502.152,1696.8,502.206,1696.766,502.253Z" transform="translate(-1666.758 -486.32)" fill="#fff" fill-rule="evenodd"/>
        <path id="Path_95" data-name="Path 95" d="M961.387,1600.344c-.031-.037-.019-.081-.019-.122q0-1.837,0-3.674c0-.036-.011-.076.018-.108Q961.387,1598.392,961.387,1600.344Z" transform="translate(-952.921 -1553.254)" fill="#fff" fill-rule="evenodd"/>
        <path id="Path_96" data-name="Path 96" d="M964.151,388.392a6.059,6.059,0,0,1,.02-.826A7.027,7.027,0,0,1,964.151,388.392Z" transform="translate(-955.62 -379.826)" fill="#fff" fill-rule="evenodd"/>
        <path id="Path_97" data-name="Path 97" d="M1395.444,1618.313c-.017,0-.027,0-.029-.022Z" transform="translate(-1374.244 -1574.464)" fill="#fff" fill-rule="evenodd"/>
        <path id="Path_98" data-name="Path 98" d="M1317.647,1764.141c.007-.015.014-.019.021,0l-.01,0Z" transform="translate(-1298.755 -1716.025)" fill="#fff" fill-rule="evenodd"/>
      </g>
    </g>
    <g id="Group_140" data-name="Group 140" transform="translate(123.352 41.408)">
      <path id="Path_315" data-name="Path 315" d="M46.085,41.71a4.414,4.414,0,0,1-1.646.761,8,8,0,0,1-1.78.2,15.263,15.263,0,0,1-5.451-.907,13.532,13.532,0,0,1-4.186-2.5,15.272,15.272,0,0,1-3.067-3.738,24.682,24.682,0,0,1-2.1-4.634A33.09,33.09,0,0,1,26.564,25.7a51.5,51.5,0,0,1-.6-5.406q-.156-2.7-.078-5.283t.3-4.8a13.67,13.67,0,0,0-.985,1.925q-.582,1.321-1.287,3.089t-1.466,3.862q-.761,2.093-1.511,4.219t-1.455,4.175q-.7,2.048-1.254,3.727t-.94,2.854q-.391,1.175-.5,1.578-.089.268-.235.671a5.273,5.273,0,0,1-.358.784,2.749,2.749,0,0,1-.492.649.9.9,0,0,1-.638.269.838.838,0,0,1-.672-.325,2.671,2.671,0,0,1-.436-.773,6.75,6.75,0,0,1-.269-.9q-.1-.448-.146-.716-.135-.94-.246-2.373t-.19-3.179q-.079-1.746-.123-3.727T12.9,22.044q-.034-2-.045-3.94t-.023-3.626q-.011-1.69-.011-3.033V9.3q-.493,1.119-1.175,2.843t-1.478,3.873Q9.372,18.16,8.51,20.633t-1.7,5.093Q5.969,28.345,5.2,31.01T3.82,36.181q-.067.224-.168.548a3.471,3.471,0,0,1-.258.616,1.862,1.862,0,0,1-.392.5.821.821,0,0,1-.571.213.859.859,0,0,1-.56-.2,1.84,1.84,0,0,1-.414-.481,2.772,2.772,0,0,1-.269-.6,2.827,2.827,0,0,1-.123-.593q-.112-.56-.19-1.231T.742,33.573q-.056-.705-.1-1.388T.551,30.92Q.306,27.853.2,24.853T.1,18.809q0-3,.1-5.955t.3-5.977Q.574,6,.708,4.919A8.01,8.01,0,0,1,1.235,2.87,4.173,4.173,0,0,1,2.376,1.258,3.023,3.023,0,0,1,4.424.609a.963.963,0,0,1,.537.146.555.555,0,0,1,.224.5v.224q-.2,1.343-.4,2.675t-.426,2.72q-.537,4.477-.907,8.943t-.369,8.988q0,1.769.067,3.492t.246,3.47q1.544-4.791,2.72-8.484t2.071-6.47q.9-2.776,1.511-4.734T10.737,8.8q.425-1.321.671-2.115t.4-1.231q.156-.437.224-.638t.134-.358a4.664,4.664,0,0,1,.918-1.366,1.991,1.991,0,0,1,1.5-.6,1.581,1.581,0,0,1,1.019.314,2.2,2.2,0,0,1,.615.783,3.514,3.514,0,0,1,.3,1.03,7.449,7.449,0,0,1,.078,1.03q-.045,3.47-.2,6.861t-.269,6.727q-.112,3.336-.1,6.626t.3,6.559q.9-2.641,1.657-4.981t1.444-4.466q.683-2.127,1.321-4.1t1.321-3.9q.683-1.926,1.422-3.851t1.634-3.962q.2-.4.448-.817a4.36,4.36,0,0,1,.56-.75,2.905,2.905,0,0,1,.716-.56,1.81,1.81,0,0,1,.9-.224,1.4,1.4,0,0,1,1.1.448,3.048,3.048,0,0,1,.615,1.074,5.865,5.865,0,0,1,.28,1.31q.067.683.067,1.153,0,2.059-.134,4.556t-.19,5.182q-.056,2.686.056,5.44a36.2,36.2,0,0,0,.6,5.328A23.168,23.168,0,0,0,31.6,34.121a12.677,12.677,0,0,0,2.6,3.907,11.6,11.6,0,0,0,4.041,2.63,15.583,15.583,0,0,0,5.787.962,6.181,6.181,0,0,0,1-.078,3.722,3.722,0,0,0,.929-.28ZM43.41,13.257a2.171,2.171,0,0,1-.2.9,2.9,2.9,0,0,1-.526.795,2.825,2.825,0,0,1-.75.571,1.856,1.856,0,0,1-.873.224,1.2,1.2,0,0,1-.929-.381,1.375,1.375,0,0,1-.347-.963,2.093,2.093,0,0,1,.2-.884,2.785,2.785,0,0,1,1.265-1.321,1.863,1.863,0,0,1,.862-.213,1.27,1.27,0,0,1,.94.358A1.242,1.242,0,0,1,43.41,13.257Zm6.268,14.864a8.188,8.188,0,0,1-1.22,1.556,8.744,8.744,0,0,1-1.545,1.231,7.475,7.475,0,0,1-1.791.817,6.655,6.655,0,0,1-1.958.291,5.52,5.52,0,0,1-2.228-.425A4.588,4.588,0,0,1,39.3,30.416a5.168,5.168,0,0,1-1.007-1.769,6.873,6.873,0,0,1-.347-2.227,7.874,7.874,0,0,1,.381-2.462,9.054,9.054,0,0,1,1.052-2.183,10.433,10.433,0,0,1,1.578-1.869A14.044,14.044,0,0,1,42.9,18.384l.269.2a11.324,11.324,0,0,0-1.78,2.91,8.528,8.528,0,0,0-.683,3.358,7.869,7.869,0,0,0,.235,1.937,4.941,4.941,0,0,0,.739,1.645,3.72,3.72,0,0,0,1.287,1.142,3.941,3.941,0,0,0,1.9.425,5.875,5.875,0,0,0,2.518-.56,8.988,8.988,0,0,0,2.161-1.41Zm21.3,0q-.425.806-.907,1.545a6.872,6.872,0,0,1-1.086,1.3,4.916,4.916,0,0,1-1.365.9,4.286,4.286,0,0,1-1.746.336,3.339,3.339,0,0,1-1.925-.548,4.863,4.863,0,0,1-1.377-1.455,8.328,8.328,0,0,1-.918-2.071,22.762,22.762,0,0,1-.571-2.373q-.224-1.209-.336-2.384l-.2-2.115a5.4,5.4,0,0,0-1.03,1.287,23.469,23.469,0,0,0-1.231,2.227q-.627,1.276-1.2,2.776a25.34,25.34,0,0,0-.929,2.955,3.481,3.481,0,0,1-.212.649,2.965,2.965,0,0,1-.358.616,2.016,2.016,0,0,1-.5.47,1.162,1.162,0,0,1-.65.19.92.92,0,0,1-.839-.4,2.793,2.793,0,0,1-.369-.918,44.085,44.085,0,0,1-.907-5.44q-.257-2.6-.257-5.194a2.563,2.563,0,0,1,.212-1.086,2.173,2.173,0,0,1,.571-.761,2.321,2.321,0,0,1,.851-.448,3.614,3.614,0,0,1,1.03-.146h.213a1.158,1.158,0,0,1,.28.034.621.621,0,0,1,.224.1.167.167,0,0,1,.067.179,29.439,29.439,0,0,0-.56,5.966q.022,3.033.313,5.832a24.384,24.384,0,0,1,.728-2.541q.481-1.421,1.119-2.865A29.8,29.8,0,0,1,58.5,21.977a13.652,13.652,0,0,1,1.534-2.2,5.8,5.8,0,0,1,.772-.728,1.549,1.549,0,0,1,.974-.3,1.074,1.074,0,0,1,.56.134,1.225,1.225,0,0,1,.369.336,1.546,1.546,0,0,1,.224.459,4.546,4.546,0,0,1,.123.5q.112.649.224,1.679t.28,2.194q.168,1.164.414,2.339a12.8,12.8,0,0,0,.627,2.127,5.264,5.264,0,0,0,.918,1.556,1.655,1.655,0,0,0,1.276.6,3.059,3.059,0,0,0,1.175-.235,5.381,5.381,0,0,0,1.086-.6,6.457,6.457,0,0,0,.963-.851q.448-.481.806-.951ZM86.169,18.07a14.271,14.271,0,0,1-.28,2.619,24.275,24.275,0,0,1-.795,3.045,27.766,27.766,0,0,1-1.22,3.078,16.3,16.3,0,0,1-1.567,2.7,8.733,8.733,0,0,1-1.847,1.914,3.39,3.39,0,0,1-2.037.727,1.637,1.637,0,0,1-1.209-.6,6.678,6.678,0,0,1-1-1.433,13.892,13.892,0,0,1-.75-1.679q-.313-.85-.492-1.321-.47-1.343-.828-2.686T73.476,21.7c-.015-.06-.037-.175-.067-.347a4.882,4.882,0,0,0-.123-.526,3.255,3.255,0,0,0-.179-.481q-.1-.213-.19-.213a1.849,1.849,0,0,0-.459.067,4.032,4.032,0,0,0-.5.168q-.246.1-.481.213t-.392.2l-.179-.224a7.5,7.5,0,0,1,.739-.627,9.86,9.86,0,0,1,.985-.661,7.6,7.6,0,0,1,1.052-.515,2.614,2.614,0,0,1,.94-.213,1.124,1.124,0,0,1,.907.459,4.3,4.3,0,0,1,.649,1.231,15.093,15.093,0,0,1,.515,1.824q.235,1.052.5,2.216l.179.716q.134.537.336,1.242t.436,1.488q.235.784.492,1.422a8.472,8.472,0,0,0,.5,1.063q.246.426.47.426a1.8,1.8,0,0,0,1.175-.459,5.185,5.185,0,0,0,1.03-1.22,10.5,10.5,0,0,0,.862-1.712A18.266,18.266,0,0,0,83.74,23.4a10.448,10.448,0,0,0,.145-1.612,12.62,12.62,0,0,0-.269-2.586,7.735,7.735,0,0,0-.839-2.283,4.367,4.367,0,0,0-1.455-1.556,2.973,2.973,0,0,0-2.093-.381l-.067-.2a8.154,8.154,0,0,1,1.411-.448,6.7,6.7,0,0,1,1.433-.157,4.513,4.513,0,0,1,3.044.963A3.658,3.658,0,0,1,86.169,18.07Zm9.862-4.813a2.166,2.166,0,0,1-.2.9,2.883,2.883,0,0,1-.526.795,2.813,2.813,0,0,1-.75.571,1.856,1.856,0,0,1-.873.224,1.2,1.2,0,0,1-.929-.381A1.373,1.373,0,0,1,92.4,14.4a2.088,2.088,0,0,1,.2-.884,2.765,2.765,0,0,1,.526-.773,2.8,2.8,0,0,1,.739-.548,1.865,1.865,0,0,1,.862-.213,1.27,1.27,0,0,1,.94.358A1.242,1.242,0,0,1,96.031,13.257ZM102.3,28.122a8.19,8.19,0,0,1-1.22,1.556,8.73,8.73,0,0,1-1.545,1.231,7.472,7.472,0,0,1-1.791.817,6.656,6.656,0,0,1-1.959.291,5.518,5.518,0,0,1-2.227-.425,4.588,4.588,0,0,1-1.634-1.175,5.155,5.155,0,0,1-1.007-1.769,6.863,6.863,0,0,1-.347-2.227,7.874,7.874,0,0,1,.381-2.462A9.054,9.054,0,0,1,92,21.775a10.417,10.417,0,0,1,1.578-1.869,14.022,14.022,0,0,1,1.936-1.522l.269.2a11.323,11.323,0,0,0-1.78,2.91,8.522,8.522,0,0,0-.683,3.358,7.869,7.869,0,0,0,.235,1.937,4.933,4.933,0,0,0,.739,1.645,3.713,3.713,0,0,0,1.287,1.142,3.94,3.94,0,0,0,1.9.425,5.877,5.877,0,0,0,2.519-.56,8.978,8.978,0,0,0,2.16-1.41Zm16.757,0a9.246,9.246,0,0,1-1.153,1.545,8.283,8.283,0,0,1-1.455,1.254,6.9,6.9,0,0,1-1.712.84,6.05,6.05,0,0,1-1.9.3,6.261,6.261,0,0,1-2.563-.492,6.01,6.01,0,0,1-1.914-1.332,7.47,7.47,0,0,1-1.343-1.959,12.673,12.673,0,0,1-.851-2.339,17.319,17.319,0,0,1-.448-2.5,23.379,23.379,0,0,1-.134-2.44q0-1.075.089-2.2t.269-2.317q-.694.022-1.354.023h-1.309q-.426,0-.963-.023A3.661,3.661,0,0,1,101.3,16.3a1.966,1.966,0,0,1-.783-.47,1.244,1.244,0,0,1-.314-.918,1.025,1.025,0,0,1,.123-.537.772.772,0,0,1,.336-.3,1.589,1.589,0,0,1,.492-.134,4.763,4.763,0,0,1,.571-.034q.336,0,1.589.112t3.022.246a43.13,43.13,0,0,1,1.444-5.194,32.733,32.733,0,0,1,2-4.656h.314q-.716,2.44-1.265,4.925a45.414,45.414,0,0,0-.817,5.037q1.634.112,3.369.19t3.392.078q2.44,0,3.962-.045t2.4-.112q1.03-.09,1.545-.179l.09.381q-1.343.313-3.067.593t-3.671.492q-1.947.213-4.03.369t-4.141.246q-.045.448-.045.907V18.2q0,1.075.1,2.373a21.08,21.08,0,0,0,.369,2.608,17.468,17.468,0,0,0,.727,2.552,7.978,7.978,0,0,0,1.209,2.194,5.932,5.932,0,0,0,1.8,1.534,5.057,5.057,0,0,0,2.485.582,4.886,4.886,0,0,0,2.384-.582,11.151,11.151,0,0,0,2.026-1.433Zm22.577,0a5.626,5.626,0,0,1-.9,1.332,5.555,5.555,0,0,1-1.209,1.007,5.878,5.878,0,0,1-1.433.638,5.6,5.6,0,0,1-1.589.224,5.055,5.055,0,0,1-2.966-.851,7.222,7.222,0,0,1-2.048-2.216,18.712,18.712,0,0,1-1.332,1.332,10.507,10.507,0,0,1-1.545,1.164,9.039,9.039,0,0,1-1.69.817,5.147,5.147,0,0,1-1.746.313,4.058,4.058,0,0,1-1.88-.425,4.44,4.44,0,0,1-1.411-1.131,5.159,5.159,0,0,1-.9-1.612,5.758,5.758,0,0,1-.313-1.892,7.339,7.339,0,0,1,.661-2.977,10.3,10.3,0,0,1,1.746-2.72,9.118,9.118,0,0,1,2.5-1.981,6.1,6.1,0,0,1,2.933-.761,3.064,3.064,0,0,1,.784.089v-.94q0-.649.045-1.723t.179-2.384q.134-1.309.347-2.753t.56-2.865a25.585,25.585,0,0,1,.817-2.709,11.4,11.4,0,0,1,1.1-2.261,5.667,5.667,0,0,1,1.433-1.556A3.023,3.023,0,0,1,135.589.7a2.7,2.7,0,0,1,1.925.694,4.911,4.911,0,0,1,1.164,1.713,8.305,8.305,0,0,1,.571,2.16,16.287,16.287,0,0,1,.146,2.037,18.986,18.986,0,0,1-.224,2.7q-.224,1.534-.627,3.246t-.963,3.5q-.559,1.791-1.209,3.448a30.152,30.152,0,0,1-1.4,3.078,16.647,16.647,0,0,1-1.511,2.406,9.292,9.292,0,0,0,.705,1.612,5.446,5.446,0,0,0,.974,1.276,4.024,4.024,0,0,0,2.91,1.142,4.22,4.22,0,0,0,3.447-1.679Zm-9.178-12.469v1.869q0,1.063.056,2.25t.2,2.429a19.039,19.039,0,0,0,.437,2.407,33.3,33.3,0,0,0,1.724-3.974,45.611,45.611,0,0,0,1.354-4.432,42.626,42.626,0,0,0,.884-4.533,31.2,31.2,0,0,0,.313-4.276q0-.425-.045-1.231a8.407,8.407,0,0,0-.246-1.6,4.357,4.357,0,0,0-.6-1.388,1.261,1.261,0,0,0-1.1-.593,1.242,1.242,0,0,0-.962.5,4.529,4.529,0,0,0-.739,1.343A12.322,12.322,0,0,0,133.2,6.34q-.213,1.075-.358,2.239t-.224,2.306q-.079,1.142-.112,2.115t-.045,1.679Q132.454,15.384,132.454,15.652Zm-5.641,13.79a5.651,5.651,0,0,0,2.361-.492,7.694,7.694,0,0,0,1.981-1.3,11.522,11.522,0,0,1-.727-1.78q-.3-.951-.515-1.925t-.336-1.959q-.123-.985-.19-1.9a2.151,2.151,0,0,0-.672-.481,2.3,2.3,0,0,0-.985-.19,3.183,3.183,0,0,0-1.869.571,5.147,5.147,0,0,0-1.377,1.433,6.923,6.923,0,0,0-.85,1.88,7.05,7.05,0,0,0-.291,1.937,6.765,6.765,0,0,0,.19,1.623,3.7,3.7,0,0,0,.615,1.343,3.064,3.064,0,0,0,1.086.907A3.444,3.444,0,0,0,126.813,29.442Z" transform="translate(0 0)" fill="#fff"/>
    </g>
  </g>
</svg>
