<svg xmlns="http://www.w3.org/2000/svg" xmlns:xlink="http://www.w3.org/1999/xlink" width="321" height="318" viewBox="0 0 321 318">
  <defs>
    <linearGradient id="linear-gradient" x1="0.139" y1="0.199" x2="0.908" y2="0.798" gradientUnits="objectBoundingBox">
      <stop offset="0" stop-color="#f2f2f2"/>
      <stop offset="1" stop-color="#fff"/>
    </linearGradient>
  </defs>
  <g id="Group_2208" data-name="Group 2208" transform="translate(-92 -828)">
    <text id="Engagement" transform="translate(255 1094)" fill="#1f1f1f" font-size="14" font-family="SegoeUI, Segoe UI"><tspan x="-38.992" y="0">Engagement</tspan></text>
    <g id="Group_112" data-name="Group 112" transform="translate(182 918)">
      <ellipse id="Ellipse_13" data-name="Ellipse 13" cx="71" cy="69.5" rx="71" ry="69.5" transform="translate(3 7)" fill="rgba(0,0,0,0.1)"/>
      <ellipse id="Ellipse_14" data-name="Ellipse 14" cx="70.5" cy="69" rx="70.5" ry="69" fill="#fff"/>
      <ellipse id="Ellipse_12" data-name="Ellipse 12" cx="71.5" cy="70" rx="71.5" ry="70" transform="translate(3 3)" fill="url(#linear-gradient)"/>
    </g>
    <g id="noun_Social_Engagement_2122936" data-name="noun_Social Engagement_2122936" transform="translate(225.096 965.901)">
      <path id="Path_705" data-name="Path 705" d="M14.657,5.3a4.9,4.9,0,1,0,2.714,8.979l5.49,5.477a9.387,9.387,0,0,0,.6,13.3l-4.3,4.9a3.673,3.673,0,1,0,1.2,1.114l4.408-5.012a9.367,9.367,0,0,0,7.3,1.163l3.547,10.2a3.673,3.673,0,1,0,1.91-.531H37.15L33.6,34.682a9.428,9.428,0,0,0,5.241-6.245L48.415,29.6a2.857,2.857,0,1,0,.049-1.633l-9.347-1.143c0-.237.029-.473.029-.714a9.387,9.387,0,0,0-3.212-7.061L44.146,7a3.673,3.673,0,1,0-1.3-.992L34.616,18.083a9.367,9.367,0,0,0-10.551.571l-5.51-5.51a4.9,4.9,0,0,0-3.9-7.849Zm0,8.163a3.265,3.265,0,1,1,3.265-3.265A3.265,3.265,0,0,1,14.657,13.459ZM17.31,43.152a2.041,2.041,0,1,1,2.041-2.041A2.041,2.041,0,0,1,17.31,43.152Zm20.2,3.367a2.041,2.041,0,1,1-2.041,2.041,2.041,2.041,0,0,1,2.041-2.041ZM51.187,27.642a1.224,1.224,0,1,1-1.224,1.224,1.224,1.224,0,0,1,1.224-1.224Zm-5.51-26.02a2.041,2.041,0,1,1-2.041,2.041,2.041,2.041,0,0,1,2.041-2.041ZM29.759,20.654a.816.816,0,1,1,0,1.633,3.833,3.833,0,0,0-3.824,3.824.816.816,0,1,1-1.633,0A5.465,5.465,0,0,1,29.759,20.654Z" transform="translate(0 0)" fill="rgba(94,136,218,0.1)" stroke="#5e88da" stroke-width="1.5"/>
    </g>
  </g>
</svg>
