<svg xmlns="http://www.w3.org/2000/svg" xmlns:xlink="http://www.w3.org/1999/xlink" width="321" height="318" viewBox="0 0 321 318">
  <defs>
    <linearGradient id="linear-gradient" x1="0.139" y1="0.199" x2="0.908" y2="0.798" gradientUnits="objectBoundingBox">
      <stop offset="0" stop-color="#f2f2f2"/>
      <stop offset="1" stop-color="#fff"/>
    </linearGradient>
  </defs>
  <g id="Group_2178" data-name="Group 2178" transform="translate(-92 -828)">
    <text id="Unlimited_Guests" data-name="Unlimited Guests" transform="translate(255 1094)" fill="#1f1f1f" font-size="14" font-family="SegoeUI, Segoe UI"><tspan x="-52.695" y="0">Unlimited Guests</tspan></text>
    <g id="Group_112" data-name="Group 112" transform="translate(182 918)">
      <ellipse id="Ellipse_13" data-name="Ellipse 13" cx="71" cy="69.5" rx="71" ry="69.5" transform="translate(3 7)" fill="rgba(0,0,0,0.1)"/>
      <ellipse id="Ellipse_14" data-name="Ellipse 14" cx="70.5" cy="69" rx="70.5" ry="69" fill="#fff"/>
      <ellipse id="Ellipse_12" data-name="Ellipse 12" cx="71.5" cy="70" rx="71.5" ry="70" transform="translate(3 3)" fill="url(#linear-gradient)"/>
    </g>
    <g id="noun_Community_186488" transform="translate(217.191 947.47)">
      <g id="Group_23" data-name="Group 23" transform="translate(5 27.279)">
        <path id="Path_99" data-name="Path 99" d="M54.376,39.506l-2.29-.292c1.258-.726.593-2.311.282-2.844-.092-.157-.155-.249-.155-.249l-.053.038a27.13,27.13,0,0,1-6.506,3.554A27.023,27.023,0,0,1,41.33,40.8c.445,4.83,3.277,8.555,6.706,8.555,2.249,0,4.241-1.6,5.472-4.069a12.773,12.773,0,0,0,1.254-4.726,7.279,7.279,0,0,0,.076-.978l-.419-.077h-.042Z" transform="translate(-13.227 -29.282)" fill="none" stroke="#5e88da" stroke-width="1"/>
        <path id="Path_100" data-name="Path 100" d="M21.7,53.259l.7-1.458a4.757,4.757,0,0,1-3.311,1.458,4.783,4.783,0,0,1-3.377-1.524l1,2.239c-.234-.384-1.14-.58-2.208-.673a4.111,4.111,0,0,0,2.759,1.68l1.822,2.961,1.822-2.961c1.609-.364,2.775-1.2,2.939-2.187C22.814,52.768,21.932,52.872,21.7,53.259Z" transform="translate(-7.153 -32.817)" fill="none" stroke="#5e88da" stroke-width="1"/>
        <path id="Path_101" data-name="Path 101" d="M53.17,53.623c-.757.066-1.337.234-1.538.565l.9-1.874a5.784,5.784,0,0,1-8.6-.084l1.218,2.716.073.162a.871.871,0,0,0-.239-.233,2.149,2.149,0,0,0-.528-.258,9.025,9.025,0,0,0-2.073-.374,5.28,5.28,0,0,0,3.548,2.16l2.343,3.807L50.618,56.4c.192-.044.377-.094.558-.147l.1-.03c.175-.053.343-.112.507-.175l.08-.032c.167-.066.329-.135.482-.21l0,0c.158-.077.306-.159.449-.244l.055-.033c.141-.086.274-.176.4-.269l.022-.018a3.577,3.577,0,0,0,.647-.629l.019-.025a2.712,2.712,0,0,0,.227-.347,2.1,2.1,0,0,0,.23-.651A10.81,10.81,0,0,0,53.17,53.623Z" transform="translate(-13.466 -32.93)" fill="none" stroke="#5e88da" stroke-width="1"/>
        <path id="Path_102" data-name="Path 102" d="M23.832,41.838l-1.781-.227c.979-.564.461-1.8.22-2.212-.071-.122-.121-.193-.121-.193l-.041.03A21.13,21.13,0,0,1,17.049,42a20.963,20.963,0,0,1-3.363.845C14.032,46.6,16.236,49.5,18.9,49.5c1.75,0,3.3-1.246,4.256-3.165a9.946,9.946,0,0,0,.975-3.675,5.728,5.728,0,0,0,.059-.76l-.326-.06h-.034Z" transform="translate(-6.967 -29.98)" fill="none" stroke="#5e88da" stroke-width="1"/>
        <path id="Path_103" data-name="Path 103" d="M80.842,53.259l.7-1.458a4.5,4.5,0,0,1-6.688-.066l1,2.239c-.234-.384-1.14-.58-2.208-.673a4.11,4.11,0,0,0,2.759,1.68l1.822,2.961,1.822-2.961c1.608-.364,2.775-1.2,2.939-2.187C81.959,52.768,81.077,52.872,80.842,53.259Z" transform="translate(-20.547 -32.817)" fill="none" stroke="#5e88da" stroke-width="1"/>
        <path id="Path_104" data-name="Path 104" d="M82.976,41.839l-1.781-.227c.979-.564.461-1.8.22-2.212-.072-.122-.121-.193-.121-.193l-.041.03A21.13,21.13,0,0,1,76.191,42a20.965,20.965,0,0,1-3.363.845c.346,3.756,2.55,6.654,5.216,6.654,1.75,0,3.3-1.246,4.256-3.165a9.931,9.931,0,0,0,.975-3.675,5.73,5.73,0,0,0,.059-.76l-.326-.06h-.033Z" transform="translate(-20.361 -29.98)" fill="none" stroke="#5e88da" stroke-width="1"/>
        <path id="Path_105" data-name="Path 105" d="M26.809,50.733a7.882,7.882,0,0,0-3.449-2.212c1.351.151,2.537.384,2.537.384-2.7-1.483-2.627-6.8-2.627-6.8.471-10.307-6.331-9.768-6.331-9.768l0,.016-.005-.016s-6.8-.539-6.331,9.768c0,0,.069,5.321-2.628,6.8,0,0,.726-.049,1.7-.068A7.879,7.879,0,0,0,5,56.034c0,4.35,3.527,3.581,7.878,3.581h8.113c.813,0,1.6.026,2.336.042-.019-.242-.032-.49-.032-.756A11.332,11.332,0,0,1,26.809,50.733Zm-8.053-.146-1.822,2.961-1.822-2.961a4.109,4.109,0,0,1-2.759-1.68c1.068.093,1.973.289,2.208.673l-1-2.239a4.783,4.783,0,0,0,3.377,1.524,4.753,4.753,0,0,0,3.312-1.458l-.7,1.458c.234-.387,1.116-.491,2.15-.465C21.531,49.391,20.364,50.222,18.756,50.587ZM22.165,41.1a9.927,9.927,0,0,1-.975,3.675c-.957,1.918-2.506,3.165-4.256,3.165-2.666,0-4.869-2.9-5.215-6.654a21.054,21.054,0,0,0,3.363-.845,21.13,21.13,0,0,0,5.06-2.765l.041-.03s.05.072.121.193c.241.414.759,1.648-.22,2.212l1.781.227H21.9l.326.06A5.594,5.594,0,0,1,22.165,41.1Z" transform="translate(-5 -28.423)" fill="rgba(94,136,218,0.1)" stroke="#5e88da" stroke-width="1"/>
        <path id="Path_106" data-name="Path 106" d="M83.106,48.521c1.351.151,2.537.384,2.537.384-2.7-1.483-2.627-6.8-2.627-6.8.471-10.307-6.331-9.768-6.331-9.768l-.005.016,0-.016s-6.8-.539-6.331,9.768c0,0,.07,5.321-2.627,6.8,0,0,.726-.049,1.7-.068a7.911,7.911,0,0,0-2.613,1.9A11.325,11.325,0,0,1,70.319,58.9c0,.265-.013.514-.031.756.738-.015,1.522-.042,2.336-.042h8.112c4.351,0,7.878.769,7.878-3.581A7.88,7.88,0,0,0,83.106,48.521Zm-4.6,2.065L76.68,53.548l-1.822-2.961a4.109,4.109,0,0,1-2.759-1.68c1.068.093,1.974.289,2.208.673l-1-2.239a4.5,4.5,0,0,0,6.688.066l-.7,1.458c.235-.387,1.116-.491,2.15-.465C81.277,49.391,80.11,50.222,78.5,50.587ZM81.911,41.1a9.927,9.927,0,0,1-.975,3.675c-.957,1.918-2.506,3.165-4.256,3.165-2.666,0-4.87-2.9-5.216-6.654a21.055,21.055,0,0,0,3.363-.845,21.13,21.13,0,0,0,5.06-2.765l.041-.03s.049.072.121.193c.241.414.758,1.648-.22,2.212l1.781.227h.033l.326.06A5.851,5.851,0,0,1,81.911,41.1Z" transform="translate(-18.996 -28.423)" fill="rgba(94,136,218,0.1)" stroke="#5e88da" stroke-width="1"/>
        <path id="Path_107" data-name="Path 107" d="M60.789,56.688c-.018-.171-.037-.341-.063-.511-.016-.108-.039-.213-.059-.319-.029-.147-.057-.295-.091-.439-.027-.114-.058-.227-.089-.34-.036-.131-.074-.263-.115-.393s-.079-.237-.12-.354-.087-.235-.135-.352-.1-.244-.154-.364c-.047-.1-.1-.2-.145-.306-.063-.128-.125-.256-.193-.381-.045-.08-.093-.16-.139-.241-.08-.14-.162-.278-.248-.414-.024-.036-.05-.072-.075-.109a10.155,10.155,0,0,0-1.771-2.022l-.01-.009c-.167-.145-.34-.285-.517-.42l-.044-.034c-.174-.132-.352-.256-.534-.376l-.053-.035q-.276-.18-.565-.341l-.042-.023c-.2-.11-.4-.214-.607-.311h0a10.025,10.025,0,0,0-1.248-.494c1.738.194,3.263.494,3.263.494A4.258,4.258,0,0,1,56,47.781c-2.412-2.543-2.343-7.936-2.343-7.936.606-13.252-8.14-12.559-8.14-12.559l-.009.02-.006-.021s-8.746-.693-8.139,12.559c0,0,.068,5.38-2.335,7.926a4.246,4.246,0,0,1-1.043.822s.934-.063,2.181-.087c-.06.027-.118.059-.177.087h0a10.133,10.133,0,0,0-2.873,2.024l0,0c-.163.164-.322.334-.473.509l-.019.022c-.146.169-.288.343-.422.523-.012.016-.022.032-.035.049-.128.172-.251.347-.367.526-.019.029-.035.059-.053.087-.108.17-.212.341-.31.517-.023.043-.043.087-.067.129-.089.166-.176.333-.255.5-.028.059-.05.12-.077.179-.07.158-.14.316-.2.478-.03.077-.053.157-.081.235-.052.148-.107.3-.152.447-.029.1-.052.2-.078.294-.036.137-.077.272-.108.41-.026.118-.046.241-.068.362s-.049.241-.067.362c-.022.151-.036.3-.051.457-.01.1-.024.19-.032.287-.019.25-.029.5-.029.759,0,.23.01.444.026.653,0,.053.009.106.013.158.018.19.04.373.071.545,0,.012,0,.025.005.038a5.259,5.259,0,0,0,.123.514c.012.041.025.08.037.12a4.192,4.192,0,0,0,.153.407c.007.015.012.032.019.048a3.514,3.514,0,0,0,.213.393c.018.029.038.057.057.087a3.2,3.2,0,0,0,.225.3c.013.015.025.032.038.046a3.039,3.039,0,0,0,.3.286c.024.02.05.04.075.06a3.154,3.154,0,0,0,.289.207l.059.039a3.584,3.584,0,0,0,.371.2c.029.014.059.026.088.039.111.049.227.093.346.133l.081.029c.142.046.288.085.438.121.032.008.066.015.1.022.128.028.26.053.4.077.036.005.07.012.106.017.161.024.326.046.494.063l.113.011c.142.013.288.024.435.033l.132.009q.266.014.543.02l.121,0q.233,0,.475,0l.085,0h.058c.279,0,.565,0,.857-.01l.112,0,.921-.022c.337-.008.681-.016,1.03-.022l.055,0c.352-.006.709-.011,1.071-.011h10.43c.362,0,.719,0,1.071.011l.056,0c.347.006.691.014,1.026.022l.924.022.112,0c.291.006.577.009.856.01h.058l.085,0q.241,0,.474,0l.121,0q.276-.007.541-.02l.136-.009c.145-.009.289-.02.431-.033l.117-.011c.167-.017.331-.038.49-.062l.113-.019c.131-.022.261-.046.386-.074l.107-.023c.149-.036.294-.076.433-.12l.09-.031q.173-.059.336-.13c.031-.014.063-.026.1-.041a3.927,3.927,0,0,0,.367-.193l.066-.043a3.3,3.3,0,0,0,.281-.2l.08-.063a2.97,2.97,0,0,0,.293-.283c.015-.016.028-.035.043-.052a3.046,3.046,0,0,0,.219-.289c.02-.03.041-.06.06-.091a3.264,3.264,0,0,0,.211-.389c.009-.017.015-.036.022-.053a4.1,4.1,0,0,0,.151-.4c.013-.041.026-.08.038-.122a5.021,5.021,0,0,0,.122-.512c0-.014,0-.028.006-.041.031-.172.053-.354.07-.543,0-.052.01-.1.014-.159.015-.208.026-.422.026-.652,0-.27-.013-.535-.033-.8C60.811,56.867,60.8,56.778,60.789,56.688Zm-9.389-8.1a2.661,2.661,0,0,1-.227.347.3.3,0,0,0-.019.025,3.551,3.551,0,0,1-.647.629l-.022.018c-.123.093-.256.183-.4.269l-.055.033c-.143.085-.292.168-.449.244l0,0c-.153.075-.315.145-.482.21l-.08.032c-.163.063-.333.121-.507.175l-.1.03c-.181.053-.367.1-.558.147l-2.342,3.809-2.343-3.807a5.28,5.28,0,0,1-3.548-2.16,9.075,9.075,0,0,1,2.073.374,2.149,2.149,0,0,1,.528.258.86.86,0,0,1,.239.233l-.073-.162L41.165,46.58a5.784,5.784,0,0,0,8.6.084l-.9,1.874c.2-.333.781-.5,1.538-.565a10.966,10.966,0,0,1,1.227-.031A2.069,2.069,0,0,1,51.4,48.593Zm.833-10.034a12.777,12.777,0,0,1-1.254,4.726c-1.231,2.466-3.223,4.069-5.472,4.069-3.428,0-6.261-3.725-6.706-8.555a27.023,27.023,0,0,0,4.323-1.087,27.165,27.165,0,0,0,6.506-3.554l.053-.038s.063.092.155.249c.309.532.975,2.118-.282,2.844l2.29.292h.042l.419.077A7.289,7.289,0,0,1,52.233,38.559Z" transform="translate(-10.699 -27.279)" fill="rgba(94,136,218,0.1)" stroke="#5e88da" stroke-width="1"/>
      </g>
    </g>
  </g>
</svg>
