<svg xmlns="http://www.w3.org/2000/svg" width="478.025" height="313.715" viewBox="0 0 478.025 313.715">
  <g id="Group_4317" data-name="Group 4317" transform="translate(-32.051 -22.493)">
    <path id="Path_5446" data-name="Path 5446" d="M517.638,218.966c-1.836,17.973-9.172,35.326-20.818,48.165-13.265,14.617-31.57,21.727-49.974,23.719-21.955,2.373-43.8-2.4-65.141-7.572-22.737-5.514-45.452-10.632-68.7-12.7a243.214,243.214,0,0,0-70.047,3.5c-11.436,2.315-22.752,5.292-34.1,8.111-10.721,2.662-21.638,5.688-32.608,6.688-9.751.885-18.99-1.381-26.792-8.027-7.141-6.076-12.166-14.608-15.033-23.959-4.664-15.228-4.319-32.118-1.181-48.033a121.931,121.931,0,0,1,12.572-40.047,178.988,178.988,0,0,1,35.814-47.917A191.594,191.594,0,0,1,282.947,70.254c42.653-7.011,86.7.033,126.762,17.064,36.136,15.352,71.431,39.7,93.687,75.331a97.494,97.494,0,0,1,12.632,29.308A82.863,82.863,0,0,1,517.638,218.966Z" transform="translate(-28.393 -12.946)" fill="#eaeaea"/>
    <g id="Group_4296" data-name="Group 4296" transform="translate(32.051 22.493)">
      <g id="Group_4288" data-name="Group 4288" transform="translate(61.67 86.374)">
        <path id="Path_5447" data-name="Path 5447" d="M217.711,180.154a32.036,32.036,0,0,1-2.527,8.907,101.64,101.64,0,0,1-6.033,13.583c-7.349,14.329-17.079,27.428-27.744,39.452-4.064,4.58-8.729,9.223-14.456,11.624-.148.074-.306.137-.453.2-.579.242-1.169.442-1.738.621-5.664,1.7-11.95,2.327-17.4.021s-9.676-8.181-8.581-14a3.511,3.511,0,0,0,.042-2c-.453-1.031-1.8-1.2-2.917-1.3a21.041,21.041,0,0,1-11.74-4.537,15.006,15.006,0,0,1-5.549-10.8,2.345,2.345,0,0,1-.011-.274,14.182,14.182,0,0,1,.589-5c1.327-4.348,4.286-7.9,7.16-11.319,3.19-3.822,6.1-7.718,7.065-12.719.684-3.517.2-7.044-.043-10.582a.021.021,0,0,1,0-.032,29.083,29.083,0,0,1-.137-5.969,18.127,18.127,0,0,1,8.95-13.709c5.728-3.243,12.709-3.085,19.047-4.822,7.707-2.117,14.319-6.981,21.553-10.361s16.11-5.191,22.985-1.116c5.2,3.085,8.149,8.9,9.94,14.667A45.291,45.291,0,0,1,217.711,180.154Z" transform="translate(-118.574 -143.675)" fill="#363149"/>
        <path id="Path_5448" data-name="Path 5448" d="M185.378,230.359l-1.169.063v-.032q-6.412-4.564-12.7-9.265a20.233,20.233,0,0,1,1.948-1.969c5.518-4.843,13.835-6.738,17.31-13.193a29.664,29.664,0,0,0,11.519,14.372q-.458,4.28-1.242,8.5-6.4.837-12.825,1.326C187.273,230.233,186.325,230.3,185.378,230.359Z" transform="translate(-133.779 -161.566)" fill="#1b163a"/>
        <path id="Path_5449" data-name="Path 5449" d="M208.649,146.134c-1.127,5.541-7.362,7.32-12.03,8.761-4.881,1.507-10.051,3.129-13.61,7.014a13.519,13.519,0,0,0-3.254,6.427,52.115,52.115,0,0,0-.676,7.927,25.218,25.218,0,0,1-1.263,7.019,22.908,22.908,0,0,1-3.1,5.88,21.355,21.355,0,0,1-12.147,8.294c-.659.158-.379,1.173.28,1.015,8.795-2.109,15.67-10.051,16.975-18.938.761-5.187-.277-10.993,2.867-15.556,3.111-4.515,8.635-6.345,13.625-7.888,5.173-1.6,12.092-3.512,13.347-9.675C209.8,145.753,208.784,145.47,208.649,146.134Z" transform="translate(-131.103 -144.272)" fill="#1b163a"/>
        <path id="Path_5450" data-name="Path 5450" d="M165.6,166.4A35.266,35.266,0,0,1,154,189.938a33.515,33.515,0,0,1-6.158,4.388c-.592.329-.062,1.24.532.91a36.334,36.334,0,0,0,16.878-21.121,34.908,34.908,0,0,0,1.4-7.711C166.694,165.728,165.641,165.731,165.6,166.4Z" transform="translate(-126.906 -150.058)" fill="#1b163a"/>
        <path id="Path_5451" data-name="Path 5451" d="M169.588,275.647a13.178,13.178,0,0,1-6.43.644,17.289,17.289,0,0,1-6-1.522c-3.209-1.634-4.867-5.043-5.138-8.528a14.864,14.864,0,0,1,.029-2.629c.074-.744.445-1.7-.014-2.381-.476-.7-1.515-.7-2.269-.8-.958-.139-1.918-.271-2.873-.429-3.674-.607-7.6-1.675-9.789-4.954-2.639-3.955-1.937-9.035.851-12.7.41-.539-.5-1.064-.909-.531A12.19,12.19,0,0,0,135.13,253.5c1.491,3.8,4.817,5.953,8.653,6.934a58.144,58.144,0,0,0,6.012,1.051c.326.048,1.058.021,1.305.268.288.289-.038,1.291-.081,1.672a14.9,14.9,0,0,0-.055,2.721,11.559,11.559,0,0,0,4.714,8.975,15.577,15.577,0,0,0,6.661,2.122,14.747,14.747,0,0,0,7.529-.582C170.487,276.411,170.216,275.393,169.588,275.647Z" transform="translate(-123.115 -171.798)" fill="#1b163a"/>
      </g>
      <g id="Group_4289" data-name="Group 4289" transform="translate(165.125)">
        <path id="Path_5452" data-name="Path 5452" d="M286.651,46.436l-.579-.126c-4.927-5.56-13.551-6.318-18.984-11.382-.3-.274-.6-.716-.358-1.042a.884.884,0,0,1,.526-.253,18.808,18.808,0,0,1,7.276-.095,9.951,9.951,0,0,1,9.876-11.045c-1.748,3.317-4.748,6.433-4.254,10.14l.537.052c-.031,2.064,2.274,4.138,3.865,5.012a14.811,14.811,0,0,0,7.518,1.485,5.137,5.137,0,0,0,2.8-.664,2.15,2.15,0,0,0,.4-.347,5.791,5.791,0,0,1,3.453,2.6,7.106,7.106,0,0,1,.716,5.381,9.416,9.416,0,0,1-2.17,3.98q-4.548,77.831-14.488,155.209l-.158.063c-.4-1.085-.842-2.148-1.3-3.212a318.179,318.179,0,0,0-17.615-35.514q.758-.158,1.516-.348C274.711,126.847,277.922,86.089,286.651,46.436Z" transform="translate(-263.719 -22.493)" fill="#ffbe92"/>
        <path id="Path_5453" data-name="Path 5453" d="M302.114,40.432a2.15,2.15,0,0,1-.4.347,5.138,5.138,0,0,1-2.8.664,14.811,14.811,0,0,1-7.518-1.485c-1.59-.874-3.9-2.948-3.865-5.012a2.394,2.394,0,0,1,.158-.852c.779-2.158,4.128-3.769,6.255-3.727a7.961,7.961,0,0,1,2.822.674,13.847,13.847,0,0,1,3.948,2.537,7.015,7.015,0,0,1,2.253,3.464A3.7,3.7,0,0,1,302.114,40.432Z" transform="translate(-270.559 -24.754)" fill="#e0905a"/>
      </g>
      <g id="Group_4290" data-name="Group 4290" transform="translate(71.29 144.186)">
        <path id="Path_5454" data-name="Path 5454" d="M245.921,282.42c-1,5.465-2.359,10.866-3.748,16.247l.137.031q-.348,20.721-.684,41.422c-.3,18.12-.6,36.3-3.422,54.193l-.211-.032H132.143l-.073-.158c8.886-30.829,26.754-58.152,43.948-85.243a2.862,2.862,0,0,0,.506-1.127c.263-2.053-3.527-2.8-3.327-4.854.115-1.242,1.632-1.769,2.874-1.906s2.748-.326,3.264-1.463q-2.511-2.148-5.023-4.274a12.919,12.919,0,0,1,7.108-1.938l.01-.347c-2.527-5.538-5.285-10.972-8.181-16.331.095-.473.18-.958.264-1.442v-.011a130.562,130.562,0,0,0,.537-39.421c.948-.063,1.9-.126,2.843-.2v.042a235.464,235.464,0,0,0,25.848,25.386c1.453,1.232,3.338,2.517,5.1,1.8a4.7,4.7,0,0,0,1.969-1.853c2.074-3.106,3.043-6.812,3.98-10.445q3.127-12.209,6.275-24.417l-.01-.085c1.958-.358,3.917-.768,5.854-1.21A318.192,318.192,0,0,1,243.52,260.3c.453,1.063.895,2.127,1.3,3.212a30.828,30.828,0,0,1,1.8,6.4A37.376,37.376,0,0,1,245.921,282.42Z" transform="translate(-132.07 -224.784)" fill="#3897f1"/>
        <path id="Path_5455" data-name="Path 5455" d="M214.053,327.435c13.025,2,26.46.863,39.695,1.031a43.307,43.307,0,0,1-8.907,5.507c1.674.684,3.338,1.358,5.012,2.043a2.367,2.367,0,0,1,1.432,1.063,1.625,1.625,0,0,1-.716,1.874,4.6,4.6,0,0,1-2.074.6c-14.3,1.811-29.345,2.453-42.6-3.211,5.707-3.612,13.856-.011,19.7-3.4-3.843-.168-7.665-.453-11.488-.863a27.187,27.187,0,0,1-8.455-1.9,2.325,2.325,0,0,1-1.148-.863,1.778,1.778,0,0,1,.969-2.316,5.069,5.069,0,0,1,2.78-.21c1.9.21,3.8.421,5.7.621C213.979,327.424,214.021,327.424,214.053,327.435Z" transform="translate(-152.827 -254.058)" fill="#0076e5"/>
      </g>
      <g id="Group_4291" data-name="Group 4291" transform="translate(116.112 90.477)">
        <path id="Path_5456" data-name="Path 5456" d="M238.124,204.435q-3.142,12.208-6.275,24.416c-.937,3.633-1.906,7.339-3.98,10.445a4.7,4.7,0,0,1-1.969,1.853c-1.758.716-3.643-.569-5.1-1.8a235.474,235.474,0,0,1-25.848-25.386v-.042q6.428-.49,12.824-1.326.79-4.217,1.242-8.5A29.664,29.664,0,0,1,197.5,189.726c.011-.021.021-.031.032-.053,3.148-5.907.927-13.34,3-19.7a15.266,15.266,0,0,1,7.044-8.55c3.106-1.726,6.739-2.306,9.866-3.979,2.959-1.579,5.56-4.759,5-7.982l.21-.031a81.1,81.1,0,0,0,8.56,22.027,4.792,4.792,0,0,1,3.306-.168,3.885,3.885,0,0,1,1.9,3.253,9.112,9.112,0,0,1-3.127,7.813,4.325,4.325,0,0,1-1.316.8,24.492,24.492,0,0,1-3.8,11.592,24.31,24.31,0,0,1,1.853,4.1c.073.21.147.411.221.61a39.557,39.557,0,0,0,2.369,5.875c1.832-.294,3.674-.621,5.5-.979Z" transform="translate(-194.955 -149.431)" fill="#ffbe92"/>
        <path id="Path_5457" data-name="Path 5457" d="M232.23,218.253h0c-.305,1.654-.336,3.622-1.242,5.054a6.93,6.93,0,0,1-3.9,3.053,7.674,7.674,0,0,1-3.284.084,12.589,12.589,0,0,1-5.6-2.411l.042-.179a12.815,12.815,0,0,0,13.982-5.6Z" transform="translate(-201.633 -169.199)" fill="#e0905a"/>
      </g>
      <g id="Group_4292" data-name="Group 4292" transform="translate(0 64.093)">
        <path id="Path_5458" data-name="Path 5458" d="M146.2,242.91v.011a5,5,0,0,1-.695.632c-2.264-4.2-4.612-8.36-6.981-12.5-.253-.453-.516-.895-.768-1.347q-5.4-5.26-10.729-10.6-11.64-11.64-22.891-23.68-6.933-7.391-13.7-14.92l-.148.137c-9.15-4.9-16.52-12.519-23.459-20.226-7.265-8.065-14.245-16.383-21.079-24.817-3.422-1.053-6.212-3.685-8.781-6.275a13.491,13.491,0,0,0,3.611-1.706c3.233-1.99,9.414-7.6,7.1-11.855a5.341,5.341,0,0,1,2.906-3.212,1.869,1.869,0,0,1,2.2.527,2.35,2.35,0,0,1,.253,1.148,51.165,51.165,0,0,1-1.2,13.572l-.042.042a175.131,175.131,0,0,0,14.193,12.719c14.688,12.235,29.4,24.491,44.369,36.367q11.135,8.828,22.511,17.331,6.3,4.706,12.7,9.265v.032l1.169-.063A130.562,130.562,0,0,1,146.2,242.91Z" transform="translate(-33.463 -112.415)" fill="#ffbe92"/>
        <path id="Path_5459" data-name="Path 5459" d="M46.263,116.033c2.316,4.254-3.865,9.865-7.1,11.855a13.485,13.485,0,0,1-3.612,1.706,6.177,6.177,0,0,1-1.168.2,2.436,2.436,0,0,1-1.569-.326c-.8-.558-.842-1.727-.706-2.7.632-4.5,6.686-16.983,12.656-12.424A5.362,5.362,0,0,1,46.263,116.033Z" transform="translate(-32.051 -112.687)" fill="#e0905a"/>
      </g>
      <path id="Path_5460" data-name="Path 5460" d="M280.812,261.983c-3.177-4.766-8.031-8.487-12.582-11.864-10.664-7.915-23.082-14.489-30.173-26.181A1.054,1.054,0,0,0,236.239,225c5.658,9.329,14.714,15.649,23.535,21.717a130.114,130.114,0,0,1,13.646,10.294c3.753,3.386,8.859,8.206,7.262,13.83-1.39,4.9-6.654,7.824-11.116,9.408a35.832,35.832,0,0,1-15.888,1.72c-10.688-1.176-20.244-6.832-27.5-14.6a62.123,62.123,0,0,1-9.972-14.408c-3.018-5.987-4.973-12.605-4.143-19.354.165-1.342-1.942-1.33-2.105,0-1.442,11.709,4.954,23.449,12.119,32.253,6.974,8.57,16.473,15.285,27.4,17.56a39.792,39.792,0,0,0,16.664,0c5.1-1.127,10.534-3.388,14-7.445C283.729,271.788,283.847,266.535,280.812,261.983Z" transform="translate(-83.094 -80.211)" fill="#4c49d6"/>
      <path id="Path_5461" data-name="Path 5461" d="M253.625,247.644a127.141,127.141,0,0,1-8.26-10.984,102.178,102.178,0,0,1-6.643-11.761q-.72-1.5-1.389-3.015c-.233-.527-.922-.214-.952.271a.508.508,0,0,0-.023.3,62.72,62.72,0,0,0,8.083,19.156,99.975,99.975,0,0,1,5.627,9.252c1.517,3.1,2.665,6.663,2.281,10.153-.817,7.425-10.739,7.186-15.981,5.362-6.337-2.2-11.334-7.307-14.957-12.8-4.091-6.205-6.661-13.256-8.782-20.337a.527.527,0,0,0-1.016.279c.07.232.144.464.214.7a.509.509,0,0,0-.221.556c1.917,8.51,5,16.895,10.055,24.067a42.312,42.312,0,0,0,17.848,14.852c4.01,1.686,8.451,2.714,12.8,1.979a13.165,13.165,0,0,0,8.946-5.736C266.184,262.109,258.348,253.389,253.625,247.644Zm.991,26.32c-4.035,1.523-8.54.932-12.534-.417a39.7,39.7,0,0,1-18.225-13.5,55.656,55.656,0,0,1-7.954-14.522,59.914,59.914,0,0,0,3.648,7.081c3.523,5.79,8.381,11.236,14.671,14.041a20.283,20.283,0,0,0,10.277,1.8c2.858-.3,5.884-1.327,7.619-3.758,2-2.8,1.49-6.829.6-9.93a38.078,38.078,0,0,0-4.944-9.94,91.831,91.831,0,0,1-6.348-10.888,59.737,59.737,0,0,1-2.471-6.231,103.133,103.133,0,0,0,10.629,16.62c2.749,3.5,5.739,6.823,8.271,10.493,2.324,3.371,4.652,7.563,3.663,11.8A10.9,10.9,0,0,1,254.616,273.964Z" transform="translate(-83.62 -79.686)" fill="#fff794"/>
      <g id="Group_4293" data-name="Group 4293" transform="translate(135.568 44.296)">
        <path id="Path_5462" data-name="Path 5462" d="M254.62,93.466c.485.316,1.011.748,1,1.327,0,.674-.737,1.126-1.411,1.115a5.874,5.874,0,0,1-1.906-.537c-.263-.095-.611-.148-.758.084a.6.6,0,0,0-.085.358c-.052,1.78-.116,3.559-.168,5.339-1.074-.031-1.621-1.284-1.9-2.327-.4-1.453-.79-2.917-1.179-4.369a40.738,40.738,0,0,1-6.234,3.506,1.344,1.344,0,0,1-1.158.137c-1.79-.927,1.821-3.264,2.053-3.875.569-1.5.116-.527-.642-1.516-.369-.474-1.969-1.127-.948-2.022a1.485,1.485,0,0,1,.738-.263,6.253,6.253,0,0,1,3.927.821,40.778,40.778,0,0,1-1.011-5.949c-.021-.242-.01-.537.211-.632.2-.084.411.073.569.232a8.688,8.688,0,0,1,2.463,5.748q2.843-2.132,5.76-4.148c.316-.221.747-.442,1.053-.21a.786.786,0,0,1,.242.621,4,4,0,0,1-1.369,2.98,11.93,11.93,0,0,1-2.842,1.8A17.564,17.564,0,0,1,254.62,93.466Z" transform="translate(-227.444 -84.64)" fill="#ffb743"/>
        <path id="Path_5463" data-name="Path 5463" d="M222.251,133.68q9.555-13.883,19.089-27.765a231.853,231.853,0,0,0,1.569,33A27.177,27.177,0,0,1,222.251,133.68Z" transform="translate(-222.251 -90.751)" fill="#008744"/>
        <path id="Path_5464" data-name="Path 5464" d="M244.038,144.6a22.606,22.606,0,0,1-15.813-7.4c-.455-.5-1.2.242-.745.744a23.666,23.666,0,0,0,16.558,7.711C244.716,145.674,244.715,144.621,244.038,144.6Z" transform="translate(-223.712 -99.687)" fill="#ffb743"/>
        <path id="Path_5465" data-name="Path 5465" d="M245.058,136.618a24.823,24.823,0,0,1-11.983-7.155c-.462-.5-1.205.248-.745.745a25.847,25.847,0,0,0,12.448,7.426A.527.527,0,0,0,245.058,136.618Z" transform="translate(-225.105 -97.468)" fill="#ffb743"/>
        <path id="Path_5466" data-name="Path 5466" d="M245.809,128.979a15.729,15.729,0,0,1-8.583-5.772c-.4-.537-1.314-.013-.909.532a16.869,16.869,0,0,0,9.212,6.255A.527.527,0,0,0,245.809,128.979Z" transform="translate(-226.262 -95.653)" fill="#ffb743"/>
        <path id="Path_5467" data-name="Path 5467" d="M246.667,122.106a.557.557,0,0,0-.577-.118l-.115-.059q-.155-.083-.309-.17-.325-.184-.642-.381-.653-.407-1.268-.872a16.685,16.685,0,0,1-2.2-2.016c-.459-.5-1.2.247-.744.745a17.961,17.961,0,0,0,2.694,2.39,17.2,17.2,0,0,0,1.475.957c.461.267,1.215.808,1.684.269A.54.54,0,0,0,246.667,122.106Z" transform="translate(-227.542 -94.316)" fill="#ffb743"/>
        <path id="Path_5468" data-name="Path 5468" d="M247.655,116.263a8.371,8.371,0,0,1-.9-.545c-.07-.049-.139-.1-.208-.15-.022-.016-.093-.071-.036-.026l-.1-.08c-.14-.113-.277-.23-.409-.351a8.3,8.3,0,0,1-.712-.739c-.056-.066-.11-.131-.163-.2,0,0-.1-.129-.044-.056l-.076-.1c-.107-.145-.207-.294-.305-.445a.526.526,0,1,0-.909.532,8.891,8.891,0,0,0,3.332,3.071.526.526,0,1,0,.531-.909Z" transform="translate(-228.417 -92.874)" fill="#ffb743"/>
        <path id="Path_5469" data-name="Path 5469" d="M248.417,110.13c-.051-.016-.1-.036-.149-.056a2.642,2.642,0,0,1-1.057-.813l.034.045a.567.567,0,0,0-.309-.237.539.539,0,0,0-.406.053.533.533,0,0,0-.242.315.514.514,0,0,0,.053.406,3.811,3.811,0,0,0,.837.828,3.444,3.444,0,0,0,.959.475.53.53,0,0,0,.647-.368A.538.538,0,0,0,248.417,110.13Z" transform="translate(-229.15 -91.652)" fill="#ffb743"/>
      </g>
      <g id="Group_4295" data-name="Group 4295" transform="translate(116.299 109.213)">
        <path id="Path_5470" data-name="Path 5470" d="M219.412,201.266a.54.54,0,0,0-.648-.368,24.7,24.7,0,0,1-2.919.244q-.384.01-.768.008c-.128,0-.256,0-.383-.006h-.023c.01-.3-.063-1.252-.068-1.365q-.11-2.958-.221-5.917c-.025-.676-1.078-.679-1.053,0q.131,3.5.261,6.993c.017.454,0,.954.447,1.209a3.127,3.127,0,0,0,1.5.138,26.983,26.983,0,0,0,3.506-.287A.531.531,0,0,0,219.412,201.266Z" transform="translate(-200.42 -180.783)" fill="#e0905a"/>
        <path id="Path_5471" data-name="Path 5471" d="M213.328,210.869l10.7-3.454s1.916,5.773-2.887,7.145S213.328,210.869,213.328,210.869Z" transform="translate(-200.419 -184.822)" fill="#fff"/>
        <path id="Path_5472" data-name="Path 5472" d="M230.769,184.2a.539.539,0,0,0-.647.367c-.442,1.1-.344,2.957-1.743,3.33-1.5.4-2.749-.912-3.682-1.882-.47-.489-1.215.256-.744.745,1.224,1.272,2.79,2.664,4.706,2.153a2.673,2.673,0,0,0,1.78-1.65c.32-.779.383-1.634.7-2.416A.529.529,0,0,0,230.769,184.2Z" transform="translate(-203.428 -178.147)" fill="#1b163a"/>
        <path id="Path_5473" data-name="Path 5473" d="M205.752,192.634a.54.54,0,0,0-.526.527c-.1.794-.269,1.966-1.159,2.209a2.779,2.779,0,0,1-1.319-.072,2.075,2.075,0,0,1-.537-.188.8.8,0,0,1-.346-.31c-.356-.575-1.267-.047-.909.531a2.285,2.285,0,0,0,1.421.96,3.946,3.946,0,0,0,1.969.095,2.36,2.36,0,0,0,1.407-1.175,5.674,5.674,0,0,0,.525-2.05A.529.529,0,0,0,205.752,192.634Z" transform="translate(-196.843 -180.577)" fill="#1b163a"/>
        <g id="Group_4294" data-name="Group 4294" transform="translate(19.268)">
          <path id="Path_5474" data-name="Path 5474" d="M226.943,180.265c-.123.025-.264.069,0,0Z" transform="translate(-223.556 -177.024)" fill="#1b163a"/>
          <path id="Path_5475" data-name="Path 5475" d="M230.254,176a16.1,16.1,0,0,0-6.836.185,1.6,1.6,0,0,0-1.1,1.943,1.612,1.612,0,0,0,1.943,1.1c.47-.117.963-.159,1.428-.282l-.047.012c.026-.006.052-.011.071-.013.13-.014.26-.027.39-.038q.362-.03.727-.041a13.939,13.939,0,0,1,1.455.031c.221.016.441.039.662.065l.03.006c.147.026.294.048.441.076a1.7,1.7,0,0,0,1.217-.16,1.58,1.58,0,0,0-.378-2.887Z" transform="translate(-222.251 -175.718)" fill="#1b163a"/>
        </g>
        <path id="Path_5476" data-name="Path 5476" d="M202.247,179.8A12.268,12.268,0,0,0,196,181.949a1.7,1.7,0,0,0-.726.944,1.58,1.58,0,0,0,2.32,1.783,10.951,10.951,0,0,1,1.106-.688c.163-.088.33-.172.5-.252.081-.039.163-.075.246-.111l.06-.024a10.807,10.807,0,0,1,2.278-.6c.156-.017.312-.036.469-.047a1.579,1.579,0,1,0,0-3.158Z" transform="translate(-195.218 -176.888)" fill="#1b163a"/>
        <circle id="Ellipse_236" data-name="Ellipse 236" cx="4.494" cy="4.494" r="4.494" transform="translate(25.669 12.571)" fill="#e0905a"/>
      </g>
    </g>
    <g id="Group_4306" data-name="Group 4306" transform="translate(317.554 64.979)">
      <g id="Group_4297" data-name="Group 4297" transform="translate(80.09 50.309)">
        <path id="Path_5477" data-name="Path 5477" d="M589.042,172.224a3.97,3.97,0,0,1,.621,2.643c-.011.221-.031.442-.063.663a9.278,9.278,0,0,1-5.422,7.139,27.754,27.754,0,0,1-7.728,15.077c-.021.453-.053.9-.063,1.348-.084,1.359-.137,2.727-.179,4.1q-.142,4.469-.115,8.939-5.418,4.091-10.824,8.192a5.514,5.514,0,0,0-1.758,1.8,3.278,3.278,0,0,0-.3,1.011,24.912,24.912,0,0,1-14.762-11.151c-.137-.2-.263-.411-.379-.621q1.374-4.769,2.7-9.55c.39-1.39.779-2.78,1.158-4.17.274-.979.547-1.959.81-2.938.148-.526.3-1.053.443-1.589a17.016,17.016,0,0,1-2.749-9.824,9.937,9.937,0,0,1-5.443-8.391,6.406,6.406,0,0,1,.716-3.349,4.049,4.049,0,0,1,.622-.842,4.153,4.153,0,0,1,4.37-.99,24.584,24.584,0,0,0,5.664-2.653c3.854-2.232,7.771-4.507,10.855-7.739-.453,1.179-.9,2.369-1.327,3.559-.127.358-.179.9.19,1a.665.665,0,0,0,.463-.095,24.1,24.1,0,0,0,6.412-4.811,24.2,24.2,0,0,0,5.033-6.255l.305-.042a34.127,34.127,0,0,0,8.666,18.763A2.034,2.034,0,0,1,589.042,172.224Z" transform="translate(-544.972 -152.682)" fill="#ffbe92"/>
        <path id="Path_5478" data-name="Path 5478" d="M576.822,216.123l.021.084a12.952,12.952,0,0,1-3.632,3.18,6.805,6.805,0,0,1-4.675.811,9.164,9.164,0,0,1-4.054-2.433,15.108,15.108,0,0,1-2.242-2.463,11,11,0,0,1-1.232-2.264l.052-.043a7.988,7.988,0,0,0,2.5,1.58C567.7,216.428,572.453,217.323,576.822,216.123Z" transform="translate(-549.578 -170.006)" fill="#e0905a"/>
      </g>
      <path id="Path_5479" data-name="Path 5479" d="M562.9,247.027a10.3,10.3,0,0,0-.115,1.411,220.639,220.639,0,0,1-2.264,26.2c-.969,6.675-2.253,13.329-2.579,20.079-.369,7.644.516,15.288,1.421,22.89q2.527,21.163,5.381,42.295a60.682,60.682,0,0,1-20.827,0c-.053-9.76,1.138-19.51,2.4-29.2q3.712-28.333,8.424-56.53a18.387,18.387,0,0,0,.3-6.644c-.632-3.085-2.769-5.58-4.644-8.107-2.822-3.79-5.222-8.118-5.538-12.835a15.949,15.949,0,0,1,3.285-10.709A24.912,24.912,0,0,0,562.9,247.027Z" transform="translate(-464.579 -126.27)" fill="#008744"/>
      <g id="Group_4298" data-name="Group 4298" transform="translate(49.676 228.27)">
        <path id="Path_5480" data-name="Path 5480" d="M545.1,423.144q-19.189,1.057-38.368,2.127l.011.21c.232.463-.6.653-1.085.474-.221-.074-.431-.158-.653-.253q.711-6.949,1.5-13.888c1.011-.084,2.011-.127,2.99-.158a188,188,0,0,1,23.354.811c-.073-1.579-.106-3.17-.106-4.749a60.679,60.679,0,0,0,20.827,0c.168,1.274.336,2.559.515,3.833q8.924-3.032,17.836-6.086c4.265-1.463,8.613-2.927,13.119-3.1a19.744,19.744,0,0,1,4.907.443,47.25,47.25,0,0,1,1.9,9.707c.074.674.148,1.359.211,2.043a275.128,275.128,0,0,1,1.274,30.756H547.765Q546.328,434.246,545.1,423.144Z" transform="translate(-503.079 -402.359)" fill="#006bd0"/>
        <path id="Path_5481" data-name="Path 5481" d="M546.988,453.694H502.44l-.137-.011q.9-9.808,1.927-19.605c.222.095.432.179.653.253.485.179,1.317-.011,1.085-.474l-.011-.21q19.189-1.074,38.368-2.127Q545.557,442.622,546.988,453.694Z" transform="translate(-502.303 -410.735)" fill="#192675"/>
      </g>
      <g id="Group_4299" data-name="Group 4299" transform="translate(68.213 42.001)">
        <path id="Path_5482" data-name="Path 5482" d="M585.382,196.01a7.008,7.008,0,0,1-2.138,2.4c-1.664,1.073-3.8.916-5.77.716a17.843,17.843,0,0,0,2.264-7.3,18.761,18.761,0,0,1-8.192,8.013h-.126c.053-1.822.137-3.633.242-5.444a27.753,27.753,0,0,0,7.729-15.077,9.278,9.278,0,0,0,5.422-7.139c.032-.221.053-.442.064-.663a3.971,3.971,0,0,0-.621-2.643,2.034,2.034,0,0,0-2.095-.779,34.129,34.129,0,0,1-8.666-18.763l-.3.042a24.2,24.2,0,0,1-5.033,6.255,24.1,24.1,0,0,1-6.412,4.811.665.665,0,0,1-.463.095c-.369-.1-.316-.642-.19-1,.431-1.19.874-2.38,1.326-3.559-3.085,3.232-7,5.507-10.855,7.739a24.585,24.585,0,0,1-5.664,2.653,4.153,4.153,0,0,0-4.37.99,4.051,4.051,0,0,0-.622.842,6.406,6.406,0,0,0-.716,3.349,9.937,9.937,0,0,0,5.443,8.391,17.015,17.015,0,0,0,2.748,9.824c-.411,1.516-.832,3.021-1.253,4.527l-.106-.031a10.924,10.924,0,0,1-3.422-6.96c-.347,1.8-.695,3.612-1.032,5.412l-3.264.126a1.382,1.382,0,0,1-1.674-1.2,22.338,22.338,0,0,1-1.095-6.6q-1.185,3.08-2.369,6.17a1.423,1.423,0,0,1-.484.737,1.359,1.359,0,0,1-.937.073c-.726-.095-1.443-.2-2.169-.305a2.819,2.819,0,0,1-1.211-.368,2.525,2.525,0,0,1-.905-1.748c-.642-3.738.821-7.528,2.8-10.75s4.507-6.107,6.307-9.423q.457-.837.852-1.706c1.875-4.053,2.927-8.466,4.9-12.477a30.007,30.007,0,0,1,6.391-8.6c.379-.347.768-.695,1.158-1.021a19.382,19.382,0,0,1,7.181-4.011c3.748-1.053,7.781-.547,11.529.537a26.524,26.524,0,0,1,6.959,3,23.55,23.55,0,0,1,9.14,11.413,32.7,32.7,0,0,1,1.9,14.625c-.032.432-.085.852-.127,1.284a38.331,38.331,0,0,0-.369,5.8c.116,2.326.727,4.612.906,6.938A18.418,18.418,0,0,1,585.382,196.01Z" transform="translate(-528.309 -141.027)" fill="#363149"/>
        <path id="Path_5483" data-name="Path 5483" d="M573.357,144.3a50.513,50.513,0,0,1-20.749,17.9,49.228,49.228,0,0,1-7.4,2.751.527.527,0,0,0,.28,1.015,51,51,0,0,0,11.343-4.784c-.005.016-.008.033-.014.049a4.846,4.846,0,0,1,1.56-.953c.177-.094.364-.171.548-.253-.067.007-.134.01-.2.018a51.537,51.537,0,0,0,10.665-8.922,50.951,50.951,0,0,0,4.871-6.29C574.639,144.264,573.728,143.736,573.357,144.3Z" transform="translate(-533.058 -141.898)" fill="#1b163a"/>
        <path id="Path_5484" data-name="Path 5484" d="M569.81,142.087a41.608,41.608,0,0,1-19.667,12.751.527.527,0,0,0,.28,1.016,42.614,42.614,0,0,0,20.132-13.022C570.994,142.32,570.252,141.573,569.81,142.087Z" transform="translate(-534.474 -141.282)" fill="#1b163a"/>
      </g>
      <g id="Group_4300" data-name="Group 4300" transform="translate(62.973 16.844)">
        <path id="Path_5485" data-name="Path 5485" d="M537.665,123.763q11.5,6.681,23.006,13.352A39.343,39.343,0,0,1,546.246,151.7l-.095-.168C543.119,142.337,540.087,133.134,537.665,123.763Z" transform="translate(-525.757 -110.911)" fill="#d62d20"/>
        <path id="Path_5486" data-name="Path 5486" d="M533.087,110.867a12.649,12.649,0,0,1,4.243-1.517c.326-.063.769-.031.864.284.063.242-.127.474-.306.642a18.007,18.007,0,0,1-5.644,3.7c2.1.485,4.339,1.074,5.665,2.759a9.425,9.425,0,0,1-4.686.095A9.221,9.221,0,0,1,529.9,115.3c-.1,2.505-.232,5.128-1.485,7.286-.21.358-.568.737-.958.611-.337-.116-.432-.547-.453-.9a17.067,17.067,0,0,1,.011-2.937c.053-.558.516-1.78.284-2.316-.3-.684-3.622.21-4.465.252a2.547,2.547,0,0,1-1.264-.168.975.975,0,0,1-.589-1.032,1.33,1.33,0,0,1,.453-.621,5.848,5.848,0,0,1,5.528-1.116,24.952,24.952,0,0,1-1.632-3.485,2.515,2.515,0,0,1-.232-1.263,1.058,1.058,0,0,1,.274-.59.751.751,0,0,1,.547-.274,1.274,1.274,0,0,1,.79.337,4.975,4.975,0,0,1,1.7,2.727,27.322,27.322,0,0,1,2.811-5.465c.221-.336.579-.726.969-.589.369.116.442.589.453.969a15.465,15.465,0,0,1-.737,4.9A10.826,10.826,0,0,1,533.087,110.867Z" transform="translate(-520.958 -105.732)" fill="#1f1f1f"/>
        <path id="Path_5487" data-name="Path 5487" d="M543.61,127.4a.538.538,0,0,0-.721.188q-.07.11-.146.216c-.026.036-.051.071-.078.1l-.006.01-.023.028c-.1.128-.213.252-.329.371s-.235.232-.359.34a3.093,3.093,0,0,1-.346.271,5.648,5.648,0,0,1-.856.5l-.118.053-.015.007-.028.011c-.081.031-.162.062-.244.091-.164.057-.331.1-.5.146a.527.527,0,0,0,.279,1.016,6.183,6.183,0,0,0,3.678-2.628A.53.53,0,0,0,543.61,127.4Z" transform="translate(-526.27 -111.936)" fill="#363149"/>
        <path id="Path_5488" data-name="Path 5488" d="M548.951,131.186a.532.532,0,0,0-.721.189,9.03,9.03,0,0,1-2.413,2.891c-.467.4-.938.81-1.437,1.173a3.384,3.384,0,0,1-1.7.751c-.672.047-.677,1.1,0,1.053,1.495-.105,2.641-1.178,3.73-2.1a10.05,10.05,0,0,0,2.729-3.233A.541.541,0,0,0,548.951,131.186Z" transform="translate(-527.052 -113.023)" fill="#363149"/>
        <path id="Path_5489" data-name="Path 5489" d="M554.177,135.689a20.308,20.308,0,0,1-9.312,7.923c-.617.258-.346,1.277.279,1.016a21.506,21.506,0,0,0,9.942-8.408C555.446,135.645,554.536,135.116,554.177,135.689Z" transform="translate(-527.725 -114.266)" fill="#363149"/>
        <path id="Path_5490" data-name="Path 5490" d="M560.586,140.261a26.689,26.689,0,0,1-12.639,10.483c-.623.247-.351,1.266.28,1.016a27.887,27.887,0,0,0,13.268-10.967C561.859,140.218,560.948,139.689,560.586,140.261Z" transform="translate(-528.609 -115.579)" fill="#363149"/>
      </g>
      <g id="Group_4301" data-name="Group 4301" transform="translate(25.818 94.183)">
        <path id="Path_5491" data-name="Path 5491" d="M533.173,267.957q-4.706,28.191-8.423,56.53c-1.263,9.687-2.453,19.437-2.4,29.2,0,1.579.032,3.17.105,4.749a187.986,187.986,0,0,0-23.353-.811c-.979.031-1.98.074-2.991.158-5.117.378-10.308,1.579-13.477,5.433a.1.1,0,0,1-.042-.053q8.576-29.36,17.162-58.721a20.988,20.988,0,0,0,1.169-6.359c-.084-3.675-2.063-6.991-3.57-10.35-3.264-7.276-4.433-15.278-6.264-23.048a22,22,0,0,0-1.327-4.18c-.095-.179-.179-.358-.274-.527a20.127,20.127,0,0,0-3.317-4.117q-8.323-8.655-16.636-17.3c-.232-.232-.463-.474-.684-.706l-.021-.031c.495-.4.979-.821,1.453-1.274a47.389,47.389,0,0,0,13.246-20.974c.052-.148.1-.305.147-.453a4.215,4.215,0,0,0,.19-.884,162.836,162.836,0,0,0,29.776,14.025,1.918,1.918,0,0,0,1.379.126,2.058,2.058,0,0,0,.843-1.011,15.3,15.3,0,0,1,12.856-7.929l.168.043q-1.327,4.785-2.7,9.55c.116.21.242.421.379.621a15.957,15.957,0,0,0-3.285,10.709c.316,4.717,2.716,9.044,5.538,12.835,1.875,2.527,4.012,5.022,4.644,8.107A18.384,18.384,0,0,1,533.173,267.957Z" transform="translate(-468.83 -214.237)" fill="#ffb743"/>
        <path id="Path_5492" data-name="Path 5492" d="M501.673,415.625q-.774,6.948-1.5,13.888a30.018,30.018,0,0,1-11.982-8.455C491.365,417.2,496.556,416,501.673,415.625Z" transform="translate(-474.393 -272.082)" fill="#363149"/>
        <path id="Path_5493" data-name="Path 5493" d="M495.373,246.9a.959.959,0,0,1,.021.706q-2.686,11.1-5.349,22.206c-.095-.179-.18-.358-.274-.527a20.075,20.075,0,0,0-3.316-4.116q-8.323-8.656-16.636-17.3a20.955,20.955,0,0,0,14.141,2.2c3.559-.716,6.855-2.348,10.329-3.337C494.667,246.626,495.174,246.562,495.373,246.9Z" transform="translate(-469.114 -223.546)" fill="#1f1f1f"/>
        <path id="Path_5494" data-name="Path 5494" d="M543.42,289.7a40.8,40.8,0,0,0-.653-8.055,7.962,7.962,0,0,0-3.256-5.064c-.7-.475-.494-.709-.155-1.473.269-.6.569-1.192.894-1.767a20.812,20.812,0,0,1,2.532-3.532,1.071,1.071,0,0,0-.213-1.654,27.051,27.051,0,0,0-8.795-3.94c-1.539-.374-3.107-.615-4.649-.979-1.3-.308-4.674-.889-4.319-2.65,1.484-7.366,3.418-14.672,5.124-21.991.307-1.319-1.723-1.881-2.031-.56l-2.86,12.275-1.43,6.137c-.238,1.023-.48,2.045-.715,3.068a5.313,5.313,0,0,0-.234,2.344c.345,1.5,2.056,2.146,3.333,2.638a31.677,31.677,0,0,0,5.231,1.32,27.976,27.976,0,0,1,9.237,3.488,18.944,18.944,0,0,0-3.435,5.973,2.306,2.306,0,0,0,.766,2.669,6.987,6.987,0,0,1,2.425,2.594c1.093,2.467.983,5.494,1.067,8.131.109,3.43.049,6.861-.157,10.287-.081,1.353,2.025,1.349,2.106,0C543.42,295.874,543.489,292.787,543.42,289.7Z" transform="translate(-484.274 -220.856)" fill="#fff"/>
        <path id="Path_5495" data-name="Path 5495" d="M542.378,299.036q-1.156,16.06-2.715,32.086-1.555,15.96-3.511,31.877-1.113,9.053-2.356,18.089c-.091.662.923.949,1.016.279q2.194-15.956,3.989-31.963,1.8-16.065,3.19-32.173.785-9.092,1.44-18.195C543.48,298.36,542.427,298.363,542.378,299.036Z" transform="translate(-487.489 -238.449)" fill="#fff794"/>
        <path id="Path_5496" data-name="Path 5496" d="M533.521,281.5c-.076,12.337-2.381,24.556-4.276,36.709q-2.873,18.428-5.745,36.856-1.619,10.382-3.237,20.764c-.1.663.911.949,1.015.28L527.065,339c1.916-12.288,3.949-24.565,5.715-36.876a151.962,151.962,0,0,0,1.795-20.617A.527.527,0,0,0,533.521,281.5Z" transform="translate(-483.602 -233.412)" fill="#fff794"/>
        <path id="Path_5497" data-name="Path 5497" d="M520.538,275.781c-.113-.667-1.127-.384-1.016.28,1.1,6.559.428,13.239-.356,19.794s-1.724,13.117-2.7,19.659c-1.909,12.756-3.827,25.532-6.611,38.133a214.167,214.167,0,0,1-5.658,20.891c-.212.645.8.922,1.016.279a261.692,261.692,0,0,0,8.957-37.97c2.209-12.925,4.183-25.919,5.8-38.931C520.879,290.583,521.774,283.131,520.538,275.781Z" transform="translate(-478.979 -231.805)" fill="#fff794"/>
        <path id="Path_5498" data-name="Path 5498" d="M516.928,232.478q-3.774,19.648-9.084,38.958-1.5,5.44-3.116,10.847a.527.527,0,0,0,1.015.279q5.734-19.168,9.951-38.745,1.186-5.517,2.25-11.059C518.071,232.1,517.056,231.812,516.928,232.478Z" transform="translate(-479.134 -219.367)" fill="#fff794"/>
        <path id="Path_5499" data-name="Path 5499" d="M506.371,228.848a201.971,201.971,0,0,1-9.488,24.029q-1.563,3.319-3.247,6.578c-.31.6.6,1.135.909.532a204.232,204.232,0,0,0,10.422-23.8q1.274-3.506,2.42-7.057C507.6,228.481,506.579,228.2,506.371,228.848Z" transform="translate(-475.937 -218.329)" fill="#fff794"/>
        <path id="Path_5500" data-name="Path 5500" d="M494.581,221.342a241.193,241.193,0,0,1-14.106,27.309.527.527,0,0,0,.909.531,241.3,241.3,0,0,0,14.106-27.308C495.759,221.26,494.852,220.723,494.581,221.342Z" transform="translate(-472.152 -216.199)" fill="#fff794"/>
      </g>
      <g id="Group_4302" data-name="Group 4302" transform="translate(93.276 108.078)">
        <path id="Path_5501" data-name="Path 5501" d="M635.535,274.461c-4.4.558-8.823.906-13.256,1.074a155.662,155.662,0,0,1-16.583-.253c-.063,0-.137-.01-.2-.01-5.633,27.817.706,56.594,9.024,83.748a2.557,2.557,0,0,0-.4-.537,13.763,13.763,0,0,0-7.381-4.106,19.732,19.732,0,0,0-4.906-.443c-4.507.168-8.855,1.632-13.119,3.1q-8.924,3.048-17.836,6.086c-.18-1.274-.348-2.558-.516-3.833q-2.859-21.116-5.381-42.295c-.905-7.6-1.79-15.246-1.421-22.891.327-6.749,1.611-13.4,2.58-20.079a220.6,220.6,0,0,0,2.264-26.2,10.311,10.311,0,0,1,.116-1.411,3.282,3.282,0,0,1,.305-1.011,5.515,5.515,0,0,1,1.758-1.8q5.4-4.107,10.824-8.192c.284-.221.558-.431.842-.642a3.337,3.337,0,0,1,4.412-.389c7.5,3.632,14.772,8.16,22.984,9.56,7.687,1.305,15.826-.19,23.27,1.969q-.411.679-.758,1.39a23.939,23.939,0,0,0-2.3,13.625,25.8,25.8,0,0,0,.737,3.7,27.775,27.775,0,0,0,3.548,7.876C634.577,273.166,635.04,273.819,635.535,274.461Z" transform="translate(-563.473 -233.731)" fill="#ffb743"/>
        <path id="Path_5502" data-name="Path 5502" d="M632.155,408.3v.063a1.814,1.814,0,0,1-.527,1.021,10.607,10.607,0,0,1-5.138,3.274l-.421.042a47.249,47.249,0,0,0-1.9-9.707,13.762,13.762,0,0,1,7.381,4.106,2.562,2.562,0,0,1,.4.537c0,.011,0,.011.01.021l.19.632Z" transform="translate(-580.908 -282.35)" fill="#363149"/>
        <path id="Path_5503" data-name="Path 5503" d="M639.294,283.25A155.635,155.635,0,0,1,622.711,283c.748-7.454,1.284-14.93,1.821-22.406A174.575,174.575,0,0,0,639.294,283.25Z" transform="translate(-580.488 -241.446)" fill="#1f1f1f"/>
        <path id="Path_5504" data-name="Path 5504" d="M593.34,252.325c-.5-1.895-1.11-3.766-1.739-5.62-1.19-3.509-2.567-6.951-4.09-10.329-.556-1.233-2.371-.164-1.818,1.063a106.268,106.268,0,0,1,5.492,15,5.583,5.583,0,0,1,.108,3.9,8.867,8.867,0,0,1-2.13,2.668,56.02,56.02,0,0,1-6.148,5.006q-1.445,1.023-2.947,1.964a26.55,26.55,0,0,0-3.246,1.953c-2.11,1.806,1.033,3.086,2.354,3.734.525.257,1.069.494,1.581.776.6.331.656.217.3.664a31.585,31.585,0,0,1-2.737,2.512,53.079,53.079,0,0,0-4.64,5.227,54.81,54.81,0,0,0-7.7,13.532c-.5,1.26,1.537,1.808,2.031.56a51.807,51.807,0,0,1,9.532-15.456q1.457-1.628,3.047-3.132c.882-.833,2.267-1.65,2.76-2.788a2.177,2.177,0,0,0-1.1-2.685,17.9,17.9,0,0,0-2.023-1.027c-.3-.149-1.061-.4-1.6-.682.535-.344,1.41-.706,1.687-.873q1.111-.672,2.193-1.391c1.453-.964,2.861-1.991,4.232-3.068,2.39-1.878,5.533-4.078,6.626-7.048A7.277,7.277,0,0,0,593.34,252.325Z" transform="translate(-564.173 -234.334)" fill="#fff"/>
        <path id="Path_5505" data-name="Path 5505" d="M579.461,351.558c-1.17-9.419-2.148-18.866-2.736-28.342-.329-5.319-.534-10.646-.585-15.975a.527.527,0,0,0-1.053,0c.093,9.533.681,19.054,1.578,28.543.9,9.461,2.094,18.89,3.4,28.3.738,5.329,1.513,10.651,2.287,15.974.1.669,1.112.384,1.015-.279C582,370.383,580.633,360.984,579.461,351.558Z" transform="translate(-566.809 -254.7)" fill="#fff794"/>
        <path id="Path_5506" data-name="Path 5506" d="M597.98,373.469q-3.239-14.224-5.823-28.585-2.591-14.415-4.51-28.94-1.081-8.191-1.947-16.408c-.071-.667-1.124-.674-1.053,0q1.538,14.577,3.745,29.072,2.217,14.549,5.111,28.983,1.624,8.1,3.46,16.156C597.115,374.409,598.13,374.129,597.98,373.469Z" transform="translate(-569.554 -252.488)" fill="#fff794"/>
        <path id="Path_5507" data-name="Path 5507" d="M611.486,365.148c-2.614-11.131-4.364-22.438-5.956-33.754-1.606-11.418-3.157-22.844-4.733-34.267q-1.348-9.775-2.7-19.551c-.093-.669-1.107-.383-1.016.28l4.781,34.67c1.562,11.319,3.015,22.662,4.878,33.938,1.05,6.357,2.252,12.69,3.726,18.963C610.625,366.087,611.64,365.808,611.486,365.148Z" transform="translate(-573.126 -246.216)" fill="#fff794"/>
        <path id="Path_5508" data-name="Path 5508" d="M612.707,254.467q-.764-5.145-1.626-10.274c-.112-.666-1.126-.383-1.015.28q3,17.884,4.82,35.936.508,5.045.923,10.1c.056.671,1.109.676,1.053,0Q615.373,272.427,612.707,254.467Z" transform="translate(-576.854 -236.627)" fill="#fff794"/>
        <path id="Path_5509" data-name="Path 5509" d="M630.437,250.425c-.054-.671-1.108-.677-1.053,0q1.194,14.869,2.388,29.739c.054.671,1.108.676,1.053,0Z" transform="translate(-582.404 -238.381)" fill="#fff794"/>
        <path id="Path_5510" data-name="Path 5510" d="M648.672,279.9a56.1,56.1,0,0,1-2.659-28.509c.111-.662-.9-.947-1.016-.279a57.173,57.173,0,0,0,2.659,29.068C647.887,280.809,648.905,280.536,648.672,279.9Z" transform="translate(-586.661 -238.614)" fill="#fff794"/>
      </g>
      <g id="Group_4303" data-name="Group 4303">
        <path id="Path_5511" data-name="Path 5511" d="M493.8,95.662a5.6,5.6,0,0,1-1.116,1.474c-.148.148-.294.284-.442.432A6.977,6.977,0,0,1,488.38,99.8a19.338,19.338,0,0,1-6.791,5.633,18.931,18.931,0,0,1-7.433,2.042,5.166,5.166,0,0,0-2.506.527,4.472,4.472,0,0,0-1.516,2.485l-15.825,46.465a168.418,168.418,0,0,1,17.521,19.037c.453.537.874,1.084,1.3,1.632a47.389,47.389,0,0,1-13.246,20.974q-3.964-5.78-7.8-11.634-9.429-14.34-18.163-29.124a5.421,5.421,0,0,1-.284-6.7A467.84,467.84,0,0,1,465.68,96.946l-.074-.053q4.044-6.9,8.655-13.446a3.473,3.473,0,0,1,1.042-1.095,3.169,3.169,0,0,1,2.327-.063,16.025,16.025,0,0,1,6.391,3.317,4.6,4.6,0,0,1,.632.653l.084-.063a9.7,9.7,0,0,1,2.232.589,2.643,2.643,0,0,1,1.358.99,1.154,1.154,0,0,1,.137.305l.073-.031a4.6,4.6,0,0,1,2.369.716,2.62,2.62,0,0,1,.905,1.443,3.967,3.967,0,0,1,1.99,5.454Z" transform="translate(-432.608 -82.1)" fill="#ffbe92"/>
        <path id="Path_5512" data-name="Path 5512" d="M508.746,92.2A7.516,7.516,0,0,1,506,96.347c-1.218.924-3.115,1.763-4.666,1.249a10.12,10.12,0,0,0,3.75-3.867A9.75,9.75,0,0,0,506.2,90.2c.081-.671-.973-.666-1.053,0a8.911,8.911,0,0,1-3.18,5.678,8.393,8.393,0,0,1-2.87,1.571c-.349.108-1.119.393-1.187-.17a3.9,3.9,0,0,1,.086-1.25c.188-.2.359-.4.5-.564a14.765,14.765,0,0,0,1.912-2.913c.6-1.182,1.1-2.416,1.589-3.648.25-.63-.768-.9-1.015-.28a21.884,21.884,0,0,1-3.1,5.932.533.533,0,0,0-.671.341c-.064.186-.1.378-.148.569-.321.332-.8.763-1.029.533a1.553,1.553,0,0,1-.226-.761c-.068-.374-.129-.75-.186-1.125a41.615,41.615,0,0,1-.428-4.63c-.026-.676-1.078-.679-1.053,0q.081,2.124.368,4.232c.093.686.187,1.38.33,2.058a1.7,1.7,0,0,0,.78,1.225,1.3,1.3,0,0,0,1.234-.044,1.615,1.615,0,0,0,.567,1.46c.8.545,1.926.124,2.768-.242a.493.493,0,0,0,.188.172,4.427,4.427,0,0,0,2.8.376,6.2,6.2,0,0,0,2.05,2.282.531.531,0,0,0,.721-.189.539.539,0,0,0-.189-.721c-.048-.032-.095-.064-.141-.1s-.118-.065-.138-.1l.039.03-.041-.032-.053-.043q-.066-.055-.13-.111a5.561,5.561,0,0,1-.5-.5c-.073-.082-.142-.168-.211-.253l-.051-.068c-.034-.046-.066-.093-.1-.14-.069-.1-.125-.211-.187-.316a8.35,8.35,0,0,0,2.182-1.132,8.6,8.6,0,0,0,3.327-4.848A.527.527,0,0,0,508.746,92.2Z" transform="translate(-450.283 -83.873)" fill="#e0905a"/>
        <path id="Path_5513" data-name="Path 5513" d="M480.97,215.456a47.387,47.387,0,0,1-13.246,20.974q-3.964-5.78-7.8-11.634c2.2-1.348,4.422-2.643,6.654-3.906q6.46-3.68,13.1-7.065C480.127,214.361,480.549,214.908,480.97,215.456Z" transform="translate(-440.453 -119.936)" fill="#e0905a"/>
      </g>
      <g id="Group_4304" data-name="Group 4304" transform="translate(132.086 43.579)">
        <path id="Path_5514" data-name="Path 5514" d="M678.224,239.569a5.6,5.6,0,0,1-1.853,2.548,33.8,33.8,0,0,1-6.9,4.328q-5.844,3.016-11.761,5.854-3.948,1.9-7.929,3.706a27.78,27.78,0,0,1-3.548-7.876,25.816,25.816,0,0,1-.737-3.7,23.939,23.939,0,0,1,2.3-13.624l.19.095c.116-.053.242-.116.358-.168,2.5-1.169,4.97-2.338,7.455-3.517q-8.734-17.01-17.479-34.041a66.846,66.846,0,0,1-12.813-.378c-2.021-.264-4.17-.674-5.644-2.085a7,7,0,0,1-1.927-4.749,20.731,20.731,0,0,1,.642-5.212,4.373,4.373,0,0,1,2.011,1.4l.505-.148a4.72,4.72,0,0,0,.779,1.579,6.951,6.951,0,0,0,4.749,2.485,6.087,6.087,0,0,0,2.885-.263,5.971,5.971,0,0,0,.59-.284l-.021-.642a6.06,6.06,0,0,0,2.253-.547,8.711,8.711,0,0,0,1.622-.9,2.617,2.617,0,0,0,.579,0,5.126,5.126,0,0,0,2.885-1.906l-.242-.232a.825.825,0,0,0,.179-.158,1.641,1.641,0,0,0,.274-1.242c-.01-.169-.031-.337-.052-.5,1.695-1.021,3.4-2.053,5.1-3.074.274.495.538.979.8,1.474q2.479,4.548,4.938,9.108c10.95,15.383,21.658,31.1,29.082,48.445A6.5,6.5,0,0,1,678.224,239.569Z" transform="translate(-617.923 -152.746)" fill="#ffbe92"/>
        <path id="Path_5515" data-name="Path 5515" d="M649.749,166.9c-1.695,1.021-3.4,2.053-5.1,3.074a11.207,11.207,0,0,0-1.832-4.927,1.081,1.081,0,0,1-.242-.589,1,1,0,0,1,.179-.453c.317-.527.632-1.053.948-1.569a3.659,3.659,0,0,0,.369-.769q8.244-9.081,16.478-18.173a17.024,17.024,0,0,0,2.359,7.012,12.659,12.659,0,0,0,5.7,4.991Q659.178,161.182,649.749,166.9Z" transform="translate(-625.005 -143.313)" fill="#008744"/>
        <path id="Path_5516" data-name="Path 5516" d="M674.839,147.843a10.391,10.391,0,0,1,1.4,7.339c-.127.084-.264.158-.39.242a12.658,12.658,0,0,1-5.7-4.991,17.023,17.023,0,0,1-2.359-7.012c.053-.063.105-.116.158-.18a2.637,2.637,0,0,1,.579.074A10.424,10.424,0,0,1,674.839,147.843Z" transform="translate(-632.248 -143.241)" fill="#1f1f1f"/>
        <path id="Path_5517" data-name="Path 5517" d="M638.37,178.64l.242.232a5.126,5.126,0,0,1-2.885,1.906,2.619,2.619,0,0,1-.579,0,8.7,8.7,0,0,1-1.622.9,6.058,6.058,0,0,1-2.253.547l.021.642a5.977,5.977,0,0,1-.589.284,6.086,6.086,0,0,1-2.885.263,6.952,6.952,0,0,1-4.749-2.485,4.722,4.722,0,0,1-.779-1.579,4.17,4.17,0,0,1,.474-3.57,7.363,7.363,0,0,1,1.927-1.726,5.356,5.356,0,0,1,1.853-.958h.147c.053-.095.115-.19.179-.284a5.781,5.781,0,0,1,2.043-1.643,15.88,15.88,0,0,1,2.169-.947l.031.031a1.677,1.677,0,0,1,.274-.274,8,8,0,0,1,2.085-1.137c.316-.137.642-.274.959-.411a5.834,5.834,0,0,1,1.558-1.116,1.473,1.473,0,0,1,1.379-.116v.011a.806.806,0,0,1,.874.589,1.207,1.207,0,0,1-.053.642,3.652,3.652,0,0,1-.369.769c-.316.515-.631,1.042-.947,1.569a.993.993,0,0,0-.18.453,1.082,1.082,0,0,0,.242.589,11.215,11.215,0,0,1,1.833,4.927c.021.158.042.326.052.5a1.641,1.641,0,0,1-.274,1.242A.825.825,0,0,1,638.37,178.64Z" transform="translate(-619.121 -150.084)" fill="#ffbe92"/>
        <path id="Path_5518" data-name="Path 5518" d="M637.645,172.694a.527.527,0,0,0-1.015.28c.468,1.786,1.466,3.5,1.589,5.365.087,1.316-.333,3.331-1.893,3.634-.95.183-1.394-.968-1.753-1.651a18.921,18.921,0,0,1-1.12-2.608,50.589,50.589,0,0,1-1.463-5.45c-.151-.66-1.167-.381-1.016.28.387,1.691.776,3.385,1.322,5.034a16.208,16.208,0,0,0,2.142,4.565c.031.041.068.067.1.1-.427.828-1.017,1.8-2.075,1.317a5.753,5.753,0,0,1-2.282-2.089c-1.328-1.986-1.772-4.384-2.661-6.568-.252-.619-1.272-.349-1.016.279,1.048,2.572,1.541,5.42,3.358,7.611a7.787,7.787,0,0,0,1,1,.407.407,0,0,0-.417.266c-.585,1.321-2.461.672-3.447.235a6.165,6.165,0,0,1-2.854-2.43c-1.21-2.048-.808-5.088,1.638-6.011.628-.237.356-1.255-.28-1.015-3.14,1.185-3.871,5.011-2.183,7.7a7.435,7.435,0,0,0,3.718,2.907c1.4.532,3.565.85,4.317-.85a.536.536,0,0,0,.011-.426,3.293,3.293,0,0,0,1.578.6c1.188.073,1.947-.947,2.454-1.893a2.578,2.578,0,0,0,2.764-.841,5.06,5.06,0,0,0,1.11-3.766C639.116,176.316,638.136,174.565,637.645,172.694Z" transform="translate(-619.218 -151.469)" fill="#e0905a"/>
        <path id="Path_5519" data-name="Path 5519" d="M668.753,274.223q-3.948,1.9-7.929,3.706a27.778,27.778,0,0,1-3.548-7.876,25.833,25.833,0,0,1-.737-3.7,23.94,23.94,0,0,1,2.3-13.624l.19.095c.116-.053.242-.116.358-.168q3.68,7.549,6.886,15.309Q667.564,271.08,668.753,274.223Z" transform="translate(-628.962 -174.67)" fill="#e0905a"/>
      </g>
      <g id="Group_4305" data-name="Group 4305" transform="translate(85.652 60.56)">
        <path id="Path_5520" data-name="Path 5520" d="M574.133,194.1a.539.539,0,0,0-.409-.623,24.594,24.594,0,0,1-2.708-1.116q-.346-.167-.687-.344c-.113-.059-.227-.118-.339-.18l-.019-.011c.145-.261.515-1.143.563-1.245l2.5-5.365c.286-.613-.649-1.1-.937-.481l-2.961,6.341c-.192.411-.437.848-.154,1.279a3.129,3.129,0,0,0,1.272.808,26.808,26.808,0,0,0,3.25,1.346A.531.531,0,0,0,574.133,194.1Z" transform="translate(-557.396 -172.057)" fill="#e0905a"/>
        <path id="Path_5521" data-name="Path 5521" d="M565.1,201.033l11.092,1.81s-.931,6.011-5.831,5.039S565.1,201.033,565.1,201.033Z" transform="translate(-556.316 -176.822)" fill="#fff"/>
        <circle id="Ellipse_237" data-name="Ellipse 237" cx="4.097" cy="4.097" r="4.097" transform="translate(23.264 17.426)" fill="#e0905a"/>
        <circle id="Ellipse_238" data-name="Ellipse 238" cx="4.097" cy="4.097" r="4.097" transform="translate(0 13.327)" fill="#e0905a"/>
        <path id="Path_5522" data-name="Path 5522" d="M593.047,173.325a15.121,15.121,0,0,0-5.383-1.411,1.579,1.579,0,0,0-1.579,1.579,1.617,1.617,0,0,0,1.579,1.579c.182.013.362.035.543.056a13.1,13.1,0,0,1,3.069.845c.058.026.118.051.177.079a1.7,1.7,0,0,0,1.217.159,1.58,1.58,0,0,0,.377-2.887Z" transform="translate(-562.343 -168.457)" fill="#1b163a"/>
        <circle id="Ellipse_239" data-name="Ellipse 239" cx="2.363" cy="2.363" r="2.363" transform="translate(7.007 5.631)" fill="#1b163a"/>
        <circle id="Ellipse_240" data-name="Ellipse 240" cx="2.363" cy="2.363" r="2.363" transform="translate(23.74 9.283)" fill="#1b163a"/>
        <path id="Path_5523" data-name="Path 5523" d="M568,167.237a15.131,15.131,0,0,0-5.562.188,1.579,1.579,0,0,0-1.062,1.964,1.618,1.618,0,0,0,1.965,1.062c.177-.039.357-.07.537-.1a13.13,13.13,0,0,1,3.182-.068c.064.009.128.016.192.026a1.706,1.706,0,0,0,1.212-.2,1.58,1.58,0,0,0-.463-2.875Z" transform="translate(-555.228 -167.065)" fill="#1b163a"/>
      </g>
    </g>
    <g id="Group_4316" data-name="Group 4316" transform="translate(188.804 76.614)">
      <g id="Group_4307" data-name="Group 4307" transform="translate(0 86.569)">
        <path id="Path_5524" data-name="Path 5524" d="M441.76,296.942c-.305,7.728-3.285,15.741-9.529,20.311-.305.221-.621.432-.937.642a11.724,11.724,0,0,1-8.055,1.99c-2.822-.474-5.222-2.275-7.37-4.148A63.461,63.461,0,0,1,399.823,293.9c-.074-.157-.137-.316-.211-.473q-.915,12.935-1.821,25.87h-.148q-.205,7.091-.39,14.183c-.042,1.432,0,3.053,1.053,4.012a9.916,9.916,0,0,0,2.505,1.232c.843.411,1.654,1.253,1.422,2.169a2.276,2.276,0,0,1-.8,1.1,11.534,11.534,0,0,1-3.812,2.242c2.38.148,3.991,2.927,3.464,5.254a6.676,6.676,0,0,1-3.927,4.359,8.682,8.682,0,0,1-.989.379,20.3,20.3,0,0,1-7.1.474c-9.277-.516-18.532-1.3-27.786-2.085q-23.043-1.943-46.086-3.9c-3.3-.284-6.76-.611-9.539-2.369-.127-.073-.253-.158-.379-.242a12.925,12.925,0,0,1-4.97-8.139,29.529,29.529,0,0,1-.021-9.719c1.8-13.951,7-27.112,10.729-40.59,1.137-4.1,2.127-8.223,3.043-12.382l-.063-.01a22.106,22.106,0,0,1-6.391,2.569c-13.614,3.833-27.449,7.223-41.568,8.044a3.189,3.189,0,0,1-2.032-.337,3.1,3.1,0,0,1-.916-1.19,116.977,116.977,0,0,1-10.571-27.207c-.463-1.822-.864-3.79-.19-5.549.927-2.369,3.506-3.59,5.875-4.527a82,82,0,0,1-3.317-12.235c.485.063.969.126,1.453.179a57.425,57.425,0,0,0,17.089-.622c1.316-.242,2.622-.537,3.917-.874.306,4.885.274,9.634.99,14.478,18.973-6.107,36.357-17.163,55.983-20.679a2.372,2.372,0,0,0,1.19-.442c.8-.706.316-2.043.663-3.054.527-1.558,2.748-1.727,4.222-.99s2.632,2.022,4.18,2.559a18.346,18.346,0,0,1,1.517-4.485,1.975,1.975,0,0,1,.684-.885,1.922,1.922,0,0,1,1.832.3,12.343,12.343,0,0,1,4.885,5.465l.8-.169c3.738,10.193,8.423,18.152,13.509,27.734q7.312-11.024,13.687-22.627c.138-.242.274-.474.4-.716l-.042-.274a17.751,17.751,0,0,1,6.064-4.538c.664-.294,1.569-.495,1.99.095a1.669,1.669,0,0,1,.137,1.18c-.189,1.306-.421,2.6-.716,3.885a7.2,7.2,0,0,1,3.559-1.654c1.326-.094,2.811.842,2.8,2.17-.011.947-.758,1.832-.579,2.758a2.94,2.94,0,0,0,1.106,1.527q9.3,8.1,18.952,15.762a23.177,23.177,0,0,1,4.8,2.917,83.921,83.921,0,0,1,7.465,6.475,72.82,72.82,0,0,1,6.76,7.307c1.99,2.506,4.2,5.16,4.506,8.444a1.579,1.579,0,0,1-.01.39C440.454,283.17,442.033,290,441.76,296.942Z" transform="translate(-251.973 -219.879)" fill="#1f1f1f"/>
        <path id="Path_5525" data-name="Path 5525" d="M483.829,329.13a18.287,18.287,0,0,0,6.391,4.549,11.72,11.72,0,0,1-8.054,1.99c-2.822-.474-5.222-2.274-7.371-4.148a63.461,63.461,0,0,1-16.046-21.838l.263-.115a122.253,122.253,0,0,1-1.843-15.773,71.323,71.323,0,0,1,1.853-18.962,15.689,15.689,0,0,1,2.148,4.327c3.19,8.665,5.475,17.636,8.7,26.291S477.342,322.56,483.829,329.13Z" transform="translate(-310.899 -235.664)"/>
        <path id="Path_5526" data-name="Path 5526" d="M397.976,368.107a46.584,46.584,0,0,1,13.677.853c.9.189,1.948.568,2.116,1.474.211,1.158-1.211,1.885-2.379,2.116-8.6,1.737-17.752-.958-26.186,1.453a2.933,2.933,0,0,0-1.631.906c-1.127,1.495.937,3.306,2.653,4.053q7.534,3.237,15.047,6.486c-11.54,1.221-23.186.21-34.746-.832q-13.3-1.217-26.6-2.475c-2.274-.21-5.033-.81-5.675-3C353.554,368.9,375.949,366.991,397.976,368.107Z" transform="translate(-275.607 -262.375)"/>
        <path id="Path_5527" data-name="Path 5527" d="M342.356,255.539c-2.349,9.908-4.128,20.005-6.328,29.976l-.063-.01c-2.453-6-4.7-10.793-7.149-16.794a3.106,3.106,0,0,1-.337-1.769,3.151,3.151,0,0,1,1.211-1.589Q335.849,260.219,342.356,255.539Z" transform="translate(-273.938 -230.122)"/>
        <path id="Path_5528" data-name="Path 5528" d="M275.825,259.74a53.828,53.828,0,0,1-9.111,2.7c-1.552.312-3.115.555-4.689.718l-.1.008c.123-.041.248-.073.37-.115a41.439,41.439,0,0,0,4.841-2.031c2.761-1.369,6.054-3.056,7.534-5.907a1.068,1.068,0,0,0-1.19-1.547l-10.8,1.717c-1.334.212-.768,2.242.56,2.031l7.962-1.265a14.46,14.46,0,0,1-1.681,1.222,38.505,38.505,0,0,1-4.373,2.376,37.316,37.316,0,0,1-4.715,1.8c-1.473.453-3.039.662-4.256,1.671a1.051,1.051,0,0,0-.165,1.276c.977,1.351,2.562,1.135,4.05,1.037,1.825-.12,3.646-.336,5.451-.636a53.735,53.735,0,0,0,10.878-3.026C277.632,261.28,277.088,259.242,275.825,259.74Z" transform="translate(-253.089 -229.551)"/>
        <path id="Path_5529" data-name="Path 5529" d="M301.081,279.868a61.048,61.048,0,0,0-6.964-14.322,1.03,1.03,0,0,0-1.173-.436c-.091-.269-.178-.538-.278-.8-.472-1.257-2.509-.713-2.031.56,2.452,6.525,1.826,13.565,1.182,20.357-.128,1.349,1.979,1.339,2.106,0,.5-5.247.957-10.654.082-15.863a58.623,58.623,0,0,1,5.045,11.069C299.479,281.707,301.513,281.158,301.081,279.868Z" transform="translate(-263.057 -232.435)"/>
        <path id="Path_5530" data-name="Path 5530" d="M394.693,262.212l-7.217-26.184a1.054,1.054,0,0,0-2.031.56l6.362,23.079a31.633,31.633,0,0,1-2.543-3.168q-2.319-3.148-4.431-6.441a122.582,122.582,0,0,1-7.463-13.459c-.582-1.223-2.4-.156-1.818,1.063a122.313,122.313,0,0,0,7.978,14.255q2.2,3.373,4.623,6.6a16.69,16.69,0,0,0,4.993,4.889A1.065,1.065,0,0,0,394.693,262.212Z" transform="translate(-287.437 -224.304)"/>
        <path id="Path_5531" data-name="Path 5531" d="M437.987,244.625a83.424,83.424,0,0,1-9.227,10.9q-2.474,2.46-5.146,4.709-1.389,1.169-2.828,2.276c-.271.207-.546.41-.82.614a242.913,242.913,0,0,0,11.778-21.361c.59-1.214-1.225-2.283-1.818-1.063a242.9,242.9,0,0,1-13.341,23.9,1.052,1.052,0,0,0,0,1.063c1.347,2.329,4.359-.639,5.589-1.586q3.358-2.588,6.453-5.494a86.1,86.1,0,0,0,11.178-12.9C440.59,244.58,438.765,243.527,437.987,244.625Z" transform="translate(-299.214 -225.706)"/>
        <path id="Path_5532" data-name="Path 5532" d="M483.284,300.252c-.533,1.071-1.044,2.153-1.554,3.235a111.576,111.576,0,0,1,2.232-13.432c.305-1.319-1.725-1.882-2.031-.559a114.793,114.793,0,0,0-2.789,19.923c-.051.993,1.545,1.5,1.962.531q1.877-4.373,4-8.634C485.7,300.1,483.889,299.037,483.284,300.252Z" transform="translate(-317.223 -239.659)" fill="#006bd0"/>
      </g>
      <path id="Path_5533" data-name="Path 5533" d="M454.67,189.764q-1.752,3.364-3.611,6.686c-.822-4.59-1.243-8.7.1-13.087q2.512,1.847,4.917,3.822l-.242.305Z" transform="translate(-308.937 -122.821)" fill="#363149"/>
      <path id="Path_5534" data-name="Path 5534" d="M398.088,161.769c.421-1.664.885-3.327,1.39-4.969l.011-.042q.616.158,1.232.347c1.222.369,2.433.79,3.622,1.243a54.938,54.938,0,0,0-8.108,16.109,1.682,1.682,0,0,0-.411-.579q.522-4.233,1.4-8.4C397.488,164.233,397.772,163,398.088,161.769Z" transform="translate(-293.292 -115.18)" fill="#363149"/>
      <g id="Group_4308" data-name="Group 4308" transform="translate(98.322 43.169)">
        <path id="Path_5535" data-name="Path 5535" d="M394.127,174.519a1.683,1.683,0,0,1,.41.579,54.938,54.938,0,0,1,8.108-16.109c6.265,2.358,12.14,5.7,17.973,9.023,1.853,1.053,3.7,2.106,5.518,3.212q3.948,2.4,7.686,5.138c-1.348,4.391-.927,8.5-.1,13.087a1.074,1.074,0,0,1,1.21.779,2.732,2.732,0,0,1-.1,1.758,6.677,6.677,0,0,1-3.285,3.57,14.591,14.591,0,0,1-3.517.99c-1.2.274-1.558,1.253-2.264,2.242a52.581,52.581,0,0,1-5.707,6.718c.253,2.748,1.074,4.991,1.063,7.718q-6.381,11.577-13.687,22.627c-5.086-9.582-9.771-17.541-13.509-27.734.758-1.653,1.516-3.327,2.264-4.98a28.849,28.849,0,0,1-3.075-17.373,9.278,9.278,0,0,1-3.032-4.907,6.548,6.548,0,0,1,1.242-5.538,3.114,3.114,0,0,1,1.716-1.137A1.2,1.2,0,0,1,394.127,174.519ZM415.7,205.875a27.825,27.825,0,0,1-16.436-1.706l-.011.031a18.479,18.479,0,0,0,5.2,4.823,6.233,6.233,0,0,0,2.158.937c1.664.316,3.317-.484,4.79-1.337S414.311,206.864,415.7,205.875Z" transform="translate(-389.917 -158.989)" fill="#f2a16b"/>
        <path id="Path_5536" data-name="Path 5536" d="M419.464,224.082q-2.085,1.484-4.3,2.748c-1.474.853-3.127,1.654-4.79,1.337a6.234,6.234,0,0,1-2.158-.937,18.482,18.482,0,0,1-5.2-4.823l.011-.031A27.825,27.825,0,0,0,419.464,224.082Z" transform="translate(-393.68 -177.196)" fill="#ce6925"/>
      </g>
      <g id="Group_4309" data-name="Group 4309" transform="translate(52.288 213.034)">
        <path id="Path_5537" data-name="Path 5537" d="M428.339,443.309l-53.066.284c.347-9.93,1.9-19.732,2.158-29.671a496.475,496.475,0,0,1-49.624-7.613l-.9-.031c.095-2.99.179-5.98.274-8.971,2.78,1.758,6.244,2.085,9.54,2.369q23.042,1.943,46.086,3.9c9.254.79,18.51,1.569,27.786,2.085a20.307,20.307,0,0,0,7.1-.474,8.755,8.755,0,0,0,.989-.379Q424.353,423.835,428.339,443.309Z" transform="translate(-325.786 -397.307)" fill="#1b163a"/>
        <path id="Path_5538" data-name="Path 5538" d="M376.977,417.537c-.263,9.94-1.811,19.742-2.158,29.671l-49.487.274q.568-18.795,1.126-37.589l.9.031A496.473,496.473,0,0,0,376.977,417.537Z" transform="translate(-325.332 -400.922)" fill="#110e33"/>
      </g>
      <g id="Group_4310" data-name="Group 4310" transform="translate(130.205 75.368)">
        <path id="Path_5539" data-name="Path 5539" d="M539.333,209.325c1.669.872,2.133,3.222,1.372,4.952a7.729,7.729,0,0,1-4.152,3.649c-1.725.768-3.572,1.236-5.272,2.051a2.663,2.663,0,0,0-1.366,1.175c-.454.987.258,2.1.271,3.183a3.208,3.208,0,0,1-1.486,2.552,7.11,7.11,0,0,1-2.881.987,18.221,18.221,0,0,1-8.071-.56l-.048.066a22.78,22.78,0,0,0-6.113-3,4.059,4.059,0,0,0,2.891-3.726c.037-2.031-1.483-4-.958-5.97a1.944,1.944,0,0,1,1.207-1.417,2.435,2.435,0,0,1,1.4.1,29.794,29.794,0,0,0,3.051.906,3.488,3.488,0,0,0,3-.7,4.985,4.985,0,0,0,1.083-2.063c.663-1.905,1.418-3.785,2.267-5.618a3.445,3.445,0,0,1,.907-1.334,2.647,2.647,0,0,1,2.747-.018c2.086,1.039,3.356,3.438,5.591,4.086C536.263,209.054,537.955,208.612,539.333,209.325Z" transform="translate(-456.749 -204.165)" fill="#ffdc83"/>
        <path id="Path_5540" data-name="Path 5540" d="M501.078,241.513c-5.818,8.882-11.5,17.942-15.205,27.88-1.6,4.277-2.812,8.681-4.083,13.069-.115.412-.24.82-.365,1.229a34.015,34.015,0,0,0-18.782-11.034c4.426-3.641,9.115-6.99,13.279-10.931,7.279-6.884,12.791-15.449,17.081-24.513l-.077-.041c-.452.238-1.015-.216-1.078-.727a2.365,2.365,0,0,1,.449-1.423c.592-1.018,1.174-2.038,1.765-3.056a1.079,1.079,0,0,1,.612-.6,1.037,1.037,0,0,1,.562.069c.76.243,1.53.489,2.294.753a22.778,22.778,0,0,1,6.113,3,11.676,11.676,0,0,1,2.019,1.909,1.424,1.424,0,0,1,.4.793,1.612,1.612,0,0,1-.458,1.035c-.751.954-1.5,1.9-2.251,2.85a1.067,1.067,0,0,1-.43.373.863.863,0,0,1-.476-.025A4.149,4.149,0,0,1,501.078,241.513Z" transform="translate(-442.69 -211.974)" fill="#008744"/>
        <path id="Path_5541" data-name="Path 5541" d="M512.638,211.047a1.026,1.026,0,0,1-.42.967c-.284.236-.631.385-.937.6a4.176,4.176,0,0,0-1.3,1.629,9.15,9.15,0,0,1-1.661,2.72,1.545,1.545,0,0,1-.839.425,1.6,1.6,0,0,1-1.431-1.053c-1.783-3.766,2.047-8.451,6.022-5.954A1.2,1.2,0,0,1,512.638,211.047Z" transform="translate(-455.03 -205.748)" fill="#ffdc83"/>
        <path id="Path_5542" data-name="Path 5542" d="M474.79,300.337c-2.468,8.442-5.28,16.875-9.416,24.583a43.794,43.794,0,0,0-25.828-15.734,62.779,62.779,0,0,1,11.222-15.237c1.665-1.644,3.426-3.172,5.24-4.645A34.015,34.015,0,0,1,474.79,300.337Z" transform="translate(-436.056 -228.619)" fill="#ffa700"/>
        <path id="Path_5543" data-name="Path 5543" d="M464,332.931a68.958,68.958,0,0,1-3.607,5.962,45.813,45.813,0,0,0-25.61-14.332l-.018,0a73.583,73.583,0,0,1,3.408-7.359A43.8,43.8,0,0,1,464,332.931Z" transform="translate(-434.682 -236.632)" fill="#008744"/>
        <path id="Path_5544" data-name="Path 5544" d="M460.36,341.859c-.19.292-.4.588-.6.877l-.021.073a67.024,67.024,0,0,1-25.089-15.063,1.982,1.982,0,0,1,.083-.224l.019,0A45.814,45.814,0,0,1,460.36,341.859Z" transform="translate(-434.649 -239.597)" fill="#0d6d5d"/>
      </g>
      <g id="Group_4313" data-name="Group 4313" transform="translate(2.317 44.781)">
        <path id="Path_5545" data-name="Path 5545" d="M283.291,202.263a15.448,15.448,0,0,1-2.117,4.917,36.238,36.238,0,0,1-5.4,6.865,2.067,2.067,0,0,0-.358.442.836.836,0,0,0-.063.169,1.354,1.354,0,0,0,.043.579,19.2,19.2,0,0,1-.674,10.339c-.053.158-.168.337-.316.337l.042.232a57.141,57.141,0,0,1-6.823.863,15.424,15.424,0,0,1-2.1.085v.021a57.237,57.237,0,0,1-8.17-.347s-3.054-18.3-1.317-26.692c.6-2.927,1.632-6.011,4.075-7.728a6.794,6.794,0,0,1,4.675-1.127A6.713,6.713,0,0,1,268.75,193c.421.4.8,1.031.485,1.526a1.41,1.41,0,0,1-.674.463c-1.084.463-2.179.937-3.264,1.4a17.969,17.969,0,0,1,6.992,3.4,2.008,2.008,0,0,1,.979,1.505c-.032.853-.99,1.316-1.811,1.548a27.114,27.114,0,0,1-4.485.895,14.222,14.222,0,0,1,3.8,2.043c.031.031.063.053.084.073.105.105.21.2.305.306a6.625,6.625,0,0,0,3.738-2.706l.011-.011c.474-.274.947-.568,1.421-.863,0-.031.011-.053.011-.084.916-.463,1.853-.885,2.8-1.274a7,7,0,0,1,3.011-.695,1.364,1.364,0,0,1,.948.358A1.566,1.566,0,0,1,283.291,202.263Z" transform="translate(-255.305 -169.845)" fill="#f2a16b"/>
        <g id="Group_4311" data-name="Group 4311" transform="translate(9.834 32.65)">
          <path id="Path_5546" data-name="Path 5546" d="M280.223,207.058c0,.031-.011.053-.011.084a16.535,16.535,0,0,1-.421,2.011,49.275,49.275,0,0,1-2.695,9.065c-.306.884-.611,1.758-.969,2.622-.99,2.359-2.169,4.622-3.359,6.886a.537.537,0,0,1-.969-.127c-.358-1.084-.7-2.158-1.063-3.242,0,.021-.01.052-.01.073-.369-.979-.737-1.969-1.106-2.948l-.021-.263a6.66,6.66,0,0,0,1.706-.348c0,.031-.011.053-.011.084a15.993,15.993,0,0,0,2.1-1.326.078.078,0,0,0,.011-.042v-.011a1.993,1.993,0,0,0,.336-2.253.093.093,0,0,1,.011-.053c-.073-.095-.137-.2-.21-.3a.192.192,0,0,0-.053-.073c0-.011-.021-.021-.031-.042l-.127-.158c-.095-.115-.19-.221-.284-.326a7.01,7.01,0,0,0-.631-.621c-.105-.095-.221-.19-.326-.274a15.633,15.633,0,0,0-3.064-1.79l3.044.032c.421,0,.842-.011,1.263-.011.316,0,.622,0,.927.011v-.011c.727-.042,1.464-.253,1.7-.9a1.776,1.776,0,0,0-.421-1.547,4.854,4.854,0,0,0-.485-.547,6.625,6.625,0,0,0,3.738-2.706l.011-.011a2.179,2.179,0,0,0,.221-.326C279.413,207.469,279.813,207.258,280.223,207.058Z" transform="translate(-269.02 -207.058)" fill="#ce6925"/>
        </g>
        <g id="Group_4312" data-name="Group 4312">
          <path id="Path_5547" data-name="Path 5547" d="M288.226,164.462c-.011.127-.021.264-.031.39a20.352,20.352,0,0,1-14.688-3.18l-.042-.011c.031-.095.053-.19.084-.284v-.126A37.74,37.74,0,0,1,288.226,164.462Z" transform="translate(-260.463 -161.251)" fill="#66c5cc"/>
          <path id="Path_5548" data-name="Path 5548" d="M286.78,165.016a95.208,95.208,0,0,1-5.17,23.89,23.854,23.854,0,0,1-2.738,5.781,2.19,2.19,0,0,1-.221.326l-.011.011a6.625,6.625,0,0,1-3.738,2.706c-.095-.105-.2-.2-.305-.306-.021-.021-.053-.042-.084-.073a14.221,14.221,0,0,0-3.8-2.043,27.115,27.115,0,0,0,4.485-.895c.821-.232,1.779-.695,1.811-1.548a2.009,2.009,0,0,0-.979-1.505,17.968,17.968,0,0,0-6.992-3.4c1.085-.463,2.18-.937,3.264-1.4a1.411,1.411,0,0,0,.674-.463c.316-.495-.063-1.126-.485-1.526a6.713,6.713,0,0,0-3.959-1.78,73.458,73.458,0,0,1,3.517-20.963l.042.011A20.352,20.352,0,0,0,286.78,165.016Z" transform="translate(-259.046 -161.416)" fill="#cffffd"/>
          <path id="Path_5549" data-name="Path 5549" d="M275.488,216.394c-.168,1.2-.336,2.411-.516,3.612a4.966,4.966,0,0,0-1.547-1.769c-.031-.021-.074-.053-.105-.073.074-.59.158-1.169.221-1.758.5,0,.979.01,1.475.01A3.627,3.627,0,0,0,275.488,216.394Z" transform="translate(-260.421 -177.09)" fill="#cffffd"/>
          <path id="Path_5550" data-name="Path 5550" d="M274.713,243.526c-6.528.6-13.056-.81-19.458-2.211l-.032-.053a15.612,15.612,0,0,1,9.75-2.211c.158-.779.317-1.548.474-2.327q.711-3.617,1.317-7.244c.21-1.19.4-2.369.579-3.559a6.079,6.079,0,0,0,.927-.4,3.862,3.862,0,0,0,1.169-.885q-.6,4.17-1.285,8.318c-.2,1.221-.4,2.443-.61,3.664-.148.937-.306,1.864-.463,2.79a14.115,14.115,0,0,1,2.9,1.011,45.353,45.353,0,0,1,4.549,2.738.274.274,0,0,0,.158.042Z" transform="translate(-255.223 -179.458)" fill="#cffffd"/>
        </g>
      </g>
      <g id="Group_4314" data-name="Group 4314" transform="translate(97.577)">
        <path id="Path_5551" data-name="Path 5551" d="M469.672,125.067c-.463.642-.927,1.3-1.39,1.937q-6,8.4-12.087,16.752c-.779,1.063-1.558,2.137-2.327,3.2q-1.927,2.638-3.853,5.255-1.88-1.737-3.854-3.369c-.758-.632-1.516-1.242-2.3-1.843q-3.111-2.447-6.433-4.643c-.779-.516-1.558-1.021-2.358-1.516a98.506,98.506,0,0,0-12.1-6.454c-1.116-.516-2.253-1-3.391-1.453-.79-.326-1.589-.632-2.39-.937a60.055,60.055,0,0,0-7.855-2.443l.031-.137.632-1.642c.294-.748.589-1.506.874-2.254q2.116-5.448,4.212-10.887c.305-.779.61-1.558.905-2.337l3.727-9.634a29.789,29.789,0,0,0,1.359-4.075,127.629,127.629,0,0,0,10.255,7.855c.642.453,1.3.9,1.948,1.327q4.77,3.19,9.813,5.969,1.075.6,2.18,1.169,5.228,2.78,10.687,5.1c.821.358,1.664.706,2.5,1.031q4.753,1.943,9.634,3.517c.516.179,1.043.337,1.569.505Z" transform="translate(-394.752 -98.471)" fill="#3897f1"/>
        <path id="Path_5552" data-name="Path 5552" d="M402.346,153.744c-1.19-.453-2.4-.875-3.622-1.243q-.616-.189-1.232-.347a13.605,13.605,0,0,0-3.548-.537,15.554,15.554,0,0,0,1.684,4.822,3.277,3.277,0,0,0,.463.726c-.316,1.232-.6,2.464-.863,3.706l-.179-.042a11.908,11.908,0,0,1-4.781-4.949,8.724,8.724,0,0,1-1.379-3.622,8.9,8.9,0,0,1,.927-4.1,52.062,52.062,0,0,1,2.7-5.559,4.112,4.112,0,0,1,1.063-1.369,3.907,3.907,0,0,1,2.274-.505,34.365,34.365,0,0,1,7.612.927,60.06,60.06,0,0,1,7.855,2.443,101.207,101.207,0,0,1,32.819,20.216c1.768,1.6,3.485,3.3,5.138,5.044a1.91,1.91,0,0,1,.485,2.695,48.483,48.483,0,0,1-4.686,7.718,1.985,1.985,0,0,1-1.031.853,1.874,1.874,0,0,1-1.085-.179c-.537-.2-1.064-.421-1.58-.653a22.811,22.811,0,0,1-2.095-1.011,5.083,5.083,0,0,0,1.547-.516.874.874,0,0,0,.421-.379c.148-.347-.168-.706-.453-.958-.779-.674-1.558-1.337-2.359-1.99q-2.4-1.975-4.917-3.822-3.743-2.733-7.686-5.138c-1.822-1.105-3.664-2.159-5.517-3.212C414.485,159.44,408.61,156.1,402.346,153.744Z" transform="translate(-388.872 -110.576)" fill="#1f1f1f"/>
        <path id="Path_5553" data-name="Path 5553" d="M435.393,99.666a74.691,74.691,0,0,1,39,25.343,139.462,139.462,0,0,1-48.581-26.47c0-.011.011-.031.011-.042A27.875,27.875,0,0,1,435.393,99.666Z" transform="translate(-399.483 -98.424)" fill="#1f1f1f"/>
        <path id="Path_5554" data-name="Path 5554" d="M460.2,190.715c.284.252.6.611.453.958a.874.874,0,0,1-.421.379,5.084,5.084,0,0,1-1.547.516c-.769-.379-1.517-.811-2.254-1.264l1.169-2.274.242-.305C458.646,189.378,459.425,190.041,460.2,190.715Z" transform="translate(-408.278 -124.362)" fill="#ffa700"/>
        <path id="Path_5555" data-name="Path 5555" d="M399.535,156.542l-.011.042c-.505,1.642-.969,3.306-1.39,4.969a3.272,3.272,0,0,1-.463-.726,15.556,15.556,0,0,1-1.684-4.822A13.6,13.6,0,0,1,399.535,156.542Z" transform="translate(-390.916 -114.963)" fill="#ffa700"/>
        <path id="Path_5556" data-name="Path 5556" d="M435.6,110.933a63.026,63.026,0,0,1-18.194,6.865c.3-.779.61-1.558.905-2.337a60.227,60.227,0,0,0,15.341-5.855C434.3,110.059,434.948,110.5,435.6,110.933Z" transform="translate(-397.069 -101.636)" fill="#1f1f1f"/>
        <path id="Path_5557" data-name="Path 5557" d="M445.544,121.012a104.346,104.346,0,0,1-35.272,12.867c.294-.748.589-1.506.874-2.254a102.506,102.506,0,0,0,32.218-11.782Q444.439,120.444,445.544,121.012Z" transform="translate(-395.019 -104.576)" fill="#1f1f1f"/>
        <path id="Path_5558" data-name="Path 5558" d="M462.588,129.664A127.189,127.189,0,0,1,427.1,143.016c-1.116-.516-2.253-1-3.391-1.453a124.386,124.386,0,0,0,36.378-12.93C460.913,128.991,461.756,129.339,462.588,129.664Z" transform="translate(-398.88 -107.101)" fill="#1f1f1f"/>
        <path id="Path_5559" data-name="Path 5559" d="M480.042,135.53c-.463.642-.927,1.3-1.39,1.937a102.6,102.6,0,0,1-30.85,15.352c-.779-.516-1.558-1.021-2.359-1.516a100.487,100.487,0,0,0,33.019-16.289c.516.179,1.043.337,1.569.505Z" transform="translate(-405.122 -108.934)" fill="#1f1f1f"/>
        <path id="Path_5560" data-name="Path 5560" d="M470.108,161.959c-.779,1.063-1.558,2.137-2.327,3.2a41.2,41.2,0,0,1-7.707,1.885c-.758-.632-1.516-1.242-2.3-1.843A38.547,38.547,0,0,0,470.108,161.959Z" transform="translate(-408.665 -116.673)" fill="#1f1f1f"/>
      </g>
      <g id="Group_4315" data-name="Group 4315" transform="translate(102.649 53.877)">
        <path id="Path_5561" data-name="Path 5561" d="M416.533,202a.54.54,0,0,0-.328-.669,24.857,24.857,0,0,1-2.55-1.44q-.323-.209-.639-.426c-.105-.073-.211-.145-.315-.22l-.018-.014c.176-.241.652-1.071.712-1.167l3.147-5.015c.359-.573-.509-1.168-.87-.593l-3.719,5.928c-.242.384-.539.787-.311,1.25.212.432.78.7,1.163.959a26.785,26.785,0,0,0,3.06,1.736A.531.531,0,0,0,416.533,202Z" transform="translate(-400.46 -179.243)" fill="#ce6925"/>
        <path id="Path_5562" data-name="Path 5562" d="M407.086,207.589l10.785,3.163s-1.665,5.851-6.408,4.282S407.086,207.589,407.086,207.589Z" transform="translate(-399.173 -183.657)" fill="#fff"/>
        <circle id="Ellipse_241" data-name="Ellipse 241" cx="4.097" cy="4.097" r="4.097" transform="translate(22.582 19.456)" fill="#e87f38"/>
        <circle id="Ellipse_242" data-name="Ellipse 242" cx="4.097" cy="4.097" r="4.097" transform="translate(0 12.522)" fill="#e87f38"/>
        <path id="Path_5563" data-name="Path 5563" d="M438.156,183.607a15.137,15.137,0,0,0-5.169-2.063,1.591,1.591,0,0,0-1.165.322,1.579,1.579,0,0,0,.776,2.813c.179.035.356.079.532.122a13.146,13.146,0,0,1,2.942,1.216c.056.033.111.066.165.1a1.7,1.7,0,0,0,1.188.308,1.58,1.58,0,0,0,.731-2.818Z" transform="translate(-406.107 -176.171)" fill="#1b163a"/>
        <circle id="Ellipse_243" data-name="Ellipse 243" cx="2.363" cy="2.363" r="2.363" transform="translate(8.129 5.548)" fill="#1b163a"/>
        <circle id="Ellipse_244" data-name="Ellipse 244" cx="2.363" cy="2.363" r="2.363" transform="translate(24.284 11.233)" fill="#1b163a"/>
        <path id="Path_5564" data-name="Path 5564" d="M414.033,174.58a15.135,15.135,0,0,0-5.542-.5,1.579,1.579,0,0,0-1.3,1.82,1.618,1.618,0,0,0,1.819,1.3c.182-.017.364-.026.545-.036a13.142,13.142,0,0,1,3.167.324c.062.016.125.031.187.049a1.7,1.7,0,0,0,1.227-.045,1.58,1.58,0,0,0-.106-2.91Z" transform="translate(-399.199 -174.013)" fill="#1b163a"/>
      </g>
      <path id="Path_5565" data-name="Path 5565" d="M481.515,256.407a2.166,2.166,0,0,1-.853-3.053,3.352,3.352,0,0,1,3.548-1.211,8.929,8.929,0,0,1,2.064-11.287,46.2,46.2,0,0,1,4.011,5.033,34.8,34.8,0,0,1,7.2-1.211c2.18-.137,4.686.084,5.981,1.832,1.2,1.611.863,3.865.526,5.855a104.485,104.485,0,0,0-.916,27.838c-2.306,2.685-4.833,5.5-8.255,6.381a8.975,8.975,0,0,1-8.16-2.011q2.607-4.928,5.2-9.855a49.5,49.5,0,0,1-11.214-7.6c-1.053-.969-2.106-2.148-2.148-3.579s1.6-2.853,2.811-2.085a4.9,4.9,0,0,1-1.695-3.011,2.08,2.08,0,0,1,.611-1.505A1.518,1.518,0,0,1,481.515,256.407Zm.011,0a1.124,1.124,0,0,0,.326.084A.935.935,0,0,0,481.526,256.407Z" transform="translate(-317.04 -139.335)" fill="#f2a16b"/>
    </g>
  </g>
</svg>
