<svg xmlns="http://www.w3.org/2000/svg" width="200.597" height="52.02" viewBox="0 0 200.597 52.02">
  <g id="Group_3705" data-name="Group 3705" transform="translate(-54.364 -15.083)">
    <g id="Group_140" data-name="Group 140" transform="translate(113.384 20.104)">
      <path id="Path_315" data-name="Path 315" d="M46.1,41.724a4.416,4.416,0,0,1-1.646.761,8,8,0,0,1-1.78.2,15.268,15.268,0,0,1-5.453-.907,13.536,13.536,0,0,1-4.188-2.5,15.277,15.277,0,0,1-3.068-3.74,24.69,24.69,0,0,1-2.105-4.636,33.1,33.1,0,0,1-1.288-5.2,51.519,51.519,0,0,1-.6-5.408q-.157-2.7-.078-5.285t.3-4.8a13.674,13.674,0,0,0-.985,1.926q-.582,1.321-1.288,3.09T22.453,19.1q-.761,2.094-1.512,4.221t-1.456,4.177q-.705,2.049-1.254,3.729t-.941,2.855q-.392,1.176-.5,1.579-.089.268-.235.672a5.275,5.275,0,0,1-.358.784,2.75,2.75,0,0,1-.493.649.9.9,0,0,1-.638.269.838.838,0,0,1-.672-.325,2.672,2.672,0,0,1-.436-.773,6.753,6.753,0,0,1-.269-.9q-.1-.448-.146-.717-.135-.941-.247-2.374t-.19-3.18q-.079-1.746-.123-3.728T12.9,22.051q-.034-2-.045-3.941t-.023-3.628q-.011-1.691-.011-3.034V9.3q-.493,1.12-1.176,2.844T10.17,16.016q-.795,2.15-1.657,4.624t-1.7,5.095q-.84,2.62-1.612,5.285T3.821,36.193q-.067.224-.168.548a3.473,3.473,0,0,1-.258.616,1.862,1.862,0,0,1-.392.5.821.821,0,0,1-.571.213.86.86,0,0,1-.56-.2,1.841,1.841,0,0,1-.414-.481,2.773,2.773,0,0,1-.269-.6,2.828,2.828,0,0,1-.123-.594q-.112-.56-.19-1.232T.742,33.584q-.056-.706-.1-1.388T.552,30.93Q.306,27.863.2,24.861T.1,18.815q0-3,.1-5.957t.3-5.979q.067-.874.2-1.959a8.013,8.013,0,0,1,.526-2.049A4.175,4.175,0,0,1,2.377,1.259,3.024,3.024,0,0,1,4.426.609a.963.963,0,0,1,.537.146.555.555,0,0,1,.224.5v.224q-.2,1.343-.4,2.676T4.358,6.88q-.537,4.478-.907,8.946t-.37,8.991q0,1.769.067,3.494T3.4,31.781q1.545-4.793,2.721-8.487t2.071-6.472q.9-2.777,1.512-4.736t1.041-3.281q.425-1.321.672-2.116t.4-1.232q.157-.437.224-.638t.135-.358a4.665,4.665,0,0,1,.918-1.366,1.992,1.992,0,0,1,1.5-.6,1.582,1.582,0,0,1,1.019.314,2.2,2.2,0,0,1,.616.783,3.515,3.515,0,0,1,.3,1.03,7.452,7.452,0,0,1,.078,1.03q-.045,3.471-.2,6.864t-.269,6.729q-.112,3.337-.1,6.629t.3,6.561q.9-2.642,1.657-4.983t1.444-4.467q.683-2.127,1.321-4.1t1.321-3.9q.683-1.926,1.422-3.852T25.14,7.17q.2-.4.448-.817a4.362,4.362,0,0,1,.56-.75,2.906,2.906,0,0,1,.717-.56,1.811,1.811,0,0,1,.9-.224,1.4,1.4,0,0,1,1.1.448,3.049,3.049,0,0,1,.616,1.075,5.867,5.867,0,0,1,.28,1.31q.067.683.067,1.153,0,2.06-.134,4.557t-.19,5.184q-.056,2.687.056,5.442a36.209,36.209,0,0,0,.6,5.33,23.176,23.176,0,0,0,1.456,4.814,12.681,12.681,0,0,0,2.6,3.908,11.6,11.6,0,0,0,4.042,2.631,15.588,15.588,0,0,0,5.789.963,6.183,6.183,0,0,0,1-.078,3.723,3.723,0,0,0,.929-.28ZM43.425,13.262a2.172,2.172,0,0,1-.2.9,2.9,2.9,0,0,1-.526.795,2.826,2.826,0,0,1-.75.571,1.857,1.857,0,0,1-.873.224,1.2,1.2,0,0,1-.929-.381A1.375,1.375,0,0,1,39.8,14.4a2.094,2.094,0,0,1,.2-.884A2.786,2.786,0,0,1,41.264,12.2a1.863,1.863,0,0,1,.862-.213,1.271,1.271,0,0,1,.941.358A1.242,1.242,0,0,1,43.425,13.262ZM49.7,28.131a8.191,8.191,0,0,1-1.22,1.556,8.747,8.747,0,0,1-1.545,1.232,7.477,7.477,0,0,1-1.792.817,6.658,6.658,0,0,1-1.959.291,5.521,5.521,0,0,1-2.229-.425,4.589,4.589,0,0,1-1.635-1.176,5.169,5.169,0,0,1-1.008-1.769,6.875,6.875,0,0,1-.347-2.228,7.876,7.876,0,0,1,.381-2.463,9.057,9.057,0,0,1,1.053-2.183,10.436,10.436,0,0,1,1.579-1.87A14.049,14.049,0,0,1,42.91,18.39l.269.2A11.328,11.328,0,0,0,41.4,21.5a8.531,8.531,0,0,0-.683,3.359,7.872,7.872,0,0,0,.235,1.937,4.942,4.942,0,0,0,.739,1.646,3.722,3.722,0,0,0,1.288,1.142,3.943,3.943,0,0,0,1.9.425,5.877,5.877,0,0,0,2.519-.56,8.991,8.991,0,0,0,2.161-1.411Zm21.308,0q-.425.806-.907,1.545a6.875,6.875,0,0,1-1.086,1.3,4.918,4.918,0,0,1-1.366.9,4.288,4.288,0,0,1-1.747.336,3.34,3.34,0,0,1-1.926-.548A4.865,4.865,0,0,1,62.595,30.2a8.331,8.331,0,0,1-.918-2.071,22.767,22.767,0,0,1-.571-2.374q-.224-1.209-.336-2.385l-.2-2.116a5.4,5.4,0,0,0-1.03,1.288,23.479,23.479,0,0,0-1.231,2.228q-.627,1.277-1.2,2.777a25.349,25.349,0,0,0-.929,2.956,3.482,3.482,0,0,1-.212.649,2.967,2.967,0,0,1-.358.616,2.017,2.017,0,0,1-.5.47,1.162,1.162,0,0,1-.65.19.92.92,0,0,1-.84-.4,2.794,2.794,0,0,1-.37-.918,44.1,44.1,0,0,1-.907-5.442q-.257-2.6-.257-5.2a2.564,2.564,0,0,1,.212-1.086,2.174,2.174,0,0,1,.571-.761,2.322,2.322,0,0,1,.851-.448,3.615,3.615,0,0,1,1.03-.146h.213a1.159,1.159,0,0,1,.28.034.621.621,0,0,1,.224.1.167.167,0,0,1,.067.179,29.45,29.45,0,0,0-.56,5.968q.022,3.034.313,5.834a24.391,24.391,0,0,1,.728-2.542q.482-1.422,1.119-2.866a29.807,29.807,0,0,1,1.388-2.754,13.657,13.657,0,0,1,1.534-2.206,5.8,5.8,0,0,1,.772-.728,1.549,1.549,0,0,1,.974-.3,1.074,1.074,0,0,1,.56.135,1.225,1.225,0,0,1,.37.336,1.546,1.546,0,0,1,.224.459,4.546,4.546,0,0,1,.123.5q.112.65.224,1.68t.28,2.195q.168,1.164.414,2.34a12.809,12.809,0,0,0,.627,2.127,5.266,5.266,0,0,0,.918,1.557,1.656,1.656,0,0,0,1.277.6,3.06,3.06,0,0,0,1.176-.235,5.383,5.383,0,0,0,1.086-.6,6.459,6.459,0,0,0,.963-.851q.448-.482.806-.952ZM86.2,18.076a14.277,14.277,0,0,1-.28,2.62,24.282,24.282,0,0,1-.795,3.046A27.777,27.777,0,0,1,83.9,26.821a16.3,16.3,0,0,1-1.567,2.7,8.736,8.736,0,0,1-1.847,1.915,3.391,3.391,0,0,1-2.038.728,1.638,1.638,0,0,1-1.209-.6,6.68,6.68,0,0,1-1-1.433,13.9,13.9,0,0,1-.75-1.68q-.314-.851-.493-1.321-.47-1.343-.829-2.687T73.5,21.7c-.015-.06-.037-.175-.067-.347a4.884,4.884,0,0,0-.123-.526,3.256,3.256,0,0,0-.179-.482q-.1-.213-.19-.213a1.849,1.849,0,0,0-.459.067,4.034,4.034,0,0,0-.5.168q-.247.1-.482.213t-.392.2l-.179-.224a7.508,7.508,0,0,1,.739-.627,9.864,9.864,0,0,1,.985-.661,7.6,7.6,0,0,1,1.053-.515,2.615,2.615,0,0,1,.941-.213,1.124,1.124,0,0,1,.907.459,4.3,4.3,0,0,1,.649,1.232,15.1,15.1,0,0,1,.515,1.825q.235,1.053.5,2.217L77.4,25q.134.537.336,1.243t.436,1.489q.235.784.493,1.422a8.476,8.476,0,0,0,.5,1.064q.246.426.47.426a1.8,1.8,0,0,0,1.176-.459,5.186,5.186,0,0,0,1.03-1.22,10.506,10.506,0,0,0,.862-1.713,18.273,18.273,0,0,0,1.064-3.841,10.453,10.453,0,0,0,.145-1.612,12.624,12.624,0,0,0-.269-2.587,7.737,7.737,0,0,0-.84-2.284,4.368,4.368,0,0,0-1.456-1.556,2.974,2.974,0,0,0-2.094-.381l-.067-.2a8.157,8.157,0,0,1,1.411-.448,6.7,6.7,0,0,1,1.433-.157,4.514,4.514,0,0,1,3.045.963A3.659,3.659,0,0,1,86.2,18.076Zm9.865-4.815a2.166,2.166,0,0,1-.2.9,2.884,2.884,0,0,1-.526.795,2.814,2.814,0,0,1-.75.571,1.857,1.857,0,0,1-.873.224,1.2,1.2,0,0,1-.929-.381,1.374,1.374,0,0,1-.347-.963,2.089,2.089,0,0,1,.2-.884,2.767,2.767,0,0,1,.526-.773A2.8,2.8,0,0,1,93.9,12.2a1.865,1.865,0,0,1,.862-.213,1.27,1.27,0,0,1,.941.358A1.243,1.243,0,0,1,96.064,13.262Zm6.27,14.869a8.193,8.193,0,0,1-1.221,1.556,8.733,8.733,0,0,1-1.545,1.232,7.475,7.475,0,0,1-1.791.817,6.658,6.658,0,0,1-1.959.291,5.52,5.52,0,0,1-2.228-.425,4.59,4.59,0,0,1-1.635-1.176,5.157,5.157,0,0,1-1.008-1.769,6.865,6.865,0,0,1-.347-2.228,7.876,7.876,0,0,1,.381-2.463,9.057,9.057,0,0,1,1.053-2.183,10.42,10.42,0,0,1,1.579-1.87,14.027,14.027,0,0,1,1.937-1.523l.269.2a11.327,11.327,0,0,0-1.78,2.911,8.525,8.525,0,0,0-.683,3.359,7.873,7.873,0,0,0,.235,1.937,4.935,4.935,0,0,0,.739,1.646,3.715,3.715,0,0,0,1.288,1.142,3.941,3.941,0,0,0,1.9.425,5.879,5.879,0,0,0,2.519-.56,8.981,8.981,0,0,0,2.161-1.411Zm16.762,0a9.25,9.25,0,0,1-1.153,1.545,8.287,8.287,0,0,1-1.456,1.254,6.9,6.9,0,0,1-1.713.84,6.052,6.052,0,0,1-1.9.3,6.263,6.263,0,0,1-2.564-.493,6.012,6.012,0,0,1-1.915-1.333,7.473,7.473,0,0,1-1.343-1.959,12.677,12.677,0,0,1-.851-2.34,17.326,17.326,0,0,1-.448-2.5,23.387,23.387,0,0,1-.134-2.441q0-1.075.089-2.206t.269-2.318q-.694.022-1.355.023h-1.31q-.426,0-.963-.023a3.662,3.662,0,0,1-1.008-.179,1.967,1.967,0,0,1-.783-.47,1.244,1.244,0,0,1-.314-.918,1.025,1.025,0,0,1,.123-.537.772.772,0,0,1,.336-.3,1.59,1.59,0,0,1,.493-.135,4.765,4.765,0,0,1,.571-.034q.336,0,1.59.112t3.023.247a43.144,43.144,0,0,1,1.444-5.2,32.744,32.744,0,0,1,2-4.658h.314q-.717,2.441-1.265,4.927a45.429,45.429,0,0,0-.817,5.039q1.635.112,3.37.19t3.393.078q2.441,0,3.964-.045t2.4-.112q1.03-.09,1.545-.179l.09.381q-1.344.314-3.068.594t-3.672.493q-1.948.213-4.031.369T107.9,16.4q-.045.448-.045.907v.907q0,1.075.1,2.374a21.09,21.09,0,0,0,.37,2.609,17.473,17.473,0,0,0,.728,2.553,7.98,7.98,0,0,0,1.209,2.195,5.934,5.934,0,0,0,1.8,1.534,5.059,5.059,0,0,0,2.486.582,4.888,4.888,0,0,0,2.385-.582,11.155,11.155,0,0,0,2.027-1.433Zm22.585,0a5.628,5.628,0,0,1-.9,1.332,5.556,5.556,0,0,1-1.209,1.008,5.88,5.88,0,0,1-1.433.638,5.6,5.6,0,0,1-1.59.224,5.057,5.057,0,0,1-2.967-.851,7.225,7.225,0,0,1-2.049-2.217A18.716,18.716,0,0,1,130.2,29.6a10.511,10.511,0,0,1-1.545,1.165,9.042,9.042,0,0,1-1.691.817,5.149,5.149,0,0,1-1.747.313,4.059,4.059,0,0,1-1.881-.425,4.441,4.441,0,0,1-1.411-1.131,5.161,5.161,0,0,1-.9-1.612,5.76,5.76,0,0,1-.313-1.892,7.341,7.341,0,0,1,.661-2.978,10.308,10.308,0,0,1,1.747-2.721,9.121,9.121,0,0,1,2.5-1.982,6.1,6.1,0,0,1,2.934-.761,3.066,3.066,0,0,1,.784.089v-.941q0-.65.045-1.724t.179-2.385q.134-1.31.347-2.754t.56-2.866a25.6,25.6,0,0,1,.817-2.71,11.4,11.4,0,0,1,1.1-2.262,5.669,5.669,0,0,1,1.433-1.556A3.024,3.024,0,0,1,135.635.7a2.7,2.7,0,0,1,1.926.694,4.912,4.912,0,0,1,1.165,1.713,8.309,8.309,0,0,1,.571,2.161,16.3,16.3,0,0,1,.146,2.038,18.993,18.993,0,0,1-.224,2.7q-.224,1.534-.627,3.247t-.963,3.5q-.56,1.791-1.209,3.449a30.158,30.158,0,0,1-1.4,3.079,16.651,16.651,0,0,1-1.512,2.407,9.3,9.3,0,0,0,.706,1.612,5.447,5.447,0,0,0,.974,1.277,4.025,4.025,0,0,0,2.911,1.142,4.221,4.221,0,0,0,3.448-1.679ZM132.5,15.658v1.87q0,1.063.056,2.251t.2,2.43a19.049,19.049,0,0,0,.437,2.407,33.312,33.312,0,0,0,1.724-3.975,45.623,45.623,0,0,0,1.355-4.434,42.64,42.64,0,0,0,.884-4.535,31.209,31.209,0,0,0,.313-4.277q0-.425-.045-1.231a8.408,8.408,0,0,0-.246-1.6,4.358,4.358,0,0,0-.6-1.388,1.261,1.261,0,0,0-1.1-.593,1.243,1.243,0,0,0-.963.5,4.531,4.531,0,0,0-.739,1.344,12.329,12.329,0,0,0-.526,1.914q-.213,1.075-.358,2.24t-.224,2.306q-.079,1.142-.112,2.116t-.045,1.68Q132.5,15.389,132.5,15.658Zm-5.643,13.795a5.652,5.652,0,0,0,2.362-.493,7.7,7.7,0,0,0,1.982-1.3,11.528,11.528,0,0,1-.728-1.781q-.3-.952-.515-1.926T129.622,22q-.123-.985-.19-1.9a2.151,2.151,0,0,0-.672-.482,2.3,2.3,0,0,0-.985-.19,3.184,3.184,0,0,0-1.87.571,5.148,5.148,0,0,0-1.377,1.433,6.925,6.925,0,0,0-.851,1.881,7.053,7.053,0,0,0-.291,1.937,6.767,6.767,0,0,0,.19,1.624,3.7,3.7,0,0,0,.616,1.343,3.065,3.065,0,0,0,1.086.907A3.445,3.445,0,0,0,126.857,29.452Z" transform="translate(-0.104 -0.609)" fill="#1f1f1f"/>
    </g>
    <g id="Group_3704" data-name="Group 3704" transform="translate(54.364 15.083)">
      <g id="Layer_8" data-name="Layer 8" transform="translate(0 17.724)">
        <g id="Group_11" data-name="Group 11" transform="translate(0 0)">
          <g id="Group_10" data-name="Group 10">
            <path id="Path_31" data-name="Path 31" d="M276.052,729.965a.548.548,0,0,1,.4.61c-.005.554-.019,1.107-.022,1.661,0,1.056-.01,2.111.011,3.167,0,.109,0,.218-.011.326a.6.6,0,0,1-.585.63c-.622.09-1.246.169-1.869.255q-1.475.2-2.949.413c-.856.123-1.712.251-2.568.376a.653.653,0,0,1-.506-.131c0-.129-.062-.247-.059-.381.018-.728-.006-1.457.023-2.186.022-.566.02-1.135-.013-1.7-.026-.444-.009-.89-.007-1.335a.572.572,0,0,1,.43-.588,3.225,3.225,0,0,1,.6-.1c.26-.035.522-.062.782-.1.367-.05.734-.106,1.1-.159l1.087-.152,1.143-.16c.311-.043.623-.081.935-.126q.536-.076,1.072-.159C275.378,730.076,275.715,730.02,276.052,729.965Z" transform="translate(-267.463 -729.779)" fill="#31af62" fill-rule="evenodd"/>
            <path id="Path_32" data-name="Path 32" d="M262.138,723.844c-.337.055-.674.111-1.012.163q-.535.083-1.072.159c-.311.044-.623.083-.935.126l-1.143.16-1.087.152c-.367.052-.733.108-1.1.159-.26.036-.522.063-.782.1a3.2,3.2,0,0,0-.6.1.572.572,0,0,0-.43.588c0,.445-.019.892.007,1.335.033.568.035,1.136.013,1.7-.029.729,0,1.457-.023,2.186,0,.134.058.251.059.381l-.027-.008a.663.663,0,0,1-.459-.749c.03-1.4.048-2.8.021-4.2a6.154,6.154,0,0,1,0-.95.574.574,0,0,1,.485-.521c.319-.073.646-.086.969-.133.908-.131,1.817-.256,2.725-.383.866-.121,1.733-.24,2.6-.362.328-.046.657-.089.98-.155A.927.927,0,0,1,262.138,723.844Z" transform="translate(-253.55 -723.657)" fill="#166b39" fill-rule="evenodd"/>
          </g>
          <path id="Path_33" data-name="Path 33" d="M276.052,729.965a.548.548,0,0,1,.4.61c-.005.554-.019,1.107-.022,1.661,0,1.056-.01,2.111.011,3.167,0,.109,0,.218-.011.326a.6.6,0,0,1-.585.63c-.622.09-1.246.169-1.869.255q-1.475.2-2.949.413c-.856.123-1.712.251-2.568.376a.653.653,0,0,1-.506-.131c0-.129-.062-.247-.059-.381.018-.728-.006-1.457.023-2.186.022-.566.02-1.135-.013-1.7-.026-.444-.009-.89-.007-1.335a.572.572,0,0,1,.43-.588,3.225,3.225,0,0,1,.6-.1c.26-.035.522-.062.782-.1.367-.05.734-.106,1.1-.159l1.087-.152,1.143-.16c.311-.043.623-.081.935-.126q.536-.076,1.072-.159C275.378,730.076,275.715,730.02,276.052,729.965Z" transform="translate(-267.463 -729.779)" fill="#31af62" fill-rule="evenodd"/>
          <path id="Path_34" data-name="Path 34" d="M262.138,723.844c-.337.055-.674.111-1.012.163q-.535.083-1.072.159c-.311.044-.623.083-.935.126l-1.143.16-1.087.152c-.367.052-.733.108-1.1.159-.26.036-.522.063-.782.1a3.2,3.2,0,0,0-.6.1.572.572,0,0,0-.43.588c0,.445-.019.892.007,1.335.033.568.035,1.136.013,1.7-.029.729,0,1.457-.023,2.186,0,.134.058.251.059.381l-.027-.008a.663.663,0,0,1-.459-.749c.03-1.4.048-2.8.021-4.2a6.154,6.154,0,0,1,0-.95.574.574,0,0,1,.485-.521c.319-.073.646-.086.969-.133.908-.131,1.817-.256,2.725-.383.866-.121,1.733-.24,2.6-.362.328-.046.657-.089.98-.155A.927.927,0,0,1,262.138,723.844Z" transform="translate(-253.55 -723.657)" fill="#166b39" fill-rule="evenodd"/>
        </g>
      </g>
      <g id="Layer_7" data-name="Layer 7" transform="translate(7.86 25.945)">
        <g id="Group_12" data-name="Group 12" transform="translate(0)">
          <path id="Path_35" data-name="Path 35" d="M539.463,1009.793a.354.354,0,0,1,.268.313,1.591,1.591,0,0,1,.02.311c-.035,1.766-.022,3.533-.016,5.3,0,.047,0,.095,0,.142a.546.546,0,0,1-.531.589c-.632.088-1.266.167-1.9.256-.96.135-1.919.277-2.879.414a.67.67,0,0,1-.583-.07l-.03-.03,0,0a.851.851,0,0,1-.085-.4q.011-.667.017-1.333c.014-1.2.006-2.4,0-3.607a4.049,4.049,0,0,1,0-.692.518.518,0,0,1,.36-.461,3.56,3.56,0,0,1,.61-.108c.4-.056.793-.1,1.189-.152.452-.061.9-.126,1.354-.191.414-.06.827-.13,1.241-.185A4.311,4.311,0,0,1,539.463,1009.793Z" transform="translate(-533.314 -1009.557)" fill="#fa9b12" fill-rule="evenodd"/>
          <path id="Path_36" data-name="Path 36" d="M525.81,1002.22a4.3,4.3,0,0,0-.953.1c-.414.055-.827.125-1.241.185-.451.066-.9.131-1.354.191-.4.053-.793.1-1.189.152a3.575,3.575,0,0,0-.61.108.519.519,0,0,0-.36.461,4.06,4.06,0,0,0,0,.692c0,1.2.01,2.4,0,3.607-.005.444-.01.889-.018,1.333a.853.853,0,0,0,.085.4.549.549,0,0,1-.5-.638c0-.843.015-1.685.016-2.528,0-.952,0-1.9-.005-2.855q0-.085,0-.17a.509.509,0,0,1,.456-.546c.4-.071.795-.118,1.193-.171,1.106-.147,2.212-.3,3.315-.472.14-.022.281-.039.42-.068A.951.951,0,0,1,525.81,1002.22Z" transform="translate(-519.662 -1001.983)" fill="#943906" fill-rule="evenodd"/>
          <path id="Path_37" data-name="Path 37" d="M536.448,1254.549l.03.03C536.464,1254.573,536.438,1254.579,536.448,1254.549Z" transform="translate(-535.95 -1247.089)" fill="#943906" fill-rule="evenodd"/>
          <path id="Path_38" data-name="Path 38" d="M539.463,1009.793a.354.354,0,0,1,.268.313,1.591,1.591,0,0,1,.02.311c-.035,1.766-.022,3.533-.016,5.3,0,.047,0,.095,0,.142a.546.546,0,0,1-.531.589c-.632.088-1.266.167-1.9.256-.96.135-1.919.277-2.879.414a.67.67,0,0,1-.583-.07l-.03-.03,0,0a.851.851,0,0,1-.085-.4q.011-.667.017-1.333c.014-1.2.006-2.4,0-3.607a4.049,4.049,0,0,1,0-.692.518.518,0,0,1,.36-.461,3.56,3.56,0,0,1,.61-.108c.4-.056.793-.1,1.189-.152.452-.061.9-.126,1.354-.191.414-.06.827-.13,1.241-.185A4.311,4.311,0,0,1,539.463,1009.793Z" transform="translate(-533.314 -1009.557)" fill="#fa9b12" fill-rule="evenodd"/>
          <path id="Path_39" data-name="Path 39" d="M525.81,1002.22a4.3,4.3,0,0,0-.953.1c-.414.055-.827.125-1.241.185-.451.066-.9.131-1.354.191-.4.053-.793.1-1.189.152a3.575,3.575,0,0,0-.61.108.519.519,0,0,0-.36.461,4.06,4.06,0,0,0,0,.692c0,1.2.01,2.4,0,3.607-.005.444-.01.889-.018,1.333a.853.853,0,0,0,.085.4.549.549,0,0,1-.5-.638c0-.843.015-1.685.016-2.528,0-.952,0-1.9-.005-2.855q0-.085,0-.17a.509.509,0,0,1,.456-.546c.4-.071.795-.118,1.193-.171,1.106-.147,2.212-.3,3.315-.472.14-.022.281-.039.42-.068A.951.951,0,0,1,525.81,1002.22Z" transform="translate(-519.662 -1001.983)" fill="#943906" fill-rule="evenodd"/>
          <path id="Path_40" data-name="Path 40" d="M536.448,1254.549l.03.03C536.464,1254.573,536.438,1254.579,536.448,1254.549Z" transform="translate(-535.95 -1247.089)" fill="#943906" fill-rule="evenodd"/>
        </g>
      </g>
      <g id="Layer_6" data-name="Layer 6" transform="translate(11.823 16.493)">
        <g id="Group_14" data-name="Group 14" transform="translate(0 0)">
          <g id="Group_13" data-name="Group 13">
            <path id="Path_41" data-name="Path 41" d="M678.869,689.638a.4.4,0,0,1,.292.347,1.877,1.877,0,0,1,.025.41c-.053,2.017-.033,4.035-.019,6.052a2.02,2.02,0,0,1-.022.382.567.567,0,0,1-.457.484c-.364.088-.738.115-1.108.167-1.068.15-2.137.292-3.205.441q-1.574.219-3.148.444c-.885.126-1.769.256-2.654.383a.829.829,0,0,1-.7-.08l-.032-.021,0,0a2.056,2.056,0,0,1-.086-.711c0-.44.026-.879.028-1.319.006-1.643,0-3.286,0-4.929a.793.793,0,0,1,.085-.354.652.652,0,0,1,.423-.258c.458-.085.922-.125,1.382-.193.376-.055.754-.107,1.13-.16l1.088-.154,1.13-.16c.358-.051.716-.1,1.075-.152.382-.052.764-.1,1.146-.152.442-.061.884-.125,1.325-.189s.855-.126,1.283-.187A4.319,4.319,0,0,1,678.869,689.638Z" transform="translate(-667.349 -689.404)" fill="#eb0f4a" fill-rule="evenodd"/>
            <path id="Path_42" data-name="Path 42" d="M668.714,682.193a4.318,4.318,0,0,0-1.011.1c-.428.061-.855.125-1.283.187s-.883.128-1.325.19c-.382.053-.764.1-1.146.152-.358.049-.716.1-1.075.152l-1.13.16-1.088.154c-.377.053-.754.1-1.13.16-.46.067-.924.107-1.382.193a.652.652,0,0,0-.423.258c0-.048-.043-.055-.072-.076a1.1,1.1,0,0,0-.351-.119.468.468,0,0,1,.395-.284c.387-.064.777-.114,1.166-.168q1.378-.192,2.756-.383,1.469-.206,2.938-.414c1.087-.155,2.175-.3,3.259-.472A1.1,1.1,0,0,1,668.714,682.193Z" transform="translate(-657.194 -681.959)" fill="#b41128" fill-rule="evenodd"/>
            <path id="Path_43" data-name="Path 43" d="M653.928,740.839a1.093,1.093,0,0,1,.351.119c.029.021.071.028.072.076a.794.794,0,0,0-.085.354c0,1.643,0,3.286,0,4.929,0,.439-.028.879-.028,1.319a2.057,2.057,0,0,0,.086.711c-.427-.178-.5-.279-.5-.732,0-.028,0-.057,0-.085.03-2.07.022-4.14.013-6.21A.845.845,0,0,1,653.928,740.839Z" transform="translate(-653.825 -739.1)" fill="#950e16" fill-rule="evenodd"/>
          </g>
          <path id="Path_44" data-name="Path 44" d="M678.869,689.638a.4.4,0,0,1,.292.347,1.877,1.877,0,0,1,.025.41c-.053,2.017-.033,4.035-.019,6.052a2.02,2.02,0,0,1-.022.382.567.567,0,0,1-.457.484c-.364.088-.738.115-1.108.167-1.068.15-2.137.292-3.205.441q-1.574.219-3.148.444c-.885.126-1.769.256-2.654.383a.829.829,0,0,1-.7-.08l-.032-.021,0,0a2.056,2.056,0,0,1-.086-.711c0-.44.026-.879.028-1.319.006-1.643,0-3.286,0-4.929a.793.793,0,0,1,.085-.354.652.652,0,0,1,.423-.258c.458-.085.922-.125,1.382-.193.376-.055.754-.107,1.13-.16l1.088-.154,1.13-.16c.358-.051.716-.1,1.075-.152.382-.052.764-.1,1.146-.152.442-.061.884-.125,1.325-.189s.855-.126,1.283-.187A4.319,4.319,0,0,1,678.869,689.638Z" transform="translate(-667.349 -689.404)" fill="#eb0f4a" fill-rule="evenodd"/>
          <path id="Path_45" data-name="Path 45" d="M668.714,682.193a4.318,4.318,0,0,0-1.011.1c-.428.061-.855.125-1.283.187s-.883.128-1.325.19c-.382.053-.764.1-1.146.152-.358.049-.716.1-1.075.152l-1.13.16-1.088.154c-.377.053-.754.1-1.13.16-.46.067-.924.107-1.382.193a.652.652,0,0,0-.423.258c0-.048-.043-.055-.072-.076a1.1,1.1,0,0,0-.351-.119.468.468,0,0,1,.395-.284c.387-.064.777-.114,1.166-.168q1.378-.192,2.756-.383,1.469-.206,2.938-.414c1.087-.155,2.175-.3,3.259-.472A1.1,1.1,0,0,1,668.714,682.193Z" transform="translate(-657.194 -681.959)" fill="#b41128" fill-rule="evenodd"/>
          <path id="Path_46" data-name="Path 46" d="M653.928,740.839a1.093,1.093,0,0,1,.351.119c.029.021.071.028.072.076a.794.794,0,0,0-.085.354c0,1.643,0,3.286,0,4.929,0,.439-.028.879-.028,1.319a2.057,2.057,0,0,0,.086.711c-.427-.178-.5-.279-.5-.732,0-.028,0-.057,0-.085.03-2.07.022-4.14.013-6.21A.845.845,0,0,1,653.928,740.839Z" transform="translate(-653.825 -739.1)" fill="#950e16" fill-rule="evenodd"/>
        </g>
      </g>
      <g id="Layer_5" data-name="Layer 5" transform="translate(16.776 25.623)">
        <g id="Group_16" data-name="Group 16" transform="translate(0)">
          <g id="Group_15" data-name="Group 15">
            <path id="Path_47" data-name="Path 47" d="M847.035,998.678a.406.406,0,0,1,.313.361,3.429,3.429,0,0,1,.019.666c-.039,1.927-.02,3.854-.015,5.781,0,.09,0,.18,0,.27a.608.608,0,0,1-.579.652c-.28.045-.562.079-.843.117q-1.511.207-3.022.414-1.356.188-2.711.381c-1.011.145-2.021.3-3.032.439a6.052,6.052,0,0,1-.872.105.557.557,0,0,1-.368-.124l-.033-.022v0a1.875,1.875,0,0,1-.085-.726c.009-.534.013-1.069.022-1.6.02-1.07.017-2.141,0-3.211-.007-.43-.021-.861-.02-1.291a.675.675,0,0,1,.518-.721,2.625,2.625,0,0,1,.4-.07q.6-.07,1.191-.151c.443-.06.885-.125,1.328-.188l1.314-.189q.643-.091,1.286-.181c.443-.061.886-.119,1.329-.18q.776-.107,1.552-.219c.419-.06.837-.13,1.257-.184A6.112,6.112,0,0,1,847.035,998.678Z" transform="translate(-835.381 -998.451)" fill="#fef600" fill-rule="evenodd"/>
            <path id="Path_48" data-name="Path 48" d="M833.182,991.294a6.114,6.114,0,0,0-1.051.128c-.42.055-.838.124-1.257.184q-.775.112-1.551.219c-.443.061-.887.119-1.329.18s-.858.12-1.286.181l-1.314.188c-.443.063-.885.128-1.328.188q-.595.081-1.191.151a2.642,2.642,0,0,0-.4.07.675.675,0,0,0-.518.721c0,.43.014.861.02,1.291.017,1.07.019,2.141,0,3.211-.01.535-.013,1.069-.022,1.6a1.88,1.88,0,0,0,.085.726c-.4-.148-.51-.287-.508-.713,0-.952.023-1.9.027-2.855.005-1.084.01-2.169-.021-3.253a2.43,2.43,0,0,1,.015-.354.626.626,0,0,1,.546-.616c.393-.087.8-.11,1.194-.166.918-.131,1.836-.255,2.754-.383.979-.137,1.957-.28,2.936-.414,1.148-.157,2.3-.314,3.439-.5A.956.956,0,0,1,833.182,991.294Z" transform="translate(-821.528 -991.068)" fill="#bbac04" fill-rule="evenodd"/>
            <path id="Path_49" data-name="Path 49" d="M847.035,998.678a.406.406,0,0,1,.313.361,3.429,3.429,0,0,1,.019.666c-.039,1.927-.02,3.854-.015,5.781,0,.09,0,.18,0,.27a.608.608,0,0,1-.579.652c-.28.045-.562.079-.843.117q-1.511.207-3.022.414-1.356.188-2.711.381c-1.011.145-2.021.3-3.032.439a6.052,6.052,0,0,1-.872.105.557.557,0,0,1-.368-.124l-.033-.022v0a1.875,1.875,0,0,1-.085-.726c.009-.534.013-1.069.022-1.6.02-1.07.017-2.141,0-3.211-.007-.43-.021-.861-.02-1.291a.675.675,0,0,1,.518-.721,2.625,2.625,0,0,1,.4-.07q.6-.07,1.191-.151c.443-.06.885-.125,1.328-.188l1.314-.189q.643-.091,1.286-.181c.443-.061.886-.119,1.329-.18q.776-.107,1.552-.219c.419-.06.837-.13,1.257-.184A6.112,6.112,0,0,1,847.035,998.678Z" transform="translate(-835.381 -998.451)" fill="#fef600" fill-rule="evenodd"/>
            <path id="Path_50" data-name="Path 50" d="M833.182,991.294a6.114,6.114,0,0,0-1.051.128c-.42.055-.838.124-1.257.184q-.775.112-1.551.219c-.443.061-.887.119-1.329.18s-.858.12-1.286.181l-1.314.188c-.443.063-.885.128-1.328.188q-.595.081-1.191.151a2.642,2.642,0,0,0-.4.07.675.675,0,0,0-.518.721c0,.43.014.861.02,1.291.017,1.07.019,2.141,0,3.211-.01.535-.013,1.069-.022,1.6a1.88,1.88,0,0,0,.085.726c-.4-.148-.51-.287-.508-.713,0-.952.023-1.9.027-2.855.005-1.084.01-2.169-.021-3.253a2.43,2.43,0,0,1,.015-.354.626.626,0,0,1,.546-.616c.393-.087.8-.11,1.194-.166.918-.131,1.836-.255,2.754-.383.979-.137,1.957-.28,2.936-.414,1.148-.157,2.3-.314,3.439-.5A.956.956,0,0,1,833.182,991.294Z" transform="translate(-821.528 -991.068)" fill="#bbac04" fill-rule="evenodd"/>
          </g>
          <path id="Path_51" data-name="Path 51" d="M838.691,1304.806l.033.022C838.706,1304.831,838.693,1304.826,838.691,1304.806Z" transform="translate(-838.184 -1295.539)" fill="#bbac04" fill-rule="evenodd"/>
          <path id="Path_52" data-name="Path 52" d="M838.691,1304.806l.033.022C838.706,1304.831,838.693,1304.826,838.691,1304.806Z" transform="translate(-838.184 -1295.539)" fill="#bbac04" fill-rule="evenodd"/>
        </g>
      </g>
      <g id="Layer_4" data-name="Layer 4" transform="translate(31.558 25.055)">
        <g id="Group_17" data-name="Group 17" transform="translate(0)">
          <path id="Path_53" data-name="Path 53" d="M1344.589,979.271a.456.456,0,0,1,.346.518c0,.535-.005,1.07-.006,1.606,0,1.033,0,2.066-.006,3.1-.008.962-.015,1.923-.007,2.885a5.285,5.285,0,0,1,0,.7.564.564,0,0,1-.538.577c-.547.085-1.1.153-1.645.229q-1.483.206-2.966.413t-2.936.421a.615.615,0,0,1-.481-.117,1.435,1.435,0,0,1-.088-.354q.006-3.042,0-6.083c0-.7-.013-1.4,0-2.1.011-.455.16-.64.58-.727.055-.011.112-.011.168-.019.386-.054.771-.109,1.157-.162s.763-.1,1.145-.151.762-.109,1.143-.162.735-.1,1.1-.151.734-.108,1.1-.162.7-.113,1.058-.156A4.445,4.445,0,0,1,1344.589,979.271Z" transform="translate(-1335.839 -979.049)" fill="#65ba2c" fill-rule="evenodd"/>
          <path id="Path_54" data-name="Path 54" d="M1330.74,972.08a4.411,4.411,0,0,0-.867.1c-.354.043-.706.1-1.058.156s-.733.11-1.1.162-.735.1-1.1.151-.762.11-1.143.162-.763.1-1.145.15-.771.108-1.157.162c-.056.008-.113.008-.169.019-.42.087-.569.272-.579.727-.017.7,0,1.4,0,2.1q0,3.041,0,6.083a1.423,1.423,0,0,0,.088.354c-.1-.054-.213-.1-.313-.165a.486.486,0,0,1-.2-.461c0-.555,0-1.109,0-1.663.017-2.085.024-4.169,0-6.254a3.384,3.384,0,0,1,.017-.369.557.557,0,0,1,.509-.558c.466-.077.937-.135,1.405-.2,1.059-.146,2.119-.289,3.179-.439.993-.141,1.986-.287,2.978-.433A.906.906,0,0,1,1330.74,972.08Z" transform="translate(-1321.99 -971.858)" fill="#367219" fill-rule="evenodd"/>
          <path id="Path_55" data-name="Path 55" d="M1344.589,979.271a.456.456,0,0,1,.346.518c0,.535-.005,1.07-.006,1.606,0,1.033,0,2.066-.006,3.1-.008.962-.015,1.923-.007,2.885a5.285,5.285,0,0,1,0,.7.564.564,0,0,1-.538.577c-.547.085-1.1.153-1.645.229q-1.483.206-2.966.413t-2.936.421a.615.615,0,0,1-.481-.117,1.435,1.435,0,0,1-.088-.354q.006-3.042,0-6.083c0-.7-.013-1.4,0-2.1.011-.455.16-.64.58-.727.055-.011.112-.011.168-.019.386-.054.771-.109,1.157-.162s.763-.1,1.145-.151.762-.109,1.143-.162.735-.1,1.1-.151.734-.108,1.1-.162.7-.113,1.058-.156A4.445,4.445,0,0,1,1344.589,979.271Z" transform="translate(-1335.839 -979.049)" fill="#65ba2c" fill-rule="evenodd"/>
          <path id="Path_56" data-name="Path 56" d="M1330.74,972.08a4.411,4.411,0,0,0-.867.1c-.354.043-.706.1-1.058.156s-.733.11-1.1.162-.735.1-1.1.151-.762.11-1.143.162-.763.1-1.145.15-.771.108-1.157.162c-.056.008-.113.008-.169.019-.42.087-.569.272-.579.727-.017.7,0,1.4,0,2.1q0,3.041,0,6.083a1.423,1.423,0,0,0,.088.354c-.1-.054-.213-.1-.313-.165a.486.486,0,0,1-.2-.461c0-.555,0-1.109,0-1.663.017-2.085.024-4.169,0-6.254a3.384,3.384,0,0,1,.017-.369.557.557,0,0,1,.509-.558c.466-.077.937-.135,1.405-.2,1.059-.146,2.119-.289,3.179-.439.993-.141,1.986-.287,2.978-.433A.906.906,0,0,1,1330.74,972.08Z" transform="translate(-1321.99 -971.858)" fill="#367219" fill-rule="evenodd"/>
        </g>
      </g>
      <g id="Layer_3" data-name="Layer 3" transform="translate(26.323 15.197)">
        <g id="Group_18" data-name="Group 18" transform="translate(0 0)">
          <path id="Path_57" data-name="Path 57" d="M1172.426,645.922a.408.408,0,0,1,.31.363,4.528,4.528,0,0,1,.016.836c-.034,1.875-.017,3.751-.011,5.626,0,.062,0,.123,0,.185a.664.664,0,0,1-.665.748c-1.331.184-2.661.364-3.992.549s-2.632.374-3.948.555c-1.148.158-2.3.315-3.441.491-.276.042-.552.082-.828.121a.777.777,0,0,1-.58-.133,1.822,1.822,0,0,1-.111-.888c.011-.62,0-1.239.018-1.859.019-.875.03-1.751-.013-2.627-.024-.492-.018-.986,0-1.478a.688.688,0,0,1,.616-.757c.175-.034.352-.058.528-.083.321-.045.642-.088.964-.132.367-.051.735-.1,1.1-.152s.764-.1,1.146-.151c.446-.061.892-.128,1.339-.19.367-.051.736-.1,1.1-.15.432-.061.863-.13,1.3-.191s.876-.115,1.313-.177.863-.13,1.3-.192.846-.118,1.27-.178A6.9,6.9,0,0,1,1172.426,645.922Z" transform="translate(-1158.739 -645.688)" fill="#2588c9" fill-rule="evenodd"/>
          <path id="Path_58" data-name="Path 58" d="M1158.448,638.32a6.915,6.915,0,0,0-1.275.136c-.423.06-.847.117-1.27.178s-.863.131-1.3.193-.876.116-1.313.177-.864.129-1.3.191c-.367.052-.736.1-1.1.15-.447.062-.892.129-1.339.19-.381.052-.764.1-1.145.151s-.735.1-1.1.152c-.321.044-.642.087-.963.132-.177.025-.354.048-.528.083a.689.689,0,0,0-.617.757c-.016.492-.022.986,0,1.478.043.876.032,1.752.013,2.627-.013.62-.007,1.24-.018,1.859a1.816,1.816,0,0,0,.111.888.774.774,0,0,1-.547-.865q.053-2.542.027-5.085c0-.383-.026-.768,0-1.15a.7.7,0,0,1,.717-.758c1.265-.176,2.531-.344,3.8-.52q1.975-.274,3.948-.557,2.2-.312,4.4-.629A1.019,1.019,0,0,1,1158.448,638.32Z" transform="translate(-1144.76 -638.086)" fill="#1e65a2" fill-rule="evenodd"/>
          <path id="Path_59" data-name="Path 59" d="M1172.426,645.922a.408.408,0,0,1,.31.363,4.528,4.528,0,0,1,.016.836c-.034,1.875-.017,3.751-.011,5.626,0,.062,0,.123,0,.185a.664.664,0,0,1-.665.748c-1.331.184-2.661.364-3.992.549s-2.632.374-3.948.555c-1.148.158-2.3.315-3.441.491-.276.042-.552.082-.828.121a.777.777,0,0,1-.58-.133,1.822,1.822,0,0,1-.111-.888c.011-.62,0-1.239.018-1.859.019-.875.03-1.751-.013-2.627-.024-.492-.018-.986,0-1.478a.688.688,0,0,1,.616-.757c.175-.034.352-.058.528-.083.321-.045.642-.088.964-.132.367-.051.735-.1,1.1-.152s.764-.1,1.146-.151c.446-.061.892-.128,1.339-.19.367-.051.736-.1,1.1-.15.432-.061.863-.13,1.3-.191s.876-.115,1.313-.177.863-.13,1.3-.192.846-.118,1.27-.178A6.9,6.9,0,0,1,1172.426,645.922Z" transform="translate(-1158.739 -645.688)" fill="#2588c9" fill-rule="evenodd"/>
          <path id="Path_60" data-name="Path 60" d="M1158.448,638.32a6.915,6.915,0,0,0-1.275.136c-.423.06-.847.117-1.27.178s-.863.131-1.3.193-.876.116-1.313.177-.864.129-1.3.191c-.367.052-.736.1-1.1.15-.447.062-.892.129-1.339.19-.381.052-.764.1-1.145.151s-.735.1-1.1.152c-.321.044-.642.087-.963.132-.177.025-.354.048-.528.083a.689.689,0,0,0-.617.757c-.016.492-.022.986,0,1.478.043.876.032,1.752.013,2.627-.013.62-.007,1.24-.018,1.859a1.816,1.816,0,0,0,.111.888.774.774,0,0,1-.547-.865q.053-2.542.027-5.085c0-.383-.026-.768,0-1.15a.7.7,0,0,1,.717-.758c1.265-.176,2.531-.344,3.8-.52q1.975-.274,3.948-.557,2.2-.312,4.4-.629A1.019,1.019,0,0,1,1158.448,638.32Z" transform="translate(-1144.76 -638.086)" fill="#1e65a2" fill-rule="evenodd"/>
        </g>
      </g>
      <g id="Layer_2" data-name="Layer 2" transform="translate(12.4)">
        <path id="Path_61" data-name="Path 61" d="M983.322,140.231a2.83,2.83,0,0,0-.745.071c-1.1.153-2.191.314-3.286.472s-2.191.315-3.287.471q-1.56.221-3.12.438-1.588.222-3.176.443c-1,.138-2.006.273-3.009.411-.67.092-1.342.175-2.008.287-.474.08-.634.311-.617.794a1.219,1.219,0,0,0,.008.128,9.9,9.9,0,0,1,.017,1.121.384.384,0,0,1-.421.419,5.244,5.244,0,0,0-.981.141.457.457,0,0,1-.444-.071.012.012,0,0,0-.014-.01l-.009,0-.033-.021v0a3.943,3.943,0,0,1-.055-.943q0-.944,0-1.888,0-1.235.006-2.47a7.063,7.063,0,0,0,.02-.832,8.032,8.032,0,0,1,.144-1.448,5.168,5.168,0,0,1,.861-2,5.37,5.37,0,0,1,1.158-1.138c.158-.1.311-.2.474-.285a2.04,2.04,0,0,1,.629-.284c.419-.064.841-.119,1.261-.178l1.765-.25,1.682-.236c.574-.081,1.148-.165,1.723-.246s1.14-.155,1.71-.236c.705-.1,1.41-.2,2.115-.3.64-.09,1.281-.174,1.921-.265.771-.109,1.54-.222,2.311-.332.737-.1,1.475-.211,2.214-.308a1.277,1.277,0,0,1,.461-.038,7.411,7.411,0,0,1,1.058.314,2.842,2.842,0,0,1,1.8,2.106,3.654,3.654,0,0,1,.115.956q-.017,9.694-.035,19.387-.011,5.991-.025,11.982c-.008,3.53.006,7.059-.036,10.589a4.16,4.16,0,0,1-1.993,3.593,3.793,3.793,0,0,1-1.582.543c-1.092.152-2.182.315-3.274.472s-2.183.312-3.275.466q-1.567.222-3.134.443-1.6.222-3.193.439c-1.018.139-2.036.272-3.052.417a3.524,3.524,0,0,1-1.94-.158,4.769,4.769,0,0,1-.525-.275.016.016,0,0,0-.017-.017h-.005l-.034-.021,0,0a.042.042,0,0,0-.058-.031h0c.006-.064-.047-.09-.084-.123a3.546,3.546,0,0,1-1.025-1.851,9.4,9.4,0,0,1-.2-2.047V174.9c0-.671,0-1.342,0-2.013a2.751,2.751,0,0,1,.058-.73.573.573,0,0,1,.43-.283,4.81,4.81,0,0,1,1.174-.111c.217.067.254.249.272.437.042.439.018.88.025,1.321a4.2,4.2,0,0,0,.059.834.489.489,0,0,0,.109.257.335.335,0,0,0,.262.195,1.847,1.847,0,0,0,.663.013c.394-.044.786-.1,1.178-.158l1.5-.209,1.737-.245,1.5-.209,1.722-.246,1.5-.21c.5-.071,1.008-.144,1.513-.215s1.037-.141,1.556-.213,1.018-.144,1.527-.215,1.028-.14,1.542-.211c.589-.081,1.177-.16,1.765-.246a10.477,10.477,0,0,0,1.076-.167.588.588,0,0,0,.472-.5,1.765,1.765,0,0,0,.026-.31c.014-5.2-.022-10.4.022-15.6.017-2.032,0-4.065.006-6.1,0-.772,0-1.544.007-2.316.034-.047.017-.1.017-.152q0-2.43,0-4.86c0-.543,0-1.086,0-1.628a1.082,1.082,0,0,0-.037-.264A.382.382,0,0,0,983.322,140.231Zm-10.715,39.631h0c.021.049.07.061.111.083a1.842,1.842,0,0,0,1.3.172,2.437,2.437,0,0,0,1.548-1.077,2.36,2.36,0,0,0,.41-.864,2.32,2.32,0,0,0-.3-2,1.443,1.443,0,0,0-.761-.606h0l-.029-.022a1.816,1.816,0,0,0-1.577.044,2.685,2.685,0,0,0-1.6,2.45,1.986,1.986,0,0,0,.881,1.826l.01,0Z" transform="translate(-953.556 -131.394)" fill="#161314" fill-rule="evenodd"/>
        <path id="Path_62" data-name="Path 62" d="M1053.733,429.782c0,.772-.006,1.544-.007,2.316,0,2.032.012,4.065-.006,6.1-.045,5.2-.009,10.4-.023,15.6a1.79,1.79,0,0,1-.026.31.588.588,0,0,1-.472.5,10.474,10.474,0,0,1-1.076.167c-.588.085-1.177.165-1.765.246-.514.071-1.028.139-1.542.211s-1.018.144-1.527.215-1.037.141-1.556.213-1.008.143-1.513.215l-1.5.21-1.722.246-1.5.209-1.737.245-1.5.209c-.392.054-.784.114-1.177.158a1.851,1.851,0,0,1-.663-.013.335.335,0,0,1-.262-.195c.981-.043,1.943-.236,2.914-.363s1.949-.273,2.924-.41l3.135-.441,2.952-.413,2.953-.41q1.5-.208,3.009-.415a6.029,6.029,0,0,0,.7-.111.583.583,0,0,0,.5-.557,2.387,2.387,0,0,0,.023-.354q0-7.014.006-14.027.009-6.075.034-12.151.006-2.011.018-4.022a2.855,2.855,0,0,0-.058-.7.382.382,0,0,1,.444.307,1.071,1.071,0,0,1,.037.264c0,.543,0,1.086,0,1.628-.026.027-.018.062-.018.094Q1053.733,427.323,1053.733,429.782Z" transform="translate(-1023.505 -413.732)" fill="#82080f" fill-rule="evenodd"/>
        <path id="Path_63" data-name="Path 63" d="M1044.265,124.14a7.411,7.411,0,0,0-1.058-.314,1.278,1.278,0,0,0-.461.038c-.739.1-1.476.2-2.214.308-.771.109-1.541.223-2.311.332-.64.09-1.281.175-1.92.265-.705.1-1.41.2-2.115.3-.57.08-1.141.156-1.71.236s-1.149.164-1.723.246l-1.681.236-1.765.25c-.42.059-.841.114-1.261.178a2.041,2.041,0,0,0-.629.284c-.162.086-.316.19-.474.285l-.4-.23a3.252,3.252,0,0,1,1.57-.658c1.057-.12,2.108-.289,3.162-.436l3.133-.439,3.133-.441,3.133-.439,3.119-.438.871-.124a.26.26,0,0,1,.1,0,6.783,6.783,0,0,1,1.369.451C1044.18,124.058,1044.252,124.064,1044.265,124.14Z" transform="translate(-1014.167 -123.576)" fill="#950e16" fill-rule="evenodd"/>
        <path id="Path_64" data-name="Path 64" d="M951.808,224.467l.4.23a5.365,5.365,0,0,0-1.158,1.138,5.165,5.165,0,0,0-.861,2,8.042,8.042,0,0,0-.144,1.448,6.129,6.129,0,0,0-.02.832q0,1.235-.006,2.47,0,.944,0,1.888a3.942,3.942,0,0,0,.055.943c-.4-.153-.484-.262-.483-.678,0-1.7,0-3.4.011-5.1a9.771,9.771,0,0,1,.188-2.175,4.875,4.875,0,0,1,1.931-2.946C951.751,224.5,951.78,224.484,951.808,224.467Z" transform="translate(-941.436 -221.487)" fill="#82080f" fill-rule="evenodd"/>
        <path id="Path_65" data-name="Path 65" d="M947.339,1501.92a9.4,9.4,0,0,0,.2,2.047,3.546,3.546,0,0,0,1.025,1.851c.037.032.09.059.084.122a2.308,2.308,0,0,1-.849-.712,4.079,4.079,0,0,1-.769-1.882,17.035,17.035,0,0,1-.136-2.635c-.02-1.77.039-3.541.021-5.312a.807.807,0,0,1,.081-.408,1.619,1.619,0,0,1,.4.254,2.745,2.745,0,0,0-.058.73c0,.671,0,1.342,0,2.012-.029.032-.018.072-.018.109q0,1.851,0,3.7C947.32,1501.838,947.307,1501.883,947.339,1501.92Z" transform="translate(-938.811 -1454.484)" fill="#82080f" fill-rule="evenodd"/>
        <path id="Path_66" data-name="Path 66" d="M950.9,1482.352a1.62,1.62,0,0,0-.4-.253.534.534,0,0,1,.45-.276c.284-.046.57-.076.855-.111a1.067,1.067,0,0,1,.7.248,4.813,4.813,0,0,0-1.174.11A.573.573,0,0,0,950.9,1482.352Z" transform="translate(-942.311 -1441.591)" fill="#950e16" fill-rule="evenodd"/>
        <path id="Path_67" data-name="Path 67" d="M1006.388,1865.584a.042.042,0,0,1,.058.031C1006.421,1865.616,1006.4,1865.613,1006.388,1865.584Z" transform="translate(-996.552 -1814.129)" fill="#82080f" fill-rule="evenodd"/>
        <path id="Path_68" data-name="Path 68" d="M965.935,595.183l.034.021C965.95,595.208,965.937,595.2,965.935,595.183Z" transform="translate(-957.293 -581.253)" fill="#82080f" fill-rule="evenodd"/>
        <path id="Path_69" data-name="Path 69" d="M967.358,595.96a.012.012,0,0,1,.014.01l-.011,0Z" transform="translate(-958.674 -582.007)" fill="#82080f" fill-rule="evenodd"/>
        <path id="Path_70" data-name="Path 70" d="M673.355,987.821l.032.021Z" transform="translate(-673.355 -962.294)" fill="#950e16" fill-rule="evenodd"/>
        <path id="Path_71" data-name="Path 71" d="M983.322,140.231a2.83,2.83,0,0,0-.745.071c-1.1.153-2.191.314-3.286.472s-2.191.315-3.287.471q-1.56.221-3.12.438-1.588.222-3.176.443c-1,.138-2.006.273-3.009.411-.67.092-1.342.175-2.008.287-.474.08-.634.311-.617.794a1.219,1.219,0,0,0,.008.128,9.9,9.9,0,0,1,.017,1.121.384.384,0,0,1-.421.419,5.244,5.244,0,0,0-.981.141.457.457,0,0,1-.444-.071.012.012,0,0,0-.014-.01l-.009,0-.033-.021v0a3.943,3.943,0,0,1-.055-.943q0-.944,0-1.888,0-1.235.006-2.47a7.063,7.063,0,0,0,.02-.832,8.032,8.032,0,0,1,.144-1.448,5.168,5.168,0,0,1,.861-2,5.37,5.37,0,0,1,1.158-1.138c.158-.1.311-.2.474-.285a2.04,2.04,0,0,1,.629-.284c.419-.064.841-.119,1.261-.178l1.765-.25,1.682-.236c.574-.081,1.148-.165,1.723-.246s1.14-.155,1.71-.236c.705-.1,1.41-.2,2.115-.3.64-.09,1.281-.174,1.921-.265.771-.109,1.54-.222,2.311-.332.737-.1,1.475-.211,2.214-.308a1.277,1.277,0,0,1,.461-.038,7.411,7.411,0,0,1,1.058.314,2.842,2.842,0,0,1,1.8,2.106,3.654,3.654,0,0,1,.115.956q-.017,9.694-.035,19.387-.011,5.991-.025,11.982c-.008,3.53.006,7.059-.036,10.589a4.16,4.16,0,0,1-1.993,3.593,3.793,3.793,0,0,1-1.582.543c-1.092.152-2.182.315-3.274.472s-2.183.312-3.275.466q-1.567.222-3.134.443-1.6.222-3.193.439c-1.018.139-2.036.272-3.052.417a3.524,3.524,0,0,1-1.94-.158,4.769,4.769,0,0,1-.525-.275.016.016,0,0,0-.017-.017h-.005l-.034-.021,0,0a.042.042,0,0,0-.058-.031h0c.006-.064-.047-.09-.084-.123a3.546,3.546,0,0,1-1.025-1.851,9.4,9.4,0,0,1-.2-2.047V174.9c0-.671,0-1.342,0-2.013a2.751,2.751,0,0,1,.058-.73.573.573,0,0,1,.43-.283,4.81,4.81,0,0,1,1.174-.111c.217.067.254.249.272.437.042.439.018.88.025,1.321a4.2,4.2,0,0,0,.059.834.489.489,0,0,0,.109.257.335.335,0,0,0,.262.195,1.847,1.847,0,0,0,.663.013c.394-.044.786-.1,1.178-.158l1.5-.209,1.737-.245,1.5-.209,1.722-.246,1.5-.21c.5-.071,1.008-.144,1.513-.215s1.037-.141,1.556-.213,1.018-.144,1.527-.215,1.028-.14,1.542-.211c.589-.081,1.177-.16,1.765-.246a10.477,10.477,0,0,0,1.076-.167.588.588,0,0,0,.472-.5,1.765,1.765,0,0,0,.026-.31c.014-5.2-.022-10.4.022-15.6.017-2.032,0-4.065.006-6.1,0-.772,0-1.544.007-2.316.034-.047.017-.1.017-.152q0-2.43,0-4.86c0-.543,0-1.086,0-1.628a1.082,1.082,0,0,0-.037-.264A.382.382,0,0,0,983.322,140.231Zm-10.715,39.631h0c.021.049.07.061.111.083a1.842,1.842,0,0,0,1.3.172,2.437,2.437,0,0,0,1.548-1.077,2.36,2.36,0,0,0,.41-.864,2.32,2.32,0,0,0-.3-2,1.443,1.443,0,0,0-.761-.606h0l-.029-.022a1.816,1.816,0,0,0-1.577.044,2.685,2.685,0,0,0-1.6,2.45,1.986,1.986,0,0,0,.881,1.826l.01,0Z" transform="translate(-953.556 -131.394)" fill="#161314" fill-rule="evenodd"/>
        <path id="Path_72" data-name="Path 72" d="M1053.733,429.782c0,.772-.006,1.544-.007,2.316,0,2.032.012,4.065-.006,6.1-.045,5.2-.009,10.4-.023,15.6a1.79,1.79,0,0,1-.026.31.588.588,0,0,1-.472.5,10.474,10.474,0,0,1-1.076.167c-.588.085-1.177.165-1.765.246-.514.071-1.028.139-1.542.211s-1.018.144-1.527.215-1.037.141-1.556.213-1.008.143-1.513.215l-1.5.21-1.722.246-1.5.209-1.737.245-1.5.209c-.392.054-.784.114-1.177.158a1.851,1.851,0,0,1-.663-.013.335.335,0,0,1-.262-.195c.981-.043,1.943-.236,2.914-.363s1.949-.273,2.924-.41l3.135-.441,2.952-.413,2.953-.41q1.5-.208,3.009-.415a6.029,6.029,0,0,0,.7-.111.583.583,0,0,0,.5-.557,2.387,2.387,0,0,0,.023-.354q0-7.014.006-14.027.009-6.075.034-12.151.006-2.011.018-4.022a2.855,2.855,0,0,0-.058-.7.382.382,0,0,1,.444.307,1.071,1.071,0,0,1,.037.264c0,.543,0,1.086,0,1.628-.026.027-.018.062-.018.094Q1053.733,427.323,1053.733,429.782Z" transform="translate(-1023.505 -413.732)" fill="#82080f" fill-rule="evenodd"/>
        <path id="Path_73" data-name="Path 73" d="M1044.265,124.14a7.411,7.411,0,0,0-1.058-.314,1.278,1.278,0,0,0-.461.038c-.739.1-1.476.2-2.214.308-.771.109-1.541.223-2.311.332-.64.09-1.281.175-1.92.265-.705.1-1.41.2-2.115.3-.57.08-1.141.156-1.71.236s-1.149.164-1.723.246l-1.681.236-1.765.25c-.42.059-.841.114-1.261.178a2.041,2.041,0,0,0-.629.284c-.162.086-.316.19-.474.285l-.4-.23a3.252,3.252,0,0,1,1.57-.658c1.057-.12,2.108-.289,3.162-.436l3.133-.439,3.133-.441,3.133-.439,3.119-.438.871-.124a.26.26,0,0,1,.1,0,6.783,6.783,0,0,1,1.369.451C1044.18,124.058,1044.252,124.064,1044.265,124.14Z" transform="translate(-1014.167 -123.576)" fill="#950e16" fill-rule="evenodd"/>
        <path id="Path_74" data-name="Path 74" d="M951.808,224.467l.4.23a5.365,5.365,0,0,0-1.158,1.138,5.165,5.165,0,0,0-.861,2,8.042,8.042,0,0,0-.144,1.448,6.129,6.129,0,0,0-.02.832q0,1.235-.006,2.47,0,.944,0,1.888a3.942,3.942,0,0,0,.055.943c-.4-.153-.484-.262-.483-.678,0-1.7,0-3.4.011-5.1a9.771,9.771,0,0,1,.188-2.175,4.875,4.875,0,0,1,1.931-2.946C951.751,224.5,951.78,224.484,951.808,224.467Z" transform="translate(-941.436 -221.487)" fill="#82080f" fill-rule="evenodd"/>
        <path id="Path_75" data-name="Path 75" d="M947.339,1501.92a9.4,9.4,0,0,0,.2,2.047,3.546,3.546,0,0,0,1.025,1.851c.037.032.09.059.084.122a2.308,2.308,0,0,1-.849-.712,4.079,4.079,0,0,1-.769-1.882,17.035,17.035,0,0,1-.136-2.635c-.02-1.77.039-3.541.021-5.312a.807.807,0,0,1,.081-.408,1.619,1.619,0,0,1,.4.254,2.745,2.745,0,0,0-.058.73c0,.671,0,1.342,0,2.012-.029.032-.018.072-.018.109q0,1.851,0,3.7C947.32,1501.838,947.307,1501.883,947.339,1501.92Z" transform="translate(-938.811 -1454.484)" fill="#82080f" fill-rule="evenodd"/>
        <path id="Path_76" data-name="Path 76" d="M950.9,1482.352a1.62,1.62,0,0,0-.4-.253.534.534,0,0,1,.45-.276c.284-.046.57-.076.855-.111a1.067,1.067,0,0,1,.7.248,4.813,4.813,0,0,0-1.174.11A.573.573,0,0,0,950.9,1482.352Z" transform="translate(-942.311 -1441.591)" fill="#950e16" fill-rule="evenodd"/>
        <path id="Path_77" data-name="Path 77" d="M1006.388,1865.584a.042.042,0,0,1,.058.031C1006.421,1865.616,1006.4,1865.613,1006.388,1865.584Z" transform="translate(-996.552 -1814.129)" fill="#82080f" fill-rule="evenodd"/>
        <path id="Path_78" data-name="Path 78" d="M965.935,595.183l.034.021C965.95,595.208,965.937,595.2,965.935,595.183Z" transform="translate(-957.293 -581.253)" fill="#82080f" fill-rule="evenodd"/>
        <path id="Path_79" data-name="Path 79" d="M967.358,595.96a.012.012,0,0,1,.014.01l-.011,0Z" transform="translate(-958.674 -582.007)" fill="#82080f" fill-rule="evenodd"/>
        <path id="Path_80" data-name="Path 80" d="M673.355,987.821l.032.021Z" transform="translate(-673.355 -962.294)" fill="#950e16" fill-rule="evenodd"/>
        <path id="Path_81" data-name="Path 81" d="M1008.269,1866.646l.034.021C1008.285,1866.671,1008.272,1866.667,1008.269,1866.646Z" transform="translate(-998.377 -1815.162)" fill="#82080f" fill-rule="evenodd"/>
        <path id="Path_82" data-name="Path 82" d="M1009.616,1867.41a.016.016,0,0,1,.017.017A.015.015,0,0,1,1009.616,1867.41Z" transform="translate(-999.684 -1815.904)" fill="#82080f" fill-rule="evenodd"/>
        <path id="Path_83" data-name="Path 83" d="M1396.688,1622.309a2.936,2.936,0,0,0,.469-1.336,2.157,2.157,0,0,0-.693-1.87.188.188,0,0,1-.024-.034,1.444,1.444,0,0,1,.761.605,2.322,2.322,0,0,1,.3,2.005,2.363,2.363,0,0,1-.41.864A1.122,1.122,0,0,1,1396.688,1622.309Z" transform="translate(-1375.082 -1574.898)" fill="#82080f" fill-rule="evenodd"/>
        <path id="Path_84" data-name="Path 84" d="M1320.825,1728.75a1.123,1.123,0,0,0,.4.235,2.434,2.434,0,0,1-1.548,1.077,1.841,1.841,0,0,1-1.3-.172c-.041-.022-.089-.034-.111-.083.13.019.259.048.39.056a2.347,2.347,0,0,0,1.98-.883C1320.7,1728.906,1320.763,1728.827,1320.825,1728.75Z" transform="translate(-1299.22 -1681.338)" fill="#950e16" fill-rule="evenodd"/>
        <path id="Path_85" data-name="Path 85" d="M1696.766,502.289q0-2.459,0-4.918c0-.032-.009-.067.017-.094q0,2.43,0,4.861C1696.783,502.188,1696.8,502.242,1696.766,502.289Z" transform="translate(-1666.538 -486.239)" fill="#367219" fill-rule="evenodd"/>
        <path id="Path_86" data-name="Path 86" d="M961.387,1600.372c-.031-.037-.018-.082-.019-.122q0-1.851,0-3.7c0-.036-.011-.076.018-.108Z" transform="translate(-952.859 -1552.937)" fill="#367219" fill-rule="evenodd"/>
        <path id="Path_87" data-name="Path 87" d="M964.151,388.4a6.071,6.071,0,0,1,.02-.832A7.091,7.091,0,0,1,964.151,388.4Z" transform="translate(-955.557 -379.769)" fill="#367219" fill-rule="evenodd"/>
        <path id="Path_88" data-name="Path 88" d="M1395.445,1618.313c-.017,0-.027,0-.029-.022Z" transform="translate(-1374.089 -1574.142)" fill="#82080f" fill-rule="evenodd"/>
        <path id="Path_89" data-name="Path 89" d="M1317.647,1764.141c.007-.015.014-.019.021,0l-.011,0Z" transform="translate(-1298.617 -1715.672)" fill="#950e16" fill-rule="evenodd"/>
        <path id="Path_90" data-name="Path 90" d="M1008.269,1866.646l.034.021C1008.285,1866.671,1008.272,1866.667,1008.269,1866.646Z" transform="translate(-998.377 -1815.162)" fill="#82080f" fill-rule="evenodd"/>
        <path id="Path_91" data-name="Path 91" d="M1009.616,1867.41a.016.016,0,0,1,.017.017A.015.015,0,0,1,1009.616,1867.41Z" transform="translate(-999.684 -1815.904)" fill="#82080f" fill-rule="evenodd"/>
        <path id="Path_92" data-name="Path 92" d="M1396.688,1622.309a2.936,2.936,0,0,0,.469-1.336,2.157,2.157,0,0,0-.693-1.87.188.188,0,0,1-.024-.034,1.444,1.444,0,0,1,.761.605,2.322,2.322,0,0,1,.3,2.005,2.363,2.363,0,0,1-.41.864A1.122,1.122,0,0,1,1396.688,1622.309Z" transform="translate(-1375.082 -1574.898)" fill="#82080f" fill-rule="evenodd"/>
        <path id="Path_93" data-name="Path 93" d="M1320.825,1728.75a1.123,1.123,0,0,0,.4.235,2.434,2.434,0,0,1-1.548,1.077,1.841,1.841,0,0,1-1.3-.172c-.041-.022-.089-.034-.111-.083.13.019.259.048.39.056a2.347,2.347,0,0,0,1.98-.883C1320.7,1728.906,1320.763,1728.827,1320.825,1728.75Z" transform="translate(-1299.22 -1681.338)" fill="#950e16" fill-rule="evenodd"/>
        <path id="Path_94" data-name="Path 94" d="M1696.766,502.289q0-2.459,0-4.918c0-.032-.009-.067.017-.094q0,2.43,0,4.861C1696.783,502.188,1696.8,502.242,1696.766,502.289Z" transform="translate(-1666.538 -486.239)" fill="#367219" fill-rule="evenodd"/>
        <path id="Path_95" data-name="Path 95" d="M961.387,1600.372c-.031-.037-.018-.082-.019-.122q0-1.851,0-3.7c0-.036-.011-.076.018-.108Z" transform="translate(-952.859 -1552.937)" fill="#367219" fill-rule="evenodd"/>
        <path id="Path_96" data-name="Path 96" d="M964.151,388.4a6.071,6.071,0,0,1,.02-.832A7.091,7.091,0,0,1,964.151,388.4Z" transform="translate(-955.557 -379.769)" fill="#367219" fill-rule="evenodd"/>
        <path id="Path_97" data-name="Path 97" d="M1395.445,1618.313c-.017,0-.027,0-.029-.022Z" transform="translate(-1374.089 -1574.142)" fill="#82080f" fill-rule="evenodd"/>
        <path id="Path_98" data-name="Path 98" d="M1317.647,1764.141c.007-.015.014-.019.021,0l-.011,0Z" transform="translate(-1298.617 -1715.672)" fill="#950e16" fill-rule="evenodd"/>
      </g>
    </g>
  </g>
</svg>
