<svg id="Component_2_1" data-name="Component 2 – 1" xmlns="http://www.w3.org/2000/svg" xmlns:xlink="http://www.w3.org/1999/xlink" width="112" height="136" viewBox="0 0 112 136">
  <defs>
    <clipPath id="clip-path">
      <circle id="Ellipse_225" data-name="Ellipse 225" cx="56" cy="56" r="56" transform="translate(57 218)" fill="#fff"/>
    </clipPath>
  </defs>
  <g id="Component_1_1" data-name="Component 1 – 1">
    <g id="Ellipse_210" data-name="Ellipse 210" fill="#fff" stroke="#3897f1" stroke-width="2">
      <circle cx="56" cy="56" r="56" stroke="none"/>
      <circle cx="56" cy="56" r="55" fill="none"/>
    </g>
    <text id="Male" transform="translate(40 132)" fill="#3897f1" font-size="14" font-family="SegoeUI-Bold, Segoe UI" font-weight="700"><tspan x="0" y="0">Male</tspan></text>
    <g id="Mask_Group_7" data-name="Mask Group 7" transform="translate(-57 -218)" clip-path="url(#clip-path)">
      <g id="Group_4008" data-name="Group 4008" transform="translate(35.918 -40.178)">
        <rect id="Rectangle_1149" data-name="Rectangle 1149" width="24.552" height="22.538" transform="translate(65.2 313.163)" fill="#f2c2a3"/>
        <path id="Path_5015" data-name="Path 5015" d="M65.331,359.973s7.761,6.124,12.21,9.332V410.71c-21.257-.757-44.3-7.856-44.3-7.856l7.94-27.881Z" transform="translate(0 -34.04)" fill="#f7f7f7"/>
        <path id="Path_5016" data-name="Path 5016" d="M111.912,359.973S104.151,366.1,99.7,369.3V410.71c21.257-.757,44.3-7.856,44.3-7.856l-7.94-27.881Z" transform="translate(-22.161 -34.04)" fill="#fff"/>
        <path id="Path_5017" data-name="Path 5017" d="M99.485,381.306H95.142l-2.395-5.224,4.636-2.109,4.482,2.109Z" transform="translate(-19.842 -38.708)" fill="#3897f1"/>
        <path id="Path_5018" data-name="Path 5018" d="M93.362,418.816c1.412.1,2.823.181,4.226.231q2.028-.072,4.071-.219l-1.984-33.853H95.332Z" transform="translate(-20.047 -42.377)" fill="#3897f1"/>
        <g id="Group_4005" data-name="Group 4005" transform="translate(52.861 295.221)">
          <path id="Path_5019" data-name="Path 5019" d="M67.017,314.88s-1.556-1.424-2.848-.846-1.822,3.159-1.289,5.027,2.936,6.671,4.137,7.294a6.7,6.7,0,0,0,3.158.4Z" transform="translate(-62.675 -313.896)" fill="#f6c1a9"/>
          <path id="Path_5020" data-name="Path 5020" d="M128.439,314.88s1.556-1.424,2.847-.846,1.824,3.159,1.29,5.027-2.936,6.671-4.137,7.294a6.7,6.7,0,0,1-3.157.4Z" transform="translate(-83.551 -313.896)" fill="#f6c1a9"/>
        </g>
        <path id="Path_5021" data-name="Path 5021" d="M110.109,287.721c-1.156-12.1-13.432-16.189-21.17-16.189s-20.015,4.091-21.171,16.189,4.67,30.957,6.048,32.6,9.24,5.615,10.509,5.883a29.263,29.263,0,0,0,9.227,0c1.268-.268,9.129-4.237,10.509-5.883S111.265,299.82,110.109,287.721Z" transform="translate(-11.462 -4.549)" fill="#ffd3b6"/>
        <g id="Group_4006" data-name="Group 4006" transform="translate(64.389 291.106)">
          <ellipse id="Ellipse_224" data-name="Ellipse 224" cx="1.601" cy="2.184" rx="1.601" ry="2.184" transform="translate(2.096 4.998)" fill="#1f1f1f"/>
          <path id="Path_5022" data-name="Path 5022" d="M86.27,310.921c.75-.008.833-1.668,0-2.5s-5-.868-6.1-.367S82.833,310.954,86.27,310.921Z" transform="translate(-79.97 -307.724)" fill="#1f1f1f"/>
          <path id="Path_5023" data-name="Path 5023" d="M111.29,317.407c0,1.206.716,2.184,1.6,2.184s1.6-.978,1.6-2.184-.716-2.184-1.6-2.184S111.29,316.2,111.29,317.407Z" transform="translate(-90.414 -310.224)" fill="#1f1f1f"/>
          <path id="Path_5024" data-name="Path 5024" d="M109.491,310.921c-.75-.008-.835-1.668,0-2.5s5-.868,6.1-.367S112.926,310.954,109.491,310.921Z" transform="translate(-89.615 -307.724)" fill="#1f1f1f"/>
        </g>
        <path id="Path_5025" data-name="Path 5025" d="M98.67,333.088a5.917,5.917,0,0,1-1.868-.467,1.9,1.9,0,0,0,3.736,0A5.915,5.915,0,0,1,98.67,333.088Z" transform="translate(-21.194 -24.919)" fill="#d89e84"/>
        <g id="Group_4007" data-name="Group 4007" transform="translate(71.474 312.425)">
          <path id="Path_5026" data-name="Path 5026" d="M90.6,339.707a6.5,6.5,0,0,0,12.005,0Z" transform="translate(-90.599 -339.707)" fill="#b41f20"/>
          <path id="Path_5027" data-name="Path 5027" d="M101.86,342.242a6.321,6.321,0,0,0-9.027,0,6.9,6.9,0,0,0,9.027,0Z" transform="translate(-91.344 -339.92)" fill="#d42e2f"/>
          <path id="Path_5028" data-name="Path 5028" d="M102.278,339.707h-10.7a2.6,2.6,0,0,0,1.487,1.193,24.248,24.248,0,0,0,3.864.284v0a24.241,24.241,0,0,0,3.863-.284A2.6,2.6,0,0,0,102.278,339.707Z" transform="translate(-90.925 -339.707)" fill="#fff"/>
        </g>
        <path id="Path_5029" data-name="Path 5029" d="M111.912,357.348,99.7,368.429l9.3,6.541,4.949-14.6Z" transform="translate(-22.161 -33.164)" fill="#f7f7f7"/>
        <path id="Path_5030" data-name="Path 5030" d="M113.807,357.348l-8.422,52.288s15.252-.515,28.246-4.447l4.325-31.091-22.108-13.733Z" transform="translate(-24.056 -33.164)" fill="#1f1f1f"/>
        <path id="Path_5031" data-name="Path 5031" d="M159.389,410.358l-7.94-27.881c-3.29,10.482-5.19,27.471-5.6,31.381C153.914,412.043,159.389,410.358,159.389,410.358Z" transform="translate(-37.549 -41.544)" fill="#2e2e2e"/>
        <path id="Path_5032" data-name="Path 5032" d="M108.7,275.916c-1-2.708-6.7-8.609-20.6-8.609s-19.605,5.9-20.605,8.609-2.874,7.915-2.291,13.664a47.584,47.584,0,0,0,2.595,10.94l1.238,1.516.75-8L72.407,291l2.416-7.874c2.666.75,13.273,2.625,13.273,2.625s10.606-1.875,13.272-2.625L103.785,291l2.624,3.041.75,8,1.237-1.516a47.566,47.566,0,0,0,2.6-10.94C111.574,283.831,109.7,278.624,108.7,275.916Z" transform="translate(-10.619 -3.14)" fill="#1f1f1f"/>
        <path id="Path_5033" data-name="Path 5033" d="M67.234,275.6s1.1-7.6,9.206-14.428a13.621,13.621,0,0,1,.333,2.388,38.73,38.73,0,0,1,14.4-5.666,9.773,9.773,0,0,1-.291,3.166S98.77,259,103.6,259a13.735,13.735,0,0,1,.333,3.554l2.556-.721a77.132,77.132,0,0,1,4.216,14.847Z" transform="translate(-11.334)" fill="#1f1f1f"/>
        <path id="Path_5034" data-name="Path 5034" d="M108.473,311.363c-.417-.055-3.435-.2-3.435-.2l-.229-.013-1.8-.1-1.67-.015c-1.08-.025-2.122-.012-3.081-.013l-1.376,0-1.216.055-.553.027-.263.012-.127.007-.063,0h-.031l-.057.007-.021,0a2.473,2.473,0,0,0-1.184.5,3.167,3.167,0,0,0-.263.243h0a3.653,3.653,0,0,1-1.935.917H88.306a3.653,3.653,0,0,1-1.935-.917h0a3.277,3.277,0,0,0-.263-.243,2.473,2.473,0,0,0-1.184-.5l-.021,0-.057-.007h-.031l-.063,0-.127-.007-.263-.012-.553-.027-1.216-.055-1.376,0c-.958,0-2-.011-3.081.013l-1.67.015-1.8.1-.229.013s-3.019.148-3.435.2a1.034,1.034,0,0,0-.989,1.028c.017.695-.032,1.078.266,1.308s.709.22,1.042.5a2.286,2.286,0,0,1,.372,1.008c.041.337.1.669.167,1l0,.037v-.016a12.49,12.49,0,0,0,.533,1.792,6.637,6.637,0,0,0,1.028,1.805c.112.141.255.269.382.4l.024.024.053.045.012.009.047.033.1.069.189.136c.162.1.343.189.514.276s.323.125.485.187a12.989,12.989,0,0,0,3.741.54,17.744,17.744,0,0,0,3.475-.243,8.125,8.125,0,0,0,.824-.2l.1-.031.051-.015.025-.007.063-.025.177-.079.353-.15a5.111,5.111,0,0,0,1.34-.928,6.3,6.3,0,0,0,1.526-2.341,4.654,4.654,0,0,0,.179-.632c.035-.178.069-.351.1-.516.006-.032.01-.059.016-.091h0a1.824,1.824,0,0,1,1.747-1.2h1.584a1.824,1.824,0,0,1,1.747,1.2h0c.006.031.01.059.015.091.032.165.066.338.1.516a4.654,4.654,0,0,0,.179.632A6.308,6.308,0,0,0,94.1,319.86a4.214,4.214,0,0,0,.621.509,4.158,4.158,0,0,0,.719.419l.353.15.177.079.063.025.025.007.051.015.1.031a8.127,8.127,0,0,0,.824.2,17.744,17.744,0,0,0,3.475.243,12.989,12.989,0,0,0,3.741-.54c.161-.062.317-.113.485-.187s.352-.181.514-.276l.189-.136.1-.069.047-.033.012-.009.053-.045.024-.024c.127-.131.27-.259.382-.4a6.654,6.654,0,0,0,1.028-1.805,12.488,12.488,0,0,0,.533-1.792v.016l0-.037c.07-.327.127-.659.167-1a2.286,2.286,0,0,1,.372-1.008c.333-.277.745-.267,1.042-.5s.249-.613.266-1.308A1.034,1.034,0,0,0,108.473,311.363Zm-22.533,4.865c0,.155-.01.328-.025.507a3.873,3.873,0,0,1-.087.443,4.705,4.705,0,0,1-1.158,1.969,3.267,3.267,0,0,1-.472.42,2.8,2.8,0,0,1-.551.357l-.347.163-.166.075-.015,0-.043.012-.087.025a7.357,7.357,0,0,1-.723.174,15.126,15.126,0,0,1-3.271.2,10.519,10.519,0,0,1-3.375-.633c-.123-.057-.259-.111-.371-.169l-.3-.175-.181-.148-.09-.073-.022-.018,0,0-.016-.018c-.079-.1-.17-.183-.245-.292a5.4,5.4,0,0,1-.725-1.5,10.471,10.471,0,0,1-.4-1.711,9.961,9.961,0,0,1-.142-1.706c0-.084.007-.079,0-.114a.166.166,0,0,1,.01-.079l.009-.043a2.6,2.6,0,0,1,.131-.325,1.678,1.678,0,0,1,.357-.511,1.628,1.628,0,0,1,.5-.3c.046-.017.075-.039.135-.058l.217-.051.108-.025.054-.013.017,0,.2-.018,1.652-.145,1.642-.057c1.073-.051,2.067-.018,2.987,0,.461.01.9.02,1.32.047l1.212.111,1.015.094a1.149,1.149,0,0,1,.459.213,1.933,1.933,0,0,1,.506.729c.1.221.163.4.161.391s0,.017.01.049a.7.7,0,0,1,.041.2,9.406,9.406,0,0,1,.075,1.137C85.953,315.614,85.951,315.913,85.941,316.228Zm20.261-.389a10.468,10.468,0,0,1-.4,1.711,5.42,5.42,0,0,1-.725,1.5c-.075.109-.165.192-.245.292l-.016.018,0,0-.022.018-.09.073-.181.148-.3.175c-.111.059-.248.112-.371.169a10.518,10.518,0,0,1-3.375.633,15.125,15.125,0,0,1-3.271-.2,7.266,7.266,0,0,1-.723-.174l-.087-.025-.043-.012-.015,0-.166-.075-.347-.163a2.776,2.776,0,0,1-.551-.357,3.266,3.266,0,0,1-.472-.42,4.705,4.705,0,0,1-1.158-1.969,3.873,3.873,0,0,1-.087-.443c-.015-.179-.021-.352-.025-.507-.01-.315-.012-.615-.007-.875a9.409,9.409,0,0,1,.075-1.137.7.7,0,0,1,.041-.2c.007-.032.009-.049.009-.049s.063-.169.161-.391a1.938,1.938,0,0,1,.505-.729,1.156,1.156,0,0,1,.459-.213l1.015-.094L97,312.435c.423-.027.859-.037,1.32-.047.921-.021,1.914-.055,2.987,0l1.642.057,1.652.145.2.018.017,0,.054.013.108.025.217.051c.059.019.088.041.135.058a1.628,1.628,0,0,1,.5.3,1.679,1.679,0,0,1,.357.511,2.6,2.6,0,0,1,.131.325l.009.043a.177.177,0,0,1,.01.079c0,.035,0,.03,0,.114A9.96,9.96,0,0,1,106.2,315.839Z" transform="translate(-12.26 -17.716)" fill="#3897f1"/>
        <path id="Path_5035" data-name="Path 5035" d="M113.807,355.639l-8.422,53.427,3.05-.174L120.8,387.3l-3.84-26.814Z" transform="translate(-24.056 -32.595)" fill="#2e2e2e"/>
        <path id="Path_5036" data-name="Path 5036" d="M33.245,410.358l7.939-27.881c3.291,10.482,5.192,27.471,5.6,31.381C38.719,412.043,33.245,410.358,33.245,410.358Z" transform="translate(-0.001 -41.544)" fill="#2e2e2e"/>
        <path id="Path_5037" data-name="Path 5037" d="M80.363,357.348l12.21,11.081-9.2,6.541-5.05-14.6Z" transform="translate(-15.032 -33.164)" fill="#dae2e3"/>
        <path id="Path_5038" data-name="Path 5038" d="M69.3,357.348l8.423,52.288s-15.252-.515-28.246-4.447L45.155,374.1l22.108-13.733Z" transform="translate(-3.972 -33.164)" fill="#1f1f1f"/>
        <path id="Path_5039" data-name="Path 5039" d="M77.885,355.639l8.422,53.427-3.05-.174L70.892,387.3l3.84-26.814Z" transform="translate(-12.554 -32.595)" fill="#2e2e2e"/>
      </g>
    </g>
  </g>
  <g id="Group_3787" data-name="Group 3787" transform="translate(79.67 84.246)">
    <circle id="Ellipse_1" data-name="Ellipse 1" cx="12.631" cy="12.631" r="12.631" transform="translate(0 0)" fill="#3897f1"/>
    <g id="Group_2" data-name="Group 2" transform="translate(7.629 7.826)">
      <line id="Line_3" data-name="Line 3" x2="10.006" transform="translate(0 5.003)" fill="none" stroke="#fff" stroke-linecap="round" stroke-width="2"/>
      <line id="Line_4" data-name="Line 4" x2="10.006" transform="translate(5.003 0) rotate(90)" fill="none" stroke="#fff" stroke-linecap="round" stroke-width="2"/>
    </g>
  </g>
</svg>
