<svg xmlns="http://www.w3.org/2000/svg" xmlns:xlink="http://www.w3.org/1999/xlink" width="190" height="400" viewBox="0 0 190 400">
  <defs>
    <filter id="Ellipse_1" x="44" y="37" width="106" height="106" filterUnits="userSpaceOnUse">
      <feOffset input="SourceAlpha"/>
      <feGaussianBlur stdDeviation="13" result="blur"/>
      <feFlood flood-opacity="0.259"/>
      <feComposite operator="in" in2="blur"/>
      <feComposite in="SourceGraphic"/>
    </filter>
  </defs>
  <g id="Group_4386" data-name="Group 4386" transform="translate(-55 -248)">
    <text id="No_Invitations" data-name="No Invitations" transform="translate(124 643)" fill="#1f1f1f" font-size="18" font-family="SegoeUI-Bold, Segoe UI" font-weight="700"><tspan x="0" y="0">No Invitations</tspan></text>
    <g id="Group_4335" data-name="Group 4335" transform="translate(23 64)">
      <rect id="Rectangle_1272" data-name="Rectangle 1272" width="190" height="120" rx="10" transform="translate(32 184)" fill="#1f1f1f"/>
      <g id="Group_4334" data-name="Group 4334" transform="translate(58.735 200.868)">
        <text id="You_have_no_invites_but_can_create_one_by_clicking" data-name="You have no invites 
but can create one by 
clicking" transform="translate(68.265 9.132)" fill="#fff" font-size="13" font-family="SegoeUI, Segoe UI"><tspan x="-56.916" y="0">You have no invites </tspan><tspan x="-64.016" y="19">but can create one by </tspan><tspan x="-21.465" y="38">clicking</tspan></text>
        <g id="Group_3542" data-name="Group 3542" transform="translate(57.844 58.748)">
          <g transform="matrix(1, 0, 0, 1, -84.58, -75.62)" filter="url(#Ellipse_1)">
            <circle id="Ellipse_1-2" data-name="Ellipse 1" cx="14" cy="14" r="14" transform="translate(83 76)" fill="#3897f1"/>
          </g>
          <g id="Group_2" data-name="Group 2" transform="translate(9.077 10.279)">
            <line id="Line_3" data-name="Line 3" x2="7.675" transform="translate(0 3.837)" fill="none" stroke="#fff" stroke-linecap="round" stroke-width="2"/>
            <line id="Line_4" data-name="Line 4" x2="7.675" transform="translate(3.837) rotate(90)" fill="none" stroke="#fff" stroke-linecap="round" stroke-width="2"/>
          </g>
        </g>
      </g>
    </g>
    <g id="Group_4385" data-name="Group 4385" transform="translate(-141.361 286.777)">
      <g id="Group_4338" data-name="Group 4338" transform="translate(317.309 228.334)">
        <path id="Path_5623" data-name="Path 5623" d="M345.528,307.007l-.7,6.776-.439,4.234-6.532,63.148c-2.341.752-4.31,1.09-6.289-.923,0,0-1.3-24.19-1.3-45.268,0-4.144.073-9.211.178-14.386.046-2.272.1-4.562.154-6.806.279-11.289.633-21.345.633-21.345Z" transform="translate(-330.27 -292.438)" fill="#fcbb8c"/>
        <path id="Path_5624" data-name="Path 5624" d="M330.679,323.021H344.9l-.439,4.234a10.181,10.181,0,0,0-6.257,1.276c-2.131,1.322-5.46,1.415-7.684,1.3C330.571,327.555,330.624,325.264,330.679,323.021Z" transform="translate(-330.347 -301.676)" fill="#fb927e"/>
      </g>
      <g id="Group_4339" data-name="Group 4339" transform="translate(339.152 229.26)">
        <path id="Path_5625" data-name="Path 5625" d="M376.163,380l-5.7.811-7.328-59.749-.845-6.879-.722-5.883,12.824-14.535s.5,9.583,1.076,20.419c.1,1.852.2,3.738.3,5.622.4,7.589.807,15.1,1.072,19.812C377.555,352.35,376.163,380,376.163,380Z" transform="translate(-361.568 -293.765)" fill="#fcbb8c"/>
        <path id="Path_5626" data-name="Path 5626" d="M376.079,328.643c-1.068-.245-2.3-.5-3.388-.645-2.542-.343-7.131,2.117-9.245,1.9l-.845-6.879H375.78C375.878,324.873,375.978,326.759,376.079,328.643Z" transform="translate(-361.88 -302.602)" fill="#fb927e"/>
      </g>
      <g id="Group_4347" data-name="Group 4347" transform="translate(310.206 134.501)">
        <path id="Path_5627" data-name="Path 5627" d="M372.922,302.2a3.075,3.075,0,0,1-.287.587c-.743,1.235-3.15,3.82-9.682,1.817-.211-.064-.413-.122-.613-.173a10.422,10.422,0,0,0-3.506-.351c-3.841.295-6.146,2.731-13.89.214-6.982-2.268-8.867-.527-12.177.349a12.454,12.454,0,0,1-2.17.379,8.228,8.228,0,0,1-1.166.014,15.278,15.278,0,0,1-7.7-3.2,18.2,18.2,0,0,1-1.638-1.351c.17-.578.341-1.2.516-1.854.673-2.532,1.374-5.606,2.078-8.959.213-1.006.424-2.041.634-3.093.512-2.551,1.018-5.2,1.507-7.86v0a.418.418,0,0,0,.009-.043c.2-1.1.4-2.2.6-3.29.01-.052.019-.1.029-.154.626-3.5,1.214-6.926,1.732-10.026.2-1.184.385-2.318.562-3.393.967-5.907,1.583-9.982,1.583-9.982l18.734,1.316,18.723-.1s.181,2.076.495,5.419c.1,1.048.213,2.223.339,3.5.327,3.349.739,7.385,1.209,11.655q.186,1.673.38,3.387c.915,7.986,2,16.351,3.108,22.277C372.525,300.334,372.723,301.314,372.922,302.2Z" transform="translate(-320.094 -186.337)" fill="#3c3c48"/>
        <g id="Group_4340" data-name="Group 4340" transform="translate(0 69.425)">
          <path id="Path_5628" data-name="Path 5628" d="M337.732,259.287a1.764,1.764,0,1,1-1.706-1.82A1.764,1.764,0,0,1,337.732,259.287Z" transform="translate(-324.357 -257.466)" fill="#445279"/>
          <path id="Path_5629" data-name="Path 5629" d="M343.68,269.273a1.763,1.763,0,1,1-1.7-1.819A1.763,1.763,0,0,1,343.68,269.273Z" transform="translate(-326.154 -260.482)" fill="#445279"/>
          <path id="Path_5630" data-name="Path 5630" d="M356.173,264.623a1.763,1.763,0,1,1-1.705-1.82A1.763,1.763,0,0,1,356.173,264.623Z" transform="translate(-329.927 -259.078)" fill="#445279"/>
          <path id="Path_5631" data-name="Path 5631" d="M336.213,279.431a1.764,1.764,0,1,1-1.706-1.819A1.764,1.764,0,0,1,336.213,279.431Z" transform="translate(-323.898 -263.551)" fill="#445279"/>
          <path id="Path_5632" data-name="Path 5632" d="M351.654,278.852a1.764,1.764,0,1,1-1.7-1.82A1.763,1.763,0,0,1,351.654,278.852Z" transform="translate(-328.562 -263.376)" fill="#445279"/>
          <path id="Path_5633" data-name="Path 5633" d="M331.925,267.82a1.761,1.761,0,0,1-1.655,1.7c.2-1.184.385-2.318.562-3.393A1.764,1.764,0,0,1,331.925,267.82Z" transform="translate(-323.168 -260.083)" fill="#445279"/>
          <path id="Path_5634" data-name="Path 5634" d="M376.277,294.5a1.763,1.763,0,1,1-1.705-1.82A1.763,1.763,0,0,1,376.277,294.5Z" transform="translate(-336 -268.104)" fill="#445279"/>
          <path id="Path_5635" data-name="Path 5635" d="M375.531,280.709a1.763,1.763,0,1,1-1.705-1.82A1.762,1.762,0,0,1,375.531,280.709Z" transform="translate(-335.775 -263.937)" fill="#445279"/>
          <path id="Path_5636" data-name="Path 5636" d="M389.442,286.42a1.764,1.764,0,1,1-.582-3.407,1.385,1.385,0,0,1,.2.02Q389.249,284.706,389.442,286.42Z" transform="translate(-340.316 -265.182)" fill="#445279"/>
          <path id="Path_5637" data-name="Path 5637" d="M377.282,304.629a1.764,1.764,0,1,1-1.705-1.82A1.764,1.764,0,0,1,377.282,304.629Z" transform="translate(-336.304 -271.162)" fill="#445279"/>
          <path id="Path_5638" data-name="Path 5638" d="M388.214,300.948a1.763,1.763,0,1,1-1.705-1.82A1.763,1.763,0,0,1,388.214,300.948Z" transform="translate(-339.606 -270.051)" fill="#445279"/>
          <path id="Path_5639" data-name="Path 5639" d="M365.883,309.45a1.764,1.764,0,1,1-1.7-1.82A1.764,1.764,0,0,1,365.883,309.45Z" transform="translate(-332.86 -272.619)" fill="#445279"/>
          <path id="Path_5640" data-name="Path 5640" d="M362.523,320.538a1.764,1.764,0,1,1-1.705-1.819A1.764,1.764,0,0,1,362.523,320.538Z" transform="translate(-331.845 -275.968)" fill="#445279"/>
          <path id="Path_5641" data-name="Path 5641" d="M336.772,326.316a1.64,1.64,0,0,1-.032.279,12.454,12.454,0,0,1-2.17.379,8.236,8.236,0,0,1-1.166.014,1.729,1.729,0,0,1-.158-.786,1.764,1.764,0,0,1,3.526.114Z" transform="translate(-324.066 -277.713)" fill="#445279"/>
          <path id="Path_5642" data-name="Path 5642" d="M379.112,326.288c0,.029,0,.057,0,.086a10.421,10.421,0,0,0-3.506-.351,1.762,1.762,0,0,1,3.511.265Z" transform="translate(-336.861 -277.705)" fill="#445279"/>
          <path id="Path_5643" data-name="Path 5643" d="M388.276,313.948a1.764,1.764,0,1,1-1.706-1.819A1.764,1.764,0,0,1,388.276,313.948Z" transform="translate(-339.625 -273.977)" fill="#445279"/>
          <path id="Path_5644" data-name="Path 5644" d="M394.812,322.738a3.076,3.076,0,0,1-.287.587,1.586,1.586,0,0,1-.259.011,1.763,1.763,0,0,1-.048-3.522C394.415,320.871,394.613,321.851,394.812,322.738Z" transform="translate(-341.984 -276.299)" fill="#445279"/>
          <path id="Path_5645" data-name="Path 5645" d="M334.032,295.33a1.763,1.763,0,1,1-1.705-1.82A1.763,1.763,0,0,1,334.032,295.33Z" transform="translate(-323.239 -268.353)" fill="#445279"/>
          <path id="Path_5646" data-name="Path 5646" d="M328.467,287.216a1.76,1.76,0,0,1-1.589,1.695.428.428,0,0,0,.009-.043c.2-1.1.4-2.2.6-3.29A1.766,1.766,0,0,1,328.467,287.216Z" transform="translate(-322.143 -265.957)" fill="#445279"/>
          <path id="Path_5647" data-name="Path 5647" d="M325.121,303.063a1.766,1.766,0,0,1-1.311,1.648c.213-1.006.424-2.041.634-3.093A1.762,1.762,0,0,1,325.121,303.063Z" transform="translate(-321.216 -270.803)" fill="#445279"/>
          <path id="Path_5648" data-name="Path 5648" d="M340.008,304.485a1.764,1.764,0,1,1-1.705-1.82A1.763,1.763,0,0,1,340.008,304.485Z" transform="translate(-325.044 -271.119)" fill="#445279"/>
          <path id="Path_5649" data-name="Path 5649" d="M353.4,302.941a1.764,1.764,0,1,1-1.705-1.82A1.764,1.764,0,0,1,353.4,302.941Z" transform="translate(-329.089 -270.652)" fill="#445279"/>
          <path id="Path_5650" data-name="Path 5650" d="M344.295,290.216a1.764,1.764,0,1,1-1.705-1.819A1.763,1.763,0,0,1,344.295,290.216Z" transform="translate(-326.339 -266.809)" fill="#445279"/>
          <path id="Path_5651" data-name="Path 5651" d="M357.937,288.132a1.763,1.763,0,1,1-1.705-1.82A1.764,1.764,0,0,1,357.937,288.132Z" transform="translate(-330.46 -266.179)" fill="#445279"/>
          <path id="Path_5652" data-name="Path 5652" d="M364.474,275a1.763,1.763,0,1,1-1.705-1.82A1.763,1.763,0,0,1,364.474,275Z" transform="translate(-332.435 -262.214)" fill="#445279"/>
          <path id="Path_5653" data-name="Path 5653" d="M387.3,264.829a1.674,1.674,0,0,1-.38.029,1.763,1.763,0,0,1,.042-3.525C387.067,262.382,387.178,263.557,387.3,264.829Z" transform="translate(-339.766 -258.634)" fill="#445279"/>
          <path id="Path_5654" data-name="Path 5654" d="M373.508,265.187a1.764,1.764,0,1,1-1.705-1.82A1.764,1.764,0,0,1,373.508,265.187Z" transform="translate(-335.164 -259.248)" fill="#445279"/>
          <path id="Path_5655" data-name="Path 5655" d="M382.464,274.487a1.763,1.763,0,1,1-1.705-1.819A1.763,1.763,0,0,1,382.464,274.487Z" transform="translate(-337.869 -262.057)" fill="#445279"/>
          <path id="Path_5656" data-name="Path 5656" d="M366.308,296.378a1.764,1.764,0,1,1-1.706-1.819A1.764,1.764,0,0,1,366.308,296.378Z" transform="translate(-332.989 -268.67)" fill="#445279"/>
          <path id="Path_5657" data-name="Path 5657" d="M330.942,312.641a1.763,1.763,0,1,1-1.705-1.82A1.764,1.764,0,0,1,330.942,312.641Z" transform="translate(-322.306 -273.582)" fill="#445279"/>
          <path id="Path_5658" data-name="Path 5658" d="M347.946,315.166a1.764,1.764,0,1,1-1.705-1.82A1.764,1.764,0,0,1,347.946,315.166Z" transform="translate(-327.442 -274.345)" fill="#445279"/>
          <path id="Path_5659" data-name="Path 5659" d="M322.479,320.7a1.765,1.765,0,0,1-.747,1.388,18.189,18.189,0,0,1-1.638-1.35c.17-.578.341-1.2.516-1.854a1.4,1.4,0,0,1,.163,0A1.763,1.763,0,0,1,322.479,320.7Z" transform="translate(-320.094 -276.017)" fill="#445279"/>
        </g>
        <path id="Path_5660" data-name="Path 5660" d="M371.585,225.2c-10.075,6.12-28.171,5.026-39.361-1.279,1.307-6.738,2.959-13.471,2.945-22.5q0-1.483-.031-2.947-.024-1.272-.065-2.524c-.5-15.028-2.656-27.373-1.347-28.916a11.964,11.964,0,0,1,2.665-2.125q.679-.431,1.448-.868c1.2-.682,2.541-1.365,3.883-2.03,3.183-1.568,6.409-3.015,8.035-4.022a10.125,10.125,0,0,0,4.157,1.193,1.075,1.075,0,0,0,.117,0c.036,0,.077.006.113.008a10.138,10.138,0,0,0,4.227-.921c1.445,1.03,4.182,2.491,6.971,4.077a61.56,61.56,0,0,1,5.738,3.586,11.773,11.773,0,0,1,2.428,2.227c.6.806.223,4.241-.475,9.326-.691,5-1.7,11.607-2.41,18.878-.2,2.02-.374,4.09-.515,6.191C369.507,211.564,370.717,218.39,371.585,225.2Z" transform="translate(-323.758 -157.993)" fill="#1e93d9"/>
        <g id="Group_4341" data-name="Group 4341" transform="translate(14.988 45.145)">
          <path id="Path_5661" data-name="Path 5661" d="M367.712,237.456h0c-7.943-.293-14.606-4.128-18.8-7.294a43.505,43.505,0,0,1-7.263-6.866.382.382,0,0,1,.6-.473,42.727,42.727,0,0,0,7.14,6.741c4.1,3.094,10.611,6.842,18.346,7.127a.382.382,0,0,1-.026.764Z" transform="translate(-341.569 -222.678)" fill="#0070d4"/>
        </g>
        <g id="Group_4342" data-name="Group 4342" transform="translate(18.638 57.081)">
          <path id="Path_5662" data-name="Path 5662" d="M360.926,245.052c-6.893-.224-13.64-4.375-13.947-4.567a.382.382,0,0,1,.4-.649c.079.049,8.017,4.931,15.213,4.422a.382.382,0,0,1,.054.763A16.736,16.736,0,0,1,360.926,245.052Z" transform="translate(-346.799 -239.779)" fill="#0070d4"/>
        </g>
        <g id="Group_4345" data-name="Group 4345" transform="translate(27.682 10.711)">
          <g id="Group_4344" data-name="Group 4344">
            <g id="Group_4343" data-name="Group 4343">
              <path id="Path_5663" data-name="Path 5663" d="M360.126,182.035a.382.382,0,0,1-.047-.76c9.745-1.524,12.866-7.659,12.9-7.721a.382.382,0,0,1,.686.338c-.131.267-3.331,6.555-13.464,8.139A.363.363,0,0,1,360.126,182.035Z" transform="translate(-359.756 -173.34)" fill="#0070d4"/>
            </g>
          </g>
        </g>
        <path id="Path_5664" data-name="Path 5664" d="M369.451,162.351c-2.064,4.322-6.774,10.122-12.885,8.862-5.918-1.222-8.8-5.875-10.733-9.2,3.183-1.57,6.41-3.014,8.035-4.022a10.162,10.162,0,0,0,4.156,1.193,1.088,1.088,0,0,0,.117,0,1.041,1.041,0,0,0,.114.008,10.179,10.179,0,0,0,4.227-.921C363.926,159.3,366.662,160.763,369.451,162.351Z" transform="translate(-327.869 -157.993)" fill="#fcbb8c"/>
        <g id="Group_4346" data-name="Group 4346" transform="translate(22.513 1.121)">
          <path id="Path_5665" data-name="Path 5665" d="M359.777,165.931c6.272.2,7.582-5.744,7.594-5.8a.359.359,0,0,0-.7-.147,6.665,6.665,0,0,1-6.869,5.234,6.824,6.824,0,0,1-6.738-5.324.359.359,0,0,0-.7.135A7.648,7.648,0,0,0,359.777,165.931Z" transform="translate(-352.351 -159.6)" fill="#fff"/>
        </g>
      </g>
      <path id="Path_5666" data-name="Path 5666" d="M363.574,159.934v.006c-.038,0-.077,0-.114-.006C363.5,159.934,363.537,159.932,363.574,159.934Z" transform="translate(-22.987 -24.078)" fill="#3c3c48"/>
      <g id="Group_4365" data-name="Group 4365" transform="translate(327.58 91.135)">
        <g id="Group_4358" data-name="Group 4358" transform="translate(0 14.537)">
          <g id="Group_4350" data-name="Group 4350" transform="translate(0 10.057)">
            <path id="Path_5667" data-name="Path 5667" d="M348.712,132.4s-1.772-2.531-3.216-.533.308,8.095,3.728,6.732Z" transform="translate(-344.987 -131.097)" fill="#fb927e"/>
            <g id="Group_4348" data-name="Group 4348" transform="translate(0.732 2.14)">
              <path id="Path_5668" data-name="Path 5668" d="M348.865,137.635a.286.286,0,0,1-.268-.217,4.412,4.412,0,0,0-2.386-2.706.285.285,0,1,1,.219-.526,4.912,4.912,0,0,1,2.721,3.1.285.285,0,0,1-.209.345A.271.271,0,0,1,348.865,137.635Z" transform="translate(-346.035 -134.163)" fill="#e6765d"/>
            </g>
            <g id="Group_4349" data-name="Group 4349" transform="translate(1.368 3.314)">
              <path id="Path_5669" data-name="Path 5669" d="M347.223,137.141a.289.289,0,0,1-.153-.05.285.285,0,0,1-.072-.4,2.592,2.592,0,0,1,1.1-.827.285.285,0,1,1,.216.528,2.058,2.058,0,0,0-.845.624A.285.285,0,0,1,347.223,137.141Z" transform="translate(-346.947 -135.845)" fill="#e6765d"/>
            </g>
          </g>
          <g id="Group_4354" data-name="Group 4354" transform="translate(21.907 10.804)">
            <path id="Path_5670" data-name="Path 5670" d="M377.288,133.342s1.933-2.411,3.245-.323-.833,8.058-4.158,6.476Z" transform="translate(-376.375 -132.168)" fill="#fb927e"/>
            <g id="Group_4351" data-name="Group 4351" transform="translate(0.521 2.187)">
              <path id="Path_5671" data-name="Path 5671" d="M377.4,138.6a.286.286,0,0,0,.281-.2,4.41,4.41,0,0,1,2.558-2.545.285.285,0,0,0-.185-.54,4.913,4.913,0,0,0-2.917,2.913.285.285,0,0,0,.186.358A.324.324,0,0,0,377.4,138.6Z" transform="translate(-377.121 -135.301)" fill="#e6765d"/>
            </g>
            <g id="Group_4353" data-name="Group 4353" transform="translate(1.577 3.253)">
              <g id="Group_4352" data-name="Group 4352">
                <path id="Path_5672" data-name="Path 5672" d="M379.833,138.187a.285.285,0,0,0,.254-.431,2.605,2.605,0,0,0-1.042-.9.285.285,0,1,0-.25.512,2.069,2.069,0,0,1,.8.678A.283.283,0,0,0,379.833,138.187Z" transform="translate(-378.634 -136.829)" fill="#e6765d"/>
              </g>
            </g>
          </g>
          <path id="Path_5673" data-name="Path 5673" d="M366.122,149.8l-.195,6s-1.889,3-4.316,3.127-4.48-2.779-4.48-2.779l.2-6.212Z" transform="translate(-348.655 -126.69)" fill="#fcbb8c"/>
          <path id="Path_5674" data-name="Path 5674" d="M366.153,149.8l-.087,2.663c-1.682,1.749-4.586,2.293-8.833,1.525l.13-4.051Z" transform="translate(-348.686 -126.69)" fill="#fb927e"/>
          <path id="Path_5675" data-name="Path 5675" d="M370.452,124.593a58.4,58.4,0,0,1-1.025,7.554c-.13.578-.273,1.121-.428,1.607-1.406,4.38-4.812,11.859-13.551,8.414-3.86-1.521-5.528-5.93-6.191-10.38a42.821,42.821,0,0,1-.323-8.229,6.267,6.267,0,0,1,3.351-5.227c5.315-2.79,10.786-1.507,14.367,0A6.247,6.247,0,0,1,370.452,124.593Z" transform="translate(-346.159 -116.688)" fill="#fcbb8c"/>
          <path id="Path_5676" data-name="Path 5676" d="M357.55,133.222c-.021.641-.368,1.15-.775,1.136s-.72-.544-.7-1.184.368-1.149.775-1.136S357.571,132.582,357.55,133.222Z" transform="translate(-348.336 -121.324)" fill="#3c3c48"/>
          <path id="Path_5677" data-name="Path 5677" d="M370.6,133.646c-.02.641-.367,1.149-.775,1.136s-.72-.543-.7-1.183.368-1.149.775-1.136S370.617,133,370.6,133.646Z" transform="translate(-352.277 -121.452)" fill="#3c3c48"/>
          <path id="Path_5678" data-name="Path 5678" d="M354.89,128.517a12.341,12.341,0,0,1,3.169-.37.548.548,0,0,1,.525.66l0,.008a.546.546,0,0,1-.578.429,13.859,13.859,0,0,0-4.336.389.828.828,0,0,1,.27-.579A1.9,1.9,0,0,1,354.89,128.517Z" transform="translate(-347.609 -120.148)" fill="#3c3c48"/>
          <path id="Path_5679" data-name="Path 5679" d="M370.882,129.019a12.3,12.3,0,0,0-3.139-.575.549.549,0,0,0-.567.625v.008a.546.546,0,0,0,.549.466,13.85,13.85,0,0,1,4.3.67.827.827,0,0,0-.232-.6A1.9,1.9,0,0,0,370.882,129.019Z" transform="translate(-351.688 -120.239)" fill="#3c3c48"/>
          <g id="Group_4356" data-name="Group 4356" transform="translate(12.171 11.719)">
            <g id="Group_4355" data-name="Group 4355">
              <path id="Path_5680" data-name="Path 5680" d="M363.443,139.074a1.2,1.2,0,0,1-.615-.168.87.87,0,0,1-.392-.709,42.321,42.321,0,0,1,.317-4.465.285.285,0,1,1,.567.065,42.91,42.91,0,0,0-.314,4.36.308.308,0,0,0,.131.27,1.711,1.711,0,0,0,1.147-.071.285.285,0,0,1,.2.535A3.058,3.058,0,0,1,363.443,139.074Z" transform="translate(-362.426 -133.478)" fill="#fb927e"/>
            </g>
          </g>
          <path id="Path_5681" data-name="Path 5681" d="M358.612,143.906a3.4,3.4,0,0,0,3.245,3.188c2.419.078,3.157-1.723,3.43-2.971Z" transform="translate(-349.103 -124.909)" fill="#fff"/>
          <g id="Group_4357" data-name="Group 4357" transform="translate(11.214 22.889)">
            <path id="Path_5682" data-name="Path 5682" d="M362.506,150.441a2.85,2.85,0,0,1-1.324-.434.285.285,0,0,1,.315-.476h0a2.285,2.285,0,0,0,1.028.34,2.429,2.429,0,0,0,1.1-.271.285.285,0,0,1,.279.5A2.979,2.979,0,0,1,362.506,150.441Z" transform="translate(-361.054 -149.484)" fill="#fb927e"/>
          </g>
        </g>
        <path id="Path_5683" data-name="Path 5683" d="M371.329,121.844a.93.93,0,0,1-.7.5,18.233,18.233,0,0,1-.172,2.106c-.485,4.11-1.548,4.8-1.75,3.772a47.865,47.865,0,0,1,.119-5.824,13.386,13.386,0,0,1-1.5-.238l-.825-4.031-.464,3.938c-1.448.454-4.767-.455-4.767-.455l-.994-3.977-.818,3.77a7.986,7.986,0,0,1-4.847.192l-.485-4.111-1.559,4.045a14.505,14.505,0,0,1-3.012.613c.09,1.486.234,4.5-.055,4.835-1.026,1.2-1.424-.8-1.325-2.693.05-.944.109-1.736.153-2.3a.635.635,0,0,1-.4-.609,30.707,30.707,0,0,1,1.451-5.7,8.646,8.646,0,0,1,4.337-5.153,15.191,15.191,0,0,1,13.776.251C371.78,113.536,371.329,121.844,371.329,121.844Z" transform="translate(-345.874 -99.829)" fill="#3c3c48"/>
        <circle id="Ellipse_311" data-name="Ellipse 311" cx="8.172" cy="8.172" r="8.172" transform="translate(7.311)" fill="#3c3c48"/>
        <path id="Path_5684" data-name="Path 5684" d="M378.828,142.659a.668.668,0,1,1-.646-.69A.668.668,0,0,1,378.828,142.659Z" transform="translate(-354.806 -109.787)" fill="#fff"/>
        <g id="Group_4364" data-name="Group 4364" transform="translate(3.619 23.588)">
          <g id="Group_4359" data-name="Group 4359" transform="translate(10.743 0.316)">
            <path id="Path_5685" data-name="Path 5685" d="M372.471,132.428a3.421,3.421,0,0,0-.243-.519,3.584,3.584,0,0,0-1.647-1.492l0,0a3.518,3.518,0,0,0-1.33-.3,3.807,3.807,0,0,0-.506.019,3.582,3.582,0,0,0-2.8,1.944,3.508,3.508,0,0,0-.236.592,3.567,3.567,0,1,0,6.986,1.125A3.5,3.5,0,0,0,372.471,132.428Zm-3.437,4.255a3.01,3.01,0,1,1,3.106-2.91A3.011,3.011,0,0,1,369.034,136.682Z" transform="translate(-365.564 -130.107)" fill="#fff"/>
          </g>
          <g id="Group_4360" data-name="Group 4360" transform="translate(1.002)">
            <path id="Path_5686" data-name="Path 5686" d="M358.649,132.434a3.41,3.41,0,0,0-.19-.595,3.568,3.568,0,0,0-2.76-2.145,3.442,3.442,0,0,0-.41-.038,3.485,3.485,0,0,0-1.314.206h0a3.579,3.579,0,0,0-1.8,1.439,3.4,3.4,0,0,0-.274.516,3.565,3.565,0,1,0,6.841,1.518A3.417,3.417,0,0,0,358.649,132.434Zm-3.573,3.8a3.01,3.01,0,1,1,3.106-2.91A3.016,3.016,0,0,1,355.076,136.229Z" transform="translate(-351.607 -129.655)" fill="#fff"/>
          </g>
          <g id="Group_4361" data-name="Group 4361" transform="translate(17.039 1.24)">
            <path id="Path_5687" data-name="Path 5687" d="M376.752,131.432a4.95,4.95,0,0,0-2.078,1.11.276.276,0,0,0-.013.393.271.271,0,0,0,.194.087.276.276,0,0,0,.2-.073,4.508,4.508,0,0,1,1.679-.916Z" transform="translate(-374.586 -131.432)" fill="#fff"/>
          </g>
          <g id="Group_4362" data-name="Group 4362" transform="translate(0 0.78)">
            <path id="Path_5688" data-name="Path 5688" d="M351.919,131.806a4.844,4.844,0,0,0-1.686-1.033l-.061.7a5.481,5.481,0,0,1,1.428.792.271.271,0,0,0,.15.05.284.284,0,0,0,.237-.118A.281.281,0,0,0,351.919,131.806Z" transform="translate(-350.172 -130.773)" fill="#fff"/>
          </g>
          <g id="Group_4363" data-name="Group 4363" transform="translate(7.522 1.467)">
            <path id="Path_5689" data-name="Path 5689" d="M361.389,133.165a2.248,2.248,0,0,1,1.563-.851,2.051,2.051,0,0,1,1.433.948l.475-.289a2.573,2.573,0,0,0-1.889-1.214,2.774,2.774,0,0,0-2.022,1.067Z" transform="translate(-360.949 -131.757)" fill="#fff"/>
          </g>
        </g>
      </g>
      <path id="Path_5690" data-name="Path 5690" d="M335.543,198.948c-.5-15.028-2.656-27.373-1.347-28.916a11.963,11.963,0,0,1,2.665-2.125C337.837,173.34,340.214,189.671,335.543,198.948Z" transform="translate(-14.022 -26.487)" fill="#fcbb8c"/>
      <path id="Path_5691" data-name="Path 5691" d="M388.883,180.928c-.691,5-1.7,11.607-2.41,18.878-3.563-9.522-.869-25.015.457-30.432a11.771,11.771,0,0,1,2.428,2.227C389.956,172.407,389.582,175.842,388.883,180.928Z" transform="translate(-29.404 -26.93)" fill="#fcbb8c"/>
      <g id="Group_4368" data-name="Group 4368" transform="translate(353.048 144.923)">
        <g id="Group_4367" data-name="Group 4367" transform="translate(3.421 0)">
          <path id="Path_5692" data-name="Path 5692" d="M400.569,214.038c-1.242,5.517-4.867,10.761-7.554,14.049l-.01.016a44.638,44.638,0,0,1-3.12,3.485l-3.505-3.116a53.5,53.5,0,0,0,3.713-7.751c1.669-4.3,3.175-9.821,2.746-15.04v-.01c-.009-.119-.02-.24-.032-.359l-.177-.473-.006-.013-6.244-16.57,3.61-15.331s7.707,19.535,10.188,29.324A21.614,21.614,0,0,1,400.569,214.038Z" transform="translate(-386.379 -172.926)" fill="#fcbb8c"/>
          <g id="Group_4366" data-name="Group 4366" transform="translate(6.25 30.835)">
            <path id="Path_5693" data-name="Path 5693" d="M400.208,217.507a.441.441,0,0,1-.331.459q-2.365.553-4.333,1.062v-.01c-.009-.119-.02-.24-.032-.359l-.177-.473q1.972-.51,4.338-1.066a.432.432,0,0,1,.523.325A.208.208,0,0,1,400.208,217.507Z" transform="translate(-395.334 -217.106)" fill="#fb927e"/>
          </g>
        </g>
        <path id="Path_5694" data-name="Path 5694" d="M386.378,249.159l3.506,3.116a44.5,44.5,0,0,0,3.12-3.486l.01-.016c-.133-2.9-1.266-6.785-2.922-7.367A53.437,53.437,0,0,1,386.378,249.159Z" transform="translate(-382.958 -193.612)" fill="#fb927e"/>
        <path id="Path_5695" data-name="Path 5695" d="M385.858,245.917c-.55.1-3.488.586-3.284-.462.224-1.155,2.938-2.773,2.938-2.773l-.018-.154-.031-.269-.234-2.2a2.394,2.394,0,0,1,.975.052c1.316.247,2.028,2.985,2.028,2.985s1.669.389,1.745,1.569a1.552,1.552,0,0,1-1.195,1.5s1.865.678,1.568,1.723a2.684,2.684,0,0,1-1.6,1.492s1.628.824,1.18,1.588a3.955,3.955,0,0,1-1.639,1.258s1.219,1.308.237,2.21a4.235,4.235,0,0,1-3.634.678c-1.055-.236-1.027-1.547.861-2.715a2.921,2.921,0,0,1-2.789-.988c-.875-1.14.937-1.883,2.51-2.277-1.245.228-3.415.442-3.924-.713C380.88,246.913,385.185,246.044,385.858,245.917Z" transform="translate(-381.478 -193.197)" fill="#fcbb8c"/>
      </g>
      <g id="Group_4376" data-name="Group 4376" transform="translate(346.891 314.513)">
        <g id="Group_4375" data-name="Group 4375" transform="translate(0 0)">
          <path id="Path_5696" data-name="Path 5696" d="M376.184,416.723a28.221,28.221,0,0,1,3.966-.807c.859.018,6.605,6.458,8.542,6.839,3.513.692,3.511,6.177,1.373,6.448-6.185.781-16.76-1.843-16.76-1.843s-.967-7.04-.541-9.249S374.456,417.37,376.184,416.723Z" transform="translate(-372.655 -415.916)" fill="#0070d4"/>
          <g id="Group_4374" data-name="Group 4374" transform="translate(6.939 2.464)">
            <g id="Group_4369" data-name="Group 4369" transform="translate(1.183 1.299)">
              <path id="Path_5697" data-name="Path 5697" d="M384.813,424.366a.428.428,0,0,1-.447-.658,6.6,6.6,0,0,1,2.4-2.15,2.954,2.954,0,0,1,3.012.367.428.428,0,1,1-.561.648,2.106,2.106,0,0,0-2.124-.223,5.834,5.834,0,0,0-2.014,1.838A.426.426,0,0,1,384.813,424.366Z" transform="translate(-384.293 -421.306)" fill="#fff"/>
            </g>
            <g id="Group_4370" data-name="Group 4370">
              <path id="Path_5698" data-name="Path 5698" d="M383.118,422.506a.429.429,0,0,1-.447-.658,6.6,6.6,0,0,1,2.4-2.151,2.95,2.95,0,0,1,3.012.368.428.428,0,1,1-.561.647,2.108,2.108,0,0,0-2.124-.223,5.792,5.792,0,0,0-2.014,1.838A.43.43,0,0,1,383.118,422.506Z" transform="translate(-382.598 -419.445)" fill="#fff"/>
            </g>
            <g id="Group_4373" data-name="Group 4373" transform="translate(2.835 2.403)">
              <g id="Group_4372" data-name="Group 4372">
                <g id="Group_4371" data-name="Group 4371">
                  <path id="Path_5699" data-name="Path 5699" d="M387.181,425.949a.428.428,0,0,1-.447-.657,6.6,6.6,0,0,1,2.4-2.151,2.948,2.948,0,0,1,3.012.368.428.428,0,1,1-.561.647,2.107,2.107,0,0,0-2.124-.223,5.79,5.79,0,0,0-2.014,1.838A.426.426,0,0,1,387.181,425.949Z" transform="translate(-386.66 -422.889)" fill="#fff"/>
                </g>
              </g>
            </g>
          </g>
        </g>
      </g>
      <g id="Group_4382" data-name="Group 4382" transform="translate(302.734 315.206)">
        <g id="Group_4381" data-name="Group 4381" transform="translate(0)">
          <path id="Path_5700" data-name="Path 5700" d="M326.711,418.7s-1.374-1.862-2.473-1.787-9.593,6.773-12.5,7.317-2.722,4.16-1.575,4.56c1.306.456,22.808-.169,22.808-.169s.738-7.66.008-9.721S328.977,419.195,326.711,418.7Z" transform="translate(-309.388 -416.909)" fill="#0070d4"/>
          <g id="Group_4380" data-name="Group 4380" transform="translate(6.301 2.189)">
            <g id="Group_4377" data-name="Group 4377" transform="translate(1.646 1.14)">
              <path id="Path_5701" data-name="Path 5701" d="M325.45,424.818a.406.406,0,0,0,.472-.588,6.255,6.255,0,0,0-2.107-2.213,2.8,2.8,0,0,0-2.876.122.406.406,0,1,0,.482.654,2,2,0,0,1,2.025-.052,5.539,5.539,0,0,1,1.768,1.889A.4.4,0,0,0,325.45,424.818Z" transform="translate(-320.774 -421.679)" fill="#fff"/>
            </g>
            <g id="Group_4378" data-name="Group 4378" transform="translate(2.862)">
              <path id="Path_5702" data-name="Path 5702" d="M327.193,423.186a.406.406,0,0,0,.472-.589,6.257,6.257,0,0,0-2.106-2.213,2.8,2.8,0,0,0-2.877.122.406.406,0,1,0,.482.654,2,2,0,0,1,2.025-.052A5.5,5.5,0,0,1,326.957,423,.407.407,0,0,0,327.193,423.186Z" transform="translate(-322.516 -420.046)" fill="#fff"/>
            </g>
            <g id="Group_4379" data-name="Group 4379" transform="translate(0 2.061)">
              <path id="Path_5703" data-name="Path 5703" d="M323.092,426.139a.406.406,0,0,0,.473-.588,6.261,6.261,0,0,0-2.107-2.214,2.8,2.8,0,0,0-2.876.122.407.407,0,0,0,.482.655,2,2,0,0,1,2.025-.052,5.5,5.5,0,0,1,1.767,1.889A.406.406,0,0,0,323.092,426.139Z" transform="translate(-318.416 -422.999)" fill="#fff"/>
            </g>
          </g>
        </g>
      </g>
      <g id="Group_4384" data-name="Group 4384" transform="translate(287.361 80.223)">
        <path id="Path_5704" data-name="Path 5704" d="M324.385,163.529a30.516,30.516,0,0,1-4.11-3.275c-3.94-4.383-13.822-14.781-16.773-23.749-1.874-5.7-4.966-32.115-4.969-32.5v0l4.969-1.189s0,.017.013.054h0c.218,1.043,3.535,16.7,7.148,26.527.1.276.2.548.306.813.192.5.384.984.576,1.446q.126.3.255.6.175.4.357.791A35.654,35.654,0,0,0,322.22,145.97c.213.163,3.531,2.575,3.531,2.575A29.116,29.116,0,0,1,324.385,163.529Z" transform="translate(-290.736 -87.047)" fill="#fcbb8c"/>
        <g id="Group_4383" data-name="Group 4383" transform="translate(16.281 42.349)">
          <path id="Path_5705" data-name="Path 5705" d="M314.64,141.714q-1.555.7-3.333,1.551a.441.441,0,0,1-.544-.154.2.2,0,0,1-.031-.057.431.431,0,0,1,.206-.579q1.816-.862,3.4-1.574C314.435,141.177,314.537,141.449,314.64,141.714Z" transform="translate(-310.689 -140.901)" fill="#fb927e"/>
        </g>
        <path id="Path_5706" data-name="Path 5706" d="M299.311,96.9a6.762,6.762,0,0,0,2.251-3.906c.173-2.153.824-5.927-.419-7.794-1.04-1.562-.824,2.427-1.938,3.977a29.963,29.963,0,0,1-3-3.562c-.988-1.467-3.187-4.054-4.214-5.244a.425.425,0,0,0-.742.349,9.575,9.575,0,0,0,2.1,3.645s-3.716-4.242-4.692-3.928,3.768,5.532,3.768,5.532-4.05-3.576-4.682-3c-.385.353,3.288,4.727,3.288,4.727s-4.1-3.036-3.625-1.642c.138.406,7.8,7.367,8.008,12.681C295.408,98.739,298.125,98.283,299.311,96.9Z" transform="translate(-287.361 -80.223)" fill="#fcbb8c"/>
      </g>
    </g>
  </g>
</svg>
