<svg xmlns="http://www.w3.org/2000/svg" width="23.343" height="22.709" viewBox="0 0 23.343 22.709">
  <g id="noun_event_2080556" transform="translate(-1.9 -3.3)">
    <g id="Group_12" data-name="Group 12" transform="translate(2.4 3.8)">
      <path id="Path_12" data-name="Path 12" d="M22.87,13.1H21.037v.846a2.714,2.714,0,1,1-5.427,0V13.1h-3.9v.846a2.714,2.714,0,1,1-5.427,0V13.1H4.45A1.945,1.945,0,0,0,2.5,15.05v3.642H24.82V15.05A1.96,1.96,0,0,0,22.87,13.1Z" transform="translate(-2.477 -10.915)" fill="none" stroke="#1f1f1f" stroke-width="1"/>
      <path id="Path_13" data-name="Path 13" d="M25.837,8.17a1.339,1.339,0,0,0,1.339-1.339V5.139a1.339,1.339,0,0,0-2.678,0V6.831A1.31,1.31,0,0,0,25.837,8.17Z" transform="translate(-19.306 -3.8)" fill="none" stroke="#1f1f1f" stroke-width="1"/>
      <path id="Path_14" data-name="Path 14" d="M65.439,8.17a1.339,1.339,0,0,0,1.339-1.339V5.139a1.339,1.339,0,1,0-2.678,0V6.831A1.324,1.324,0,0,0,65.439,8.17Z" transform="translate(-49.604 -3.8)" fill="none" stroke="#1f1f1f" stroke-width="1"/>
      <path id="Path_15" data-name="Path 15" d="M2.424,53.319a1.945,1.945,0,0,0,1.95,1.95h18.4a1.945,1.945,0,0,0,1.95-1.95V42.7H2.4V53.319Zm8.434-5.38,1.457-.211a.279.279,0,0,0,.235-.188l.634-1.292a.443.443,0,0,1,.775,0l.658,1.339a.373.373,0,0,0,.235.188l1.433.211a.423.423,0,0,1,.235.728l-1.057,1.034a.323.323,0,0,0-.094.282l.235,1.433a.418.418,0,0,1-.611.446l-1.316-.681a.348.348,0,0,0-.305,0L12.1,51.91a.418.418,0,0,1-.611-.446l.258-1.457a.323.323,0,0,0-.094-.282l-1.034-1.01A.46.46,0,0,1,10.858,47.939Z" transform="translate(-2.4 -33.561)" fill="none" stroke="#1f1f1f" stroke-width="1"/>
    </g>
  </g>
</svg>
