<svg xmlns="http://www.w3.org/2000/svg" width="23.031" height="22.806" viewBox="0 0 23.031 22.806">
  <g id="noun_Feed_1903012" transform="translate(-0.5 -1)">
    <path id="Path_16" data-name="Path 16" d="M20.288,1.5H3.743A2.754,2.754,0,0,0,1,4.243V20.586a2.749,2.749,0,0,0,2.743,2.72H20.311a2.749,2.749,0,0,0,2.72-2.743V4.243A2.754,2.754,0,0,0,20.288,1.5Zm-8.52,6.137H19.1a.742.742,0,1,1,0,1.484H11.768a.742.742,0,0,1,0-1.484Zm-.719-2.2a.748.748,0,0,1,.742-.742h5.081a.742.742,0,1,1,0,1.484h-5.1A.744.744,0,0,1,11.049,5.434ZM8.6,5.681V8.109a1,1,0,0,1-.989.989H5.181a1,1,0,0,1-.989-.989V5.681a1,1,0,0,1,.989-.989H7.609A1,1,0,0,1,8.6,5.681Zm11.69,15.826H3.743a.95.95,0,0,1-.944-.944V11.391H21.232v9.172A.95.95,0,0,1,20.288,21.508Z" fill="none" stroke="#1f1f1f" stroke-width="1"/>
  </g>
</svg>
