<svg xmlns="http://www.w3.org/2000/svg" width="34.03" height="33.084" viewBox="0 0 34.03 33.084">
  <g id="noun_event_2080556" transform="translate(-2.05 -3.45)">
    <g id="Group_12" data-name="Group 12" transform="translate(2.4 3.8)">
      <path id="Path_12" data-name="Path 12" d="M32.886,13.1H30.153v1.262a4.048,4.048,0,1,1-8.1,0V13.1H16.239v1.262a4.048,4.048,0,1,1-8.1,0V13.1H5.409A2.9,2.9,0,0,0,2.5,16.009v5.432H35.8V16.009A2.924,2.924,0,0,0,32.886,13.1Z" transform="translate(-2.465 -9.841)" fill="rgba(181,95,203,0.1)" stroke="#b55fcb" stroke-width="0.7"/>
      <path id="Path_13" data-name="Path 13" d="M26.5,10.319a2,2,0,0,0,2-2V5.8a2,2,0,0,0-4,0V8.321A1.954,1.954,0,0,0,26.5,10.319Z" transform="translate(-16.753 -3.8)" fill="rgba(181,95,203,0.1)" stroke="#b55fcb" stroke-width="0.7"/>
      <path id="Path_14" data-name="Path 14" d="M66.1,10.319a2,2,0,0,0,2-2V5.8a2,2,0,0,0-4,0V8.321A1.975,1.975,0,0,0,66.1,10.319Z" transform="translate(-42.476 -3.8)" fill="rgba(181,95,203,0.1)" stroke="#b55fcb" stroke-width="0.7"/>
      <path id="Path_15" data-name="Path 15" d="M2.435,58.542a2.9,2.9,0,0,0,2.909,2.909H32.786A2.9,2.9,0,0,0,35.7,58.542V42.7H2.4V58.542Zm12.582-8.026L17.19,50.2a.416.416,0,0,0,.35-.28l.946-1.928a.66.66,0,0,1,1.157,0l.981,2a.557.557,0,0,0,.35.28l2.138.315a.631.631,0,0,1,.35,1.086l-1.577,1.542a.482.482,0,0,0-.14.421l.35,2.138a.624.624,0,0,1-.911.666l-1.963-1.016a.52.52,0,0,0-.456,0l-1.893,1.016a.624.624,0,0,1-.911-.666l.386-2.173a.482.482,0,0,0-.14-.421l-1.542-1.507A.686.686,0,0,1,15.017,50.516Z" transform="translate(-2.4 -29.066)" fill="rgba(181,95,203,0.1)" stroke="#b55fcb" stroke-width="0.7"/>
    </g>
  </g>
</svg>
