<svg xmlns="http://www.w3.org/2000/svg" width="154.016" height="31.153" viewBox="0 0 154.016 31.153">
  <g id="Group_3654" data-name="Group 3654" transform="translate(-114.5 -575.5)">
    <path id="whatsapp" d="M25.038,36.279A14.6,14.6,0,0,0,2.071,53.89L0,61.449l7.737-2.031a14.549,14.549,0,0,0,6.974,1.775h.007a14.5,14.5,0,0,0,10.32-24.913ZM14.718,58.734a12.108,12.108,0,0,1-6.179-1.689l-.44-.263-4.588,1.2,1.223-4.477-.289-.46A12.153,12.153,0,1,1,26.984,46.6,12.265,12.265,0,0,1,14.718,58.734ZM21.37,49.65c-.362-.184-2.156-1.065-2.491-1.183s-.578-.184-.822.184-.94,1.183-1.157,1.433-.427.276-.789.092a9.925,9.925,0,0,1-4.963-4.338c-.375-.644.375-.6,1.071-1.992a.676.676,0,0,0-.033-.638c-.092-.184-.822-1.979-1.124-2.708-.3-.71-.6-.611-.822-.624s-.454-.013-.7-.013a1.351,1.351,0,0,0-.973.454A4.1,4.1,0,0,0,7.3,43.359a7.143,7.143,0,0,0,1.486,3.773,16.294,16.294,0,0,0,6.232,5.509c2.314,1,3.221,1.085,4.378.914a3.735,3.735,0,0,0,2.458-1.735,3.05,3.05,0,0,0,.21-1.735C21.975,49.919,21.732,49.827,21.37,49.65Z" transform="translate(175.5 544.5)" fill="rgba(88,154,201,0.1)" stroke="#3897f1" stroke-width="1"/>
    <g id="noun_text_205147" transform="translate(113 573)">
      <path id="Path_4951" data-name="Path 4951" d="M6.737,3H27.263A4.73,4.73,0,0,1,32,7.737v14.21a4.73,4.73,0,0,1-4.737,4.737H20.016l-5.842,5.858a1.585,1.585,0,0,1-2.7-1.121V26.684H6.737A4.73,4.73,0,0,1,2,21.947V7.737A4.73,4.73,0,0,1,6.737,3M27.263,4.579H6.737A3.167,3.167,0,0,0,3.579,7.737v14.21A3.167,3.167,0,0,0,6.737,25.1h6.316v6.316L19.368,25.1h7.895a3.167,3.167,0,0,0,3.158-3.158V7.737a3.167,3.167,0,0,0-3.158-3.158M6.737,9.316H27.263v1.579H6.737V9.316m0,4.737H25.684v1.579H6.737V14.052m0,4.737H19.368v1.579H6.737Z" transform="translate(0 0)" fill="rgba(88,154,201,0.1)" stroke="#3897f1" stroke-width="1"/>
    </g>
    <g id="noun_Mail_50435" transform="translate(237 577)">
      <g id="Group_3653" data-name="Group 3653" transform="translate(0 0.001)">
        <g id="Group_3651" data-name="Group 3651" transform="translate(0 0)">
          <g id="Group_3650" data-name="Group 3650" transform="translate(0 10.461)">
            <path id="Path_4952" data-name="Path 4952" d="M22.656,33.494a.706.706,0,0,1,1,0l7.171,7.172a2.182,2.182,0,0,0,.189-.892V25.2a3.354,3.354,0,0,0-.115-.839,4.487,4.487,0,0,1-1.3,1.358L17.689,33.682a4.312,4.312,0,0,1-4.361,0L1.414,25.724a4.448,4.448,0,0,1-1.3-1.358A3.35,3.35,0,0,0,0,25.2V39.774a2.183,2.183,0,0,0,.19.892l7.171-7.172a.708.708,0,1,1,1,1L1.155,41.7a2.057,2.057,0,0,0,.969.244H28.892a2.059,2.059,0,0,0,.97-.244L22.656,34.5A.708.708,0,0,1,22.656,33.494Z" transform="translate(0 -24.366)" fill="rgba(88,154,201,0.1)" stroke="#3897f1" stroke-width="1"/>
          </g>
          <path id="Path_4953" data-name="Path 4953" d="M30.729,8.253,18.816.479a3.616,3.616,0,0,0-3.6,0L3.307,8.253c-.33.211-.749.565-.647.754a3.352,3.352,0,0,0,1.03,1.2l3.184,2.079V9.855A2.126,2.126,0,0,1,9,7.728H25.037A2.125,2.125,0,0,1,27.16,9.855v2.431l3.185-2.079a3.348,3.348,0,0,0,1.03-1.2C31.477,8.819,31.058,8.464,30.729,8.253Z" transform="translate(-1.509 -0.001)" fill="rgba(88,154,201,0.1)" stroke="#3897f1" stroke-width="1"/>
        </g>
        <g id="Group_3652" data-name="Group 3652" transform="translate(10.207 10.988)">
          <path id="Path_4954" data-name="Path 4954" d="M24.481,27.01a.709.709,0,0,1-.708-.708h0a.708.708,0,0,1,.708-.708h9.186a.708.708,0,0,1,.708.708h0a.709.709,0,0,1-.708.708H24.481Z" transform="translate(-23.773 -25.593)" fill="rgba(88,154,201,0.1)" stroke="#3897f1" stroke-width="1"/>
          <path id="Path_4955" data-name="Path 4955" d="M24.481,34.565a.708.708,0,0,1-.708-.708h0a.708.708,0,0,1,.708-.708h6.071a.708.708,0,0,1,.708.708h0a.708.708,0,0,1-.708.708H24.481Z" transform="translate(-23.773 -29.905)" fill="rgba(88,154,201,0.1)" stroke="#3897f1" stroke-width="1"/>
        </g>
      </g>
    </g>
  </g>
</svg>
